<svg xmlns="http://www.w3.org/2000/svg" xmlns:xlink="http://www.w3.org/1999/xlink" version="1.2" baseProfile="tiny" id="Layer_1" x="0px" y="0px" viewBox="0 0 553.1 604" xml:space="preserve">
            		<path id="XMLID_62_" d="M0,604h120c109.5,0,144.4-69,144.4-291.5v-12.6C264.3,77.4,229.5,8.4,120,8.4H0V604z M119.3,76.7  c25.8,0,33.5,47.4,33.5,221.8v15.3c0,174.4-7.7,221.8-33.5,221.8h-11.9V76.7H119.3z M546.8,604v-84.4H380.1  c8.4-39.1,30-77.4,84.4-154.8c63.5-90,88.6-154.8,88.6-221.8c0-92.1-46.7-143-133.2-143c-84.4,0-130.4,48.8-130.4,143.7  c0,19.5,2.1,38.4,4.2,57.2h103.2c-1.4-15.3-3.5-41.8-3.5-64.2c0-43.9,8.4-67.7,23.7-67.7c14.6,0,23,23.7,23,67.7  c0,61.4-16.7,103.2-63.5,173.7c-82.3,124.8-99,171.6-99,268.5V604H546.8z"></path>
            	</svg>
