<svg xmlns="http://www.w3.org/2000/svg" viewBox="0 0 553.1 604">
  <title>D2</title>
  <path fill="var(--logo-fill-color)" d="M0 604h120c109.5 0 144.4-69 144.4-291.5v-12.6C264.3 77.4 229.5 8.4 120 8.4H0V604zM119.3 76.7c25.8 0 33.5 47.4 33.5 221.8v15.3c0 174.4-7.7 221.8-33.5 221.8h-11.9V76.7h11.9zM546.8 604v-84.4H380.1c8.4-39.1 30-77.4 84.4-154.8 63.5-90 88.6-154.8 88.6-221.8 0-92.1-46.7-143-133.2-143-84.4 0-130.4 48.8-130.4 143.7 0 19.5 2.1 38.4 4.2 57.2h103.2c-1.4-15.3-3.5-41.8-3.5-64.2 0-43.9 8.4-67.7 23.7-67.7 14.6 0 23 23.7 23 67.7 0 61.4-16.7 103.2-63.5 173.7-82.3 124.8-99 171.6-99 268.5V604h269.2z"/>
</svg>
