<svg xmlns="http://www.w3.org/2000/svg" viewBox="0 0 252 29">
  <title>Europower</title>
  <path fill="var(--color-header-logo-primary)" d="M2.112 28h19.31v-5.567H8.14v-5.106h10.865v-5.375H8.1c0-1.804.038-3.57.038-5.336H21V1.087H2.15L2.112 28ZM50.91 14.217V1.087h-5.912v12.67c0 5.566-2.573 8.638-5.836 8.638-3.609 0-6.104-2.457-6.104-8.485V1.087h-5.874c0 4.416-.038 9.06-.038 13.476-.039 8.408 4.53 13.82 12.016 13.82 7.256 0 11.748-5.45 11.748-14.166ZM72.044 28h5.72v-1.344l-7.14-9.29c3.455-.999 6.565-4.147 6.565-8.14 0-4.914-2.803-8.139-8.14-8.139H56.305L56.342 28h5.912V17.865h1.92L72.044 28Zm-.652-18.697c0 1.42-.998 2.841-3.57 2.841 0 0-3.571-.038-5.568-.038v-5.49h5.874c2.573 0 3.264 1.305 3.264 2.687Zm36.763 5.375c0-9.33-6.757-14.358-13.438-14.358-6.641 0-13.436 4.53-13.436 14.243 0 9.406 6.795 14.166 13.436 14.166 6.642 0 13.438-4.645 13.438-14.05Zm-5.682 0c0 4.607-2.65 8.216-7.755 8.216-5.106 0-7.756-3.724-7.756-8.216 0-4.76 2.65-8.523 7.755-8.523 5.068 0 7.756 3.84 7.756 8.523Zm30.962-3.877c0-6.22-3.993-9.714-9.329-9.714h-11.172L112.895 28h6.028v-7.64h5.068c4.875 0 9.444-3.494 9.444-9.56Zm-5.759.076c0 2.112-1.727 3.878-4.3 3.878h-4.453V7.077h4.76c2.496 0 3.993 1.458 3.993 3.8Zm36.883 3.801c0-9.33-6.757-14.358-13.437-14.358-6.642 0-13.437 4.53-13.437 14.243 0 9.406 6.795 14.166 13.437 14.166 6.642 0 13.437-4.645 13.437-14.05Zm-5.682 0c0 4.607-2.649 8.216-7.755 8.216s-7.755-3.724-7.755-8.216c0-4.76 2.649-8.523 7.755-8.523 5.067 0 7.755 3.84 7.755 8.523ZM192.766 28l8.254-25.914v-.999h-5.451c-1.574 5.337-2.956 10.789-4.53 16.125l-4.723-16.125h-5.106c-1.382 5.222-2.495 10.597-3.839 15.818l-5.029-15.818h-6.104v.999L174.799 28h4.338c1.651-5.759 2.995-11.863 4.646-17.583L188.85 28h3.916Zm12.14 0h19.311v-5.567h-13.283v-5.106h10.865v-5.375h-10.904c0-1.804.039-3.57.039-5.336h12.861V1.087h-18.85L204.906 28Zm40.737 0h5.721v-1.344l-7.141-9.29c3.455-.999 6.565-4.147 6.565-8.14 0-4.914-2.803-8.139-8.139-8.139h-12.746L229.941 28h5.913V17.865h1.919L245.643 28Zm-.652-18.697c0 1.42-.998 2.841-3.571 2.841 0 0-3.57-.038-5.566-.038v-5.49h5.873c2.573 0 3.264 1.305 3.264 2.687Z"/>
</svg>
