<svg xmlns="http://www.w3.org/2000/svg" viewBox="0 0 721.7 129.8">
  <path fill="#004880" d="M0 0h721.7v129.8H0z"/>
  <path fill="#00aeef" d="M0 0h135.7v129.8H0z"/>
  <path fill="#fff" d="M82.7 109.1c-4.2 0-6.1-2.9-6.1-6.1V66.1c0-2.9 2-5.8 6.1-5.8 3.9 0 6.1 2.9 6.1 5.9V103c-.1 3.1-1.8 6.1-6.1 6.1m-.2 5.8c7 0 12.6-3.9 12.6-12V66.2c0-7.7-5.7-11.5-12.5-11.5-6.7 0-12.8 3.9-12.8 11.7v36.3c.1 8 5.4 12.2 12.7 12.2M50 109.1c-4.2 0-6.1-2.9-6.1-6.1V66.1c0-2.9 2-5.8 6.1-5.8 3.9 0 6.1 2.9 6.1 5.9V103c-.1 3.1-1.7 6.1-6.1 6.1m-.1 5.8c7 0 12.6-3.9 12.6-12V66.2c0-7.7-5.7-11.5-12.5-11.5-6.7 0-12.8 3.9-12.8 11.7v36.3c.1 8 5.4 12.2 12.7 12.2m-27.9-.8h6.5V55.6h-3.9l-8 3.4.8 4.8 4.6-1.4v51.7z"/>
  <path fill="#fff" d="M139.1 91.1c-3.1 4.6-6.7 10.1-8.6 14.7-.9 1.9-1.3 3.4-1.2 4.1.5 2.3 2.4 4.7 4.7 4.2-1.7-.8 3-7.9 7-12.3 5.3-6 9-9.3 16.2-13.6-2 2.4-4.6 7.1-4.6 9.3 0 1 2.4 3.8 3.8 3.8 5.4 0 14.8-9 16.2-10.9-.1-.2-.5-.1-.6 0-4.9 4.4-10.3 8-14 8.4 2.6-6.3 9.1-12.1 10.8-14 .5-.6-2.7-4.1-3.5-4-1.6.2-4 1.5-7.1 3.8-6.7 5-14.6 11.7-18.7 17.3 1.6-3 4.4-6.8 6.5-9.7 2.4-3.2 5.1-6.4 6.3-6.3.6.1.9.5.9.2 0-2-3-5.2-4.9-5.2-.3 0-.6.1-1.1.4-2 1.6-5.4 5.7-8.1 9.8m-25.5 14.7c-.3 1.2-.6 2.2-.6 3 0 1.4 1.5 3.1 2.6 3.8.5.3.9.5 1.3.5 4.7 0 17.5-13.4 24.3-21.1.2-.2-.2-.9-.5-.5-4.9 4.7-16.1 15.7-21 17.1 0-.6.3-1.6.8-2.7 2.4-5.2 9.4-13.9 9.8-13.1.3-1-2.4-5.4-3.9-4.6-2 1.1-7.1 6.2-8.5 7.5-4.1 3.5-15.1 11.7-17.7 12.6-.2.1-.4.1-.5 0-.8-.4 5.1-10.5 12.6-17.1 5.1-4.4 10.8-7.8 15.4-8 2.4-.2 3.8 1 3.8 3.5 0 1.2-.5 2.2-.9 2.9-.1.1.1.2.2.1.8-1 1.5-2.4 1.5-3.8 0-3.8-3.9-5.1-6.9-5.1C111 80.7 93 98.6 93 107.4c0 1.6 2 4.7 3.5 5.4.2.1.5.2.7.2 3.3 0 18.7-13.5 20.9-15.9-1.4 2-3.6 5.7-4.5 8.7m12.6-32.6c-.7 0-.9-.4-.9-.8 0-3.1 5.8-9.7 8.6-9.7.9 0 1.7.7 1.7 2.2 0 1.9-.9 3.7-.8 3.7 0 0 1.6-2.1 1.6-4.1 0-2.7-1.7-3.6-3.8-3.6-5.2 0-12.2 6.7-12.2 11.9 0 3.1 1.7 4.6 4.5 4.6 4.6 0 10-6.9 10-8.4 0-.2-.1-.3-.2-.3 0-.1-4.3 4.5-8.5 4.5"/>
  <path fill="none" stroke="#fff" stroke-width="1.576" d="M176.5 88.3s13.1-10 18.1-29"/>
  <path fill="#fff" d="M225.4 30.4s-11.8-1.2-19.5 3.6c-2.4 1.5-4 2.9-5 4-.6-3.4-1.9-7-4.2-10.8-3.8-6.1-13.9-10-20.4-13.6-6.4-3.5-11.9-6.5-11.9-6.5s.9 8.1 14.3 18.6c3.7 2.9 7.8 4.9 10.6 7.5 3.9 3.6 6.4 7.8 7.2 11.9.9 4.1.1 7.9.1 7.9s1.3-.2 2.3-1.5c.3-.4.5-.8.8-1.3 1.4-2.3 4.9-8.8 12.6-14.6 5.5-4.1 13.1-5.2 13.1-5.2"/>
  <path fill="#fff" d="M371.1 73.6h-7.5v39.2h7.5V73.6zm-125.1 0h-7.5v39.2h7.5V73.6zm-13.5-10.9v-7.2s-.6-.1-1.6-.1c-9.4 0-14.6 5.7-14.6 13.9v43.4h8V80.6h8.1v-7h-8.1v-2.9c0-8.6 8.2-8 8.2-8m13.9-3.5c0-2.3-1.8-4.1-4.1-4.1s-4.1 1.8-4.1 4.1 1.8 4.1 4.1 4.1c2.2 0 4.1-1.8 4.1-4.1M259.9 83c0-2.2 1.6-3.8 4.1-3.8 2.7 0 4.8 1.8 5.9 5.3l6.2-2.7c-2.4-5.9-6.1-9-12.2-9-5.4 0-11.4 3.5-11.4 10.5 0 12.8 16.4 12.6 16.4 19.7 0 2.6-1.8 4.2-5 4.2s-5.4-2.1-7.1-6.1l-6.2 2.7c2.5 5.8 6.6 9.6 13.4 9.6 7.6 0 12.2-4.4 12.2-10.6.1-12.6-16.3-12.2-16.3-19.8m47.3 29.8-9.1-24.6 8-14.6h-7.4l-5.5 10.8c-1.2 2.4-2.8 5.1-3.9 7.9V55.6h-7.5v57.1h7.5v-10.9l3.8-6.4 6.3 17.3h7.8v.1zm8.4-22.7c.3-8 2.4-10.6 5.8-10.6 3.6 0 5.2 3.7 5.3 10.6h-11.1zm-.1 5.9H334v-2.7c0-11.6-3.5-20.3-12.5-20.3-7.8 0-13.4 6.1-13.4 20.2 0 13.8 5.4 20.2 13.5 20.2 6.2 0 10.5-3.7 12.5-10.6l-6.1-2c-1.3 4-2.7 6.1-6.2 6.1-4.2 0-6.2-4-6.3-10.9m42.4-15.6.2-7.4h-.9c-4.5 0-7.6 3-9.4 6.3h-.1v-5.7H340v39.2h7.7V85.7c1.6-2.8 5.3-5.3 8.8-5.3h1.4zm13.6-21.2c0-2.3-1.8-4.1-4.1-4.1s-4.1 1.8-4.1 4.1 1.8 4.1 4.1 4.1c2.2 0 4.1-1.8 4.1-4.1m28.1 33.9c0 10.1-1.9 13.5-5.3 13.5-2.2 0-4-1.9-5.2-3.7V83.5c1.1-1.5 2.9-3.6 5.2-3.6 3.5 0 5.3 3.4 5.3 13.2m7.9 0c0-14.6-4.2-20.1-10.5-20.1-4.1 0-6.2 2.4-7.9 4.9V56h-8v56.7h8V108c2 3.1 3.8 5.1 7.5 5.1 6.2.1 10.9-5.4 10.9-20m6.6 19.7h7.8V56h-7.8v56.8zm31.4-9.6c-1.5 1.7-4.1 3.5-6.6 3.5-2.2 0-3.6-1.5-3.6-4.8 0-4 3.1-7.6 10.3-9.6l-.1 10.9zm.7 9.6h7.6c-.6-2-.8-4.9-.8-9.6V84.3c0-7.5-2.7-11.3-10.1-11.3-5.1 0-10.4 2.4-14.3 6.2l4.2 5c2.2-2 5.7-4.5 8.8-4.5 2.8 0 3.8 1.7 3.8 5v1.9c-10.8 2.7-17.8 8.6-17.8 16.5 0 6.7 3.1 10.3 7.9 10.3 4.2 0 7.4-1.8 9.8-5.1.2 2.2.5 3.1.9 4.5m32.2-9.8c-1.1 1.5-2.9 3.6-5.2 3.6-3.6 0-5.4-3.5-5.4-13.5 0-9.9 1.9-13.2 5.3-13.2 2.2 0 3.7 1.6 5.2 3.6V103h.1zm.6 9.8h7.8c-.7-2-.9-4.9-.9-9.6V56h-7.5v21.7c-1.9-2.9-3.8-4.7-7.5-4.7-6.5 0-11 5.6-11 20.2 0 14.4 4.2 20 10.6 20 3.9 0 6.1-2.4 7.8-4.9.1.5.4 3.2.7 4.5m21.2-22.7c.3-8 2.5-10.6 5.8-10.6 3.6 0 5.2 3.7 5.3 10.6h-11.1zm-.1 5.9h18.5v-2.7c0-11.6-3.5-20.3-12.5-20.3-7.8 0-13.4 6.1-13.4 20.2 0 13.8 5.4 20.2 13.5 20.2 6.2 0 10.5-3.7 12.5-10.6l-6.1-2c-1.3 4-2.7 6.1-6.2 6.1-4.2 0-6.2-4-6.3-10.9m32.5 5.4V80.5h5.7v-6.9h-5.7V59.5h-7.5v43.1c0 7.6 6.6 10.5 9.6 10.5 2.4 0 4.2-.1 4.2-.1v-7h-2.2c-.8 0-4.1-.5-4.1-4.6"/>
</svg>
