<?xml version="1.0" encoding="utf-8"?>
<!-- Generator: Adobe Illustrator 25.4.8, SVG Export Plug-In . SVG Version: 6.00 Build 0)  -->
<svg version="1.1" id="Layer_1" xmlns="http://www.w3.org/2000/svg" xmlns:xlink="http://www.w3.org/1999/xlink" x="0px" y="0px"
	 viewBox="0 0 721.7 129.8" style="enable-background:new 0 0 721.7 129.8;" xml:space="preserve">
<style type="text/css">
	.st0{fill:#004880;}
	.st1{fill:#00AEEF;}
	.st2{clip-path:url(#SVGID_00000072260853323791727490000004013872010744942011_);fill:#FFFFFF;}
	.st3{clip-path:url(#SVGID_00000072260853323791727490000004013872010744942011_);fill:none;stroke:#FFFFFF;stroke-width:1.576;}
</style>
<rect class="st0" width="721.7" height="129.8"/>
<rect class="st1" width="135.7" height="129.8"/>
<g>
	<defs>
		<rect id="SVGID_1_" width="721.7" height="129.8"/>
	</defs>
	<clipPath id="SVGID_00000020376828366702440460000001279055221808607899_">
		<use xlink:href="#SVGID_1_"  style="overflow:visible;"/>
	</clipPath>
	<path style="clip-path:url(#SVGID_00000020376828366702440460000001279055221808607899_);fill:#FFFFFF;" d="M82.7,109.1
		c-4.2,0-6.1-2.9-6.1-6.1V66.1c0-2.9,2-5.8,6.1-5.8c3.9,0,6.1,2.9,6.1,5.9V103C88.7,106.1,87,109.1,82.7,109.1 M82.5,114.9
		c7,0,12.6-3.9,12.6-12V66.2c0-7.7-5.7-11.5-12.5-11.5c-6.7,0-12.8,3.9-12.8,11.7v36.3C69.9,110.7,75.2,114.9,82.5,114.9 M50,109.1
		c-4.2,0-6.1-2.9-6.1-6.1V66.1c0-2.9,2-5.8,6.1-5.8c3.9,0,6.1,2.9,6.1,5.9V103C56,106.1,54.4,109.1,50,109.1 M49.9,114.9
		c7,0,12.6-3.9,12.6-12V66.2c0-7.7-5.7-11.5-12.5-11.5c-6.7,0-12.8,3.9-12.8,11.7v36.3C37.3,110.7,42.6,114.9,49.9,114.9 M22,114.1
		h6.5V55.6h-3.9l-8,3.4l0.8,4.8l4.6-1.4V114.1z"/>
	<path style="clip-path:url(#SVGID_00000020376828366702440460000001279055221808607899_);fill:#FFFFFF;" d="M225.4,30.4
		c0,0-11.8-1.2-19.5,3.6c-2.4,1.5-4,2.9-5,4c-0.6-3.4-1.9-7-4.2-10.8c-3.8-6.1-13.9-10-20.4-13.6c-6.4-3.5-11.9-6.5-11.9-6.5
		s0.9,8.1,14.3,18.6c3.7,2.9,7.8,4.9,10.6,7.5c3.9,3.6,6.4,7.8,7.2,11.9c0.9,4.1,0.1,7.9,0.1,7.9s1.3-0.2,2.3-1.5
		c0.3-0.4,0.5-0.8,0.8-1.3c1.4-2.3,4.9-8.8,12.6-14.6C217.8,31.5,225.4,30.4,225.4,30.4"/>
	<path style="clip-path:url(#SVGID_00000020376828366702440460000001279055221808607899_);fill:#FFFFFF;" d="M371.1,73.6h-7.5v39.2
		h7.5V73.6z M246,73.6h-7.5v39.2h7.5V73.6z M232.5,62.7v-7.2c0,0-0.6-0.1-1.6-0.1c-9.4,0-14.6,5.7-14.6,13.9v43.4h8V80.6h8.1v-7
		h-8.1v-2.9C224.3,62.1,232.5,62.7,232.5,62.7 M246.4,59.2c0-2.3-1.8-4.1-4.1-4.1c-2.3,0-4.1,1.8-4.1,4.1c0,2.3,1.8,4.1,4.1,4.1
		C244.5,63.3,246.4,61.5,246.4,59.2 M259.9,83c0-2.2,1.6-3.8,4.1-3.8c2.7,0,4.8,1.8,5.9,5.3l6.2-2.7c-2.4-5.9-6.1-9-12.2-9
		c-5.4,0-11.4,3.5-11.4,10.5c0,12.8,16.4,12.6,16.4,19.7c0,2.6-1.8,4.2-5,4.2c-3.2,0-5.4-2.1-7.1-6.1l-6.2,2.7
		c2.5,5.8,6.6,9.6,13.4,9.6c7.6,0,12.2-4.4,12.2-10.6C276.3,90.2,259.9,90.6,259.9,83 M307.2,112.8l-9.1-24.6l8-14.6h-7.4l-5.5,10.8
		c-1.2,2.4-2.8,5.1-3.9,7.9V55.6h-7.5v57.1h7.5v-10.9l3.8-6.4l6.3,17.3H307.2z M315.6,90.1c0.3-8,2.4-10.6,5.8-10.6
		c3.6,0,5.2,3.7,5.3,10.6H315.6z M315.5,96H334v-2.7c0-11.6-3.5-20.3-12.5-20.3c-7.8,0-13.4,6.1-13.4,20.2
		c0,13.8,5.4,20.2,13.5,20.2c6.2,0,10.5-3.7,12.5-10.6l-6.1-2c-1.3,4-2.7,6.1-6.2,6.1C317.6,106.9,315.6,102.9,315.5,96 M357.9,80.4
		l0.2-7.4h-0.9c-4.5,0-7.6,3-9.4,6.3h-0.1v-5.7H340v39.2h7.7V85.7c1.6-2.8,5.3-5.3,8.8-5.3H357.9z M371.5,59.2
		c0-2.3-1.8-4.1-4.1-4.1c-2.3,0-4.1,1.8-4.1,4.1c0,2.3,1.8,4.1,4.1,4.1C369.6,63.3,371.5,61.5,371.5,59.2 M399.6,93.1
		c0,10.1-1.9,13.5-5.3,13.5c-2.2,0-4-1.9-5.2-3.7V83.5c1.1-1.5,2.9-3.6,5.2-3.6C397.8,79.9,399.6,83.3,399.6,93.1 M407.5,93.1
		c0-14.6-4.2-20.1-10.5-20.1c-4.1,0-6.2,2.4-7.9,4.9V56h-8v56.7h8v-4.7c2,3.1,3.8,5.1,7.5,5.1C402.8,113.2,407.5,107.7,407.5,93.1
		 M414.1,112.8h7.8V56h-7.8V112.8z M445.5,103.2c-1.5,1.7-4.1,3.5-6.6,3.5c-2.2,0-3.6-1.5-3.6-4.8c0-4,3.1-7.6,10.3-9.6V103.2z
		 M446.2,112.8h7.6c-0.6-2-0.8-4.9-0.8-9.6V84.3c0-7.5-2.7-11.3-10.1-11.3c-5.1,0-10.4,2.4-14.3,6.2l4.2,5c2.2-2,5.7-4.5,8.8-4.5
		c2.8,0,3.8,1.7,3.8,5v1.9c-10.8,2.7-17.8,8.6-17.8,16.5c0,6.7,3.1,10.3,7.9,10.3c4.2,0,7.4-1.8,9.8-5.1
		C445.5,110.5,445.8,111.4,446.2,112.8 M478.4,103c-1.1,1.5-2.9,3.6-5.2,3.6c-3.6,0-5.4-3.5-5.4-13.5c0-9.9,1.9-13.2,5.3-13.2
		c2.2,0,3.7,1.6,5.2,3.6V103z M479,112.8h7.8c-0.7-2-0.9-4.9-0.9-9.6V56h-7.5v21.7c-1.9-2.9-3.8-4.7-7.5-4.7c-6.5,0-11,5.6-11,20.2
		c0,14.4,4.2,20,10.6,20c3.9,0,6.1-2.4,7.8-4.9C478.4,108.8,478.7,111.5,479,112.8 M500.2,90.1c0.3-8,2.5-10.6,5.8-10.6
		c3.6,0,5.2,3.7,5.3,10.6H500.2z M500.1,96h18.5v-2.7c0-11.6-3.5-20.3-12.5-20.3c-7.8,0-13.4,6.1-13.4,20.2
		c0,13.8,5.4,20.2,13.5,20.2c6.2,0,10.5-3.7,12.5-10.6l-6.1-2c-1.3,4-2.7,6.1-6.2,6.1C502.2,106.9,500.2,102.9,500.1,96
		 M532.6,101.4V80.5h5.7v-6.9h-5.7V59.5h-7.5v43.1c0,7.6,6.6,10.5,9.6,10.5c2.4,0,4.2-0.1,4.2-0.1v-7c0,0-1.2,0-2.2,0
		C535.9,106,532.6,105.5,532.6,101.4"/>

		<path style="clip-path:url(#SVGID_00000020376828366702440460000001279055221808607899_);fill:none;stroke:#FFFFFF;stroke-width:1.576;" d="
		M176.5,88.3c0,0,13.1-10,18.1-29"/>
	<path style="clip-path:url(#SVGID_00000020376828366702440460000001279055221808607899_);fill:#FFFFFF;" d="M139.1,91.1
		c-3.1,4.6-6.7,10.1-8.6,14.7c-0.9,1.9-1.3,3.4-1.2,4.1c0.5,2.3,2.4,4.7,4.7,4.2c-1.7-0.8,3-7.9,7-12.3c5.3-6,9-9.3,16.2-13.6
		c-2,2.4-4.6,7.1-4.6,9.3c0,1,2.4,3.8,3.8,3.8c5.4,0,14.8-9,16.2-10.9c-0.1-0.2-0.5-0.1-0.6,0c-4.9,4.4-10.3,8-14,8.4
		c2.6-6.3,9.1-12.1,10.8-14c0.5-0.6-2.7-4.1-3.5-4c-1.6,0.2-4,1.5-7.1,3.8c-6.7,5-14.6,11.7-18.7,17.3c1.6-3,4.4-6.8,6.5-9.7
		c2.4-3.2,5.1-6.4,6.3-6.3c0.6,0.1,0.9,0.5,0.9,0.2c0-2-3-5.2-4.9-5.2c-0.3,0-0.6,0.1-1.1,0.4C145.2,82.9,141.8,87,139.1,91.1
		 M113.6,105.8c-0.3,1.2-0.6,2.2-0.6,3c0,1.4,1.5,3.1,2.6,3.8c0.5,0.3,0.9,0.5,1.3,0.5c4.7,0,17.5-13.4,24.3-21.1
		c0.2-0.2-0.2-0.9-0.5-0.5c-4.9,4.7-16.1,15.7-21,17.1c0-0.6,0.3-1.6,0.8-2.7c2.4-5.2,9.4-13.9,9.8-13.1c0.3-1-2.4-5.4-3.9-4.6
		c-2,1.1-7.1,6.2-8.5,7.5c-4.1,3.5-15.1,11.7-17.7,12.6c-0.2,0.1-0.4,0.1-0.5,0c-0.8-0.4,5.1-10.5,12.6-17.1
		c5.1-4.4,10.8-7.8,15.4-8c2.4-0.2,3.8,1,3.8,3.5c0,1.2-0.5,2.2-0.9,2.9c-0.1,0.1,0.1,0.2,0.2,0.1c0.8-1,1.5-2.4,1.5-3.8
		c0-3.8-3.9-5.1-6.9-5.1C111,80.7,93,98.6,93,107.4c0,1.6,2,4.7,3.5,5.4c0.2,0.1,0.5,0.2,0.7,0.2c3.3,0,18.7-13.5,20.9-15.9
		C116.7,99.1,114.5,102.8,113.6,105.8 M126.2,73.2c-0.7,0-0.9-0.4-0.9-0.8c0-3.1,5.8-9.7,8.6-9.7c0.9,0,1.7,0.7,1.7,2.2
		c0,1.9-0.9,3.7-0.8,3.7c0,0,1.6-2.1,1.6-4.1c0-2.7-1.7-3.6-3.8-3.6c-5.2,0-12.2,6.7-12.2,11.9c0,3.1,1.7,4.6,4.5,4.6
		c4.6,0,10-6.9,10-8.4c0-0.2-0.1-0.3-0.2-0.3C134.7,68.6,130.4,73.2,126.2,73.2"/>
</g>
</svg>
