<svg width="19" height="19" viewBox="0 0 19 19" fill="none" xmlns="http://www.w3.org/2000/svg">
<path d="M16 7V13H13.75" stroke="#747E8E" stroke-width="1.5" stroke-miterlimit="10"/>
<path d="M4 10.75V7" stroke="#747E8E" stroke-width="1.5" stroke-miterlimit="10"/>
<path d="M5.5 2.5C5.5 1.675 6.175 1 7 1C9.25 1 10 4 10 4C10 4 7.825 4 7 4C6.175 4 5.5 3.325 5.5 2.5Z" stroke="#747E8E" stroke-width="1.5" stroke-miterlimit="10" stroke-linecap="square"/>
<path d="M14.5 2.5C14.5 1.675 13.825 1 13 1C10.75 1 10 4 10 4C10 4 12.175 4 13 4C13.825 4 14.5 3.325 14.5 2.5Z" stroke="#747E8E" stroke-width="1.5" stroke-miterlimit="10" stroke-linecap="square"/>
<path d="M17.5 4H2.5V7H17.5V4Z" stroke="#747E8E" stroke-width="1.5" stroke-miterlimit="10" stroke-linecap="square"/>
<path d="M10.825 13H14.5C16.3 13 16.75 14.5 16.75 14.5L8.8 17.35C8.2 17.5 7.525 17.5 6.925 17.275L1 14.8047V10.75H4C5.2 10.75 6.325 11.275 7 12.25H9.25C10.375 12.25 11.5 13.375 11.5 14.5H6.25" stroke="#747E8E" stroke-width="1.5" stroke-miterlimit="10"/>
</svg>
