<svg width="18" height="17" viewBox="0 0 18 17" fill="none" xmlns="http://www.w3.org/2000/svg">
<path d="M15.6119 7.99892L8.87451 15L2.13713 7.99892C1.72582 7.565 1.41321 7.04727 1.22073 6.48122C1.02826 5.91517 0.960479 5.31419 1.02204 4.71949C1.08359 4.12479 1.27303 3.55043 1.57736 3.03581C1.88169 2.52118 2.29371 2.07845 2.78518 1.73798C3.27665 1.39751 3.83593 1.16736 4.42468 1.06329C5.01344 0.959227 5.61773 0.983717 6.19613 1.13508C6.77453 1.28645 7.31336 1.56111 7.77566 1.94023C8.23797 2.31935 8.61282 2.79396 8.87451 3.33153C9.13619 2.79396 9.51104 2.31935 9.97335 1.94023C10.4357 1.56111 10.9745 1.28645 11.5529 1.13508C12.1313 0.983717 12.7356 0.959227 13.3243 1.06329C13.9131 1.16736 14.4724 1.39751 14.9638 1.73798C15.4553 2.07845 15.8673 2.52118 16.1717 3.03581C16.476 3.55043 16.6654 4.12479 16.727 4.71949C16.7885 5.31419 16.7207 5.91517 16.5283 6.48122C16.3358 7.04727 16.0232 7.565 15.6119 7.99892Z" stroke="#747E8E" stroke-width="1.5" stroke-miterlimit="10" stroke-linecap="square"/>
</svg>
