<svg width="2304" height="540" viewBox="0 0 2304 540" fill="none" xmlns="http://www.w3.org/2000/svg">
<path d="M247.741 102.445C247.741 101.35 248.069 100.474 248.726 99.8177C249.601 98.9422 250.586 98.5043 251.68 98.5043H290.091C291.186 98.5043 292.061 98.9422 292.717 99.8177C293.592 100.474 294.031 101.35 294.031 102.445V324.408C294.031 325.503 293.592 326.488 292.717 327.363C292.061 328.019 291.186 328.348 290.091 328.348H251.68C250.586 328.348 249.601 328.019 248.726 327.363C248.069 326.488 247.741 325.503 247.741 324.408V234.44C247.741 233.346 247.194 232.799 246.099 232.799H193.572C192.477 232.799 191.93 233.346 191.93 234.44V324.408C191.93 325.503 191.493 326.488 190.617 327.363C189.961 328.019 189.085 328.348 187.991 328.348H149.58C148.486 328.348 147.501 328.019 146.626 327.363C145.969 326.488 145.641 325.503 145.641 324.408V102.445C145.641 101.35 145.969 100.474 146.626 99.8177C147.501 98.9422 148.486 98.5043 149.58 98.5043H187.991C189.085 98.5043 189.961 98.9422 190.617 99.8177C191.493 100.474 191.93 101.35 191.93 102.445V191.098C191.93 192.193 192.477 192.74 193.572 192.74H246.099C247.194 192.74 247.741 192.193 247.741 191.098V102.445ZM321.184 393.689C320.528 393.689 319.981 393.25 319.543 392.376C319.104 391.719 318.886 390.844 318.886 389.749V359.541C318.886 356.914 320.089 355.601 322.497 355.601C334.973 355.383 343.837 353.52 349.089 350.019C354.56 346.735 358.064 339.84 359.595 329.333L359.267 327.363L311.992 163.846L311.664 162.532C311.664 160.343 312.867 159.249 315.275 159.249H356.64C359.049 159.249 360.469 160.453 360.908 162.861L382.247 264.977C382.465 265.851 382.794 266.29 383.232 266.29C383.671 266.29 383.999 265.851 384.217 264.977L405.556 162.861C405.995 160.453 407.416 159.249 409.824 159.249L450.533 159.577C451.846 159.577 452.721 160.015 453.159 160.89C453.816 161.547 454.034 162.532 453.816 163.846L403.587 334.586C398.772 350.565 393.627 362.496 388.157 370.376C382.904 378.475 375.353 384.385 365.504 388.107C355.655 391.829 341.539 393.689 323.154 393.689H321.184ZM552.133 102.445C552.133 101.35 552.461 100.474 553.118 99.8177C553.992 98.9422 554.977 98.5043 556.073 98.5043H594.483C595.578 98.5043 596.453 98.9422 597.11 99.8177C597.984 100.474 598.423 101.35 598.423 102.445V324.408C598.423 325.503 597.984 326.488 597.11 327.363C596.453 328.019 595.578 328.348 594.483 328.348H556.073C554.977 328.348 553.992 328.019 553.118 327.363C552.461 326.488 552.133 325.503 552.133 324.408V317.184C552.133 316.527 551.915 316.089 551.476 315.871C551.038 315.653 550.602 315.871 550.163 316.527C542.066 326.16 530.465 330.975 515.364 330.975C488.662 330.975 471.482 313.572 463.821 278.767C461.633 267.822 460.538 255.673 460.538 242.321C460.538 230.5 461.523 219.008 463.493 207.844C470.277 173.915 487.787 156.95 516.02 156.95C523.681 156.95 530.247 158.045 535.718 160.234C541.189 162.204 546.006 165.706 550.163 170.741C550.602 171.398 551.038 171.616 551.476 171.398C551.915 171.179 552.133 170.741 552.133 170.084V102.445ZM549.507 272.2C551.038 265.851 551.805 256.33 551.805 243.634C551.805 232.032 550.93 222.401 549.178 214.739C546.334 202.7 539.876 196.68 529.809 196.68C524.774 196.68 520.617 198.213 517.334 201.277C514.051 204.342 511.642 208.72 510.111 214.411C508.141 220.759 507.156 230.5 507.156 243.634C507.156 256.111 507.923 265.523 509.454 271.872C512.299 284.788 519.085 291.245 529.809 291.245C539.658 291.245 546.224 284.896 549.507 272.2ZM704.752 157.279C710.662 157.279 716.025 158.592 720.839 161.219C722.591 162.313 723.247 164.064 722.809 166.472L716.243 204.232C716.025 206.859 714.491 207.625 711.646 206.531C708.145 205.655 704.97 205.217 702.126 205.217C699.499 205.217 696.655 205.546 693.59 206.202C687.242 207.078 681.882 210.143 677.504 215.396C673.126 220.65 670.938 226.998 670.938 234.44V324.408C670.938 325.503 670.499 326.488 669.625 327.363C668.968 328.019 668.093 328.348 666.998 328.348H628.588C627.492 328.348 626.507 328.019 625.633 327.363C624.976 326.488 624.648 325.503 624.648 324.408V163.517C624.648 162.423 624.976 161.547 625.633 160.89C626.507 160.015 627.492 159.577 628.588 159.577H666.998C668.093 159.577 668.968 160.015 669.625 160.89C670.499 161.547 670.938 162.423 670.938 163.517V176.651C670.938 177.527 671.048 178.074 671.266 178.293C671.705 178.293 672.141 177.965 672.579 177.308C680.24 163.955 690.964 157.279 704.752 157.279ZM802.174 330.975C783.133 330.975 767.485 326.267 755.228 316.856C743.191 307.223 735.969 294.089 733.56 277.454C731.808 267.385 730.934 256.111 730.934 243.634C730.934 230.938 731.808 219.665 733.56 209.814C735.969 193.616 743.191 180.81 755.228 171.398C767.485 161.766 783.133 156.95 802.174 156.95C820.997 156.95 836.317 161.766 848.136 171.398C860.172 180.81 867.505 193.616 870.131 209.814C871.883 219.665 872.758 230.938 872.758 243.634C872.758 255.892 871.883 267.057 870.131 277.126C867.723 293.982 860.501 307.223 848.464 316.856C836.645 326.267 821.215 330.975 802.174 330.975ZM802.174 291.245C807.865 291.245 812.68 289.385 816.619 285.663C820.777 281.94 823.513 276.908 824.827 270.559C825.922 261.365 826.468 252.39 826.468 243.634C826.468 234.659 825.922 225.794 824.827 217.038C823.731 210.69 821.105 205.765 816.947 202.262C813.008 198.541 807.973 196.68 801.846 196.68C795.937 196.68 790.902 198.541 786.744 202.262C782.805 205.765 780.289 210.69 779.193 217.038C778.098 223.605 777.552 232.47 777.552 243.634C777.552 254.579 777.991 263.553 778.865 270.559C780.178 276.908 782.915 281.94 787.073 285.663C791.23 289.385 796.265 291.245 802.174 291.245ZM985.012 163.517C985.012 162.423 985.34 161.547 985.997 160.89C986.872 160.015 987.857 159.577 988.952 159.577H1027.36C1028.46 159.577 1029.33 160.015 1029.99 160.89C1030.86 161.547 1031.3 162.423 1031.3 163.517V316.856C1031.3 343.123 1023.97 362.606 1009.31 375.302C994.861 388.217 974.068 394.674 946.93 394.674C941.02 394.674 934.783 394.346 928.217 393.689C925.59 393.471 924.277 392.047 924.277 389.421L925.262 356.257C925.262 353.849 926.686 352.646 929.53 352.646C932.813 353.084 937.409 353.302 943.318 353.302C957.982 353.302 968.597 350.129 975.163 343.78C981.729 337.652 985.012 327.801 985.012 314.229C985.012 313.572 984.794 313.134 984.355 312.915C983.917 312.697 983.481 312.915 983.042 313.572C974.945 322.984 963.783 327.691 949.556 327.691C935.329 327.691 923.292 323.533 913.444 315.214C903.595 306.895 897.357 294.528 894.731 278.111C893.199 272.418 892.433 260.818 892.433 243.306C892.433 225.794 893.417 213.536 895.387 206.531C897.796 190.989 903.595 178.84 912.787 170.084C921.979 161.328 933.908 156.95 948.571 156.95C963.016 156.95 974.507 161.875 983.042 171.726C983.481 172.383 983.917 172.601 984.355 172.383C984.794 172.164 985.012 171.726 985.012 171.069V163.517ZM983.699 270.23C984.574 263.225 985.012 254.251 985.012 243.306C985.012 232.142 984.574 223.058 983.699 216.053C982.604 210.143 980.198 205.436 976.476 201.934C972.755 198.432 968.051 196.68 962.36 196.68C956.889 196.68 952.182 198.541 948.243 202.262C944.521 205.765 942.116 210.361 941.02 216.053C939.707 223.933 939.051 233.017 939.051 243.306C939.051 252.937 939.597 261.804 940.692 269.902C941.787 275.812 944.193 280.519 947.915 284.021C951.854 287.522 956.779 289.274 962.688 289.274C968.379 289.274 973.083 287.522 976.805 284.021C980.526 280.519 982.824 275.922 983.699 270.23ZM1191.85 218.351C1192.51 225.575 1192.84 233.565 1192.84 242.321L1192.51 255.126C1192.51 257.753 1191.2 259.066 1188.57 259.066H1101.57C1100.48 259.066 1099.93 259.613 1099.93 260.708C1100.37 265.744 1100.81 269.463 1101.24 271.872C1102.34 278 1104.97 282.818 1109.12 286.319C1113.5 289.821 1118.86 291.573 1125.21 291.573C1135.93 291.355 1143.38 286.43 1147.53 276.797C1148.63 274.609 1150.27 273.732 1152.46 274.17L1187.26 281.066C1189.88 281.722 1190.76 283.364 1189.88 285.991C1185.07 300.438 1177.08 311.602 1165.92 319.482C1154.97 327.145 1141.41 330.975 1125.21 330.975C1105.73 330.975 1090.19 326.596 1078.59 317.841C1067.21 308.865 1059.77 296.059 1056.27 279.424C1054.3 270.448 1053.31 256.768 1053.31 238.381C1053.31 227.873 1053.97 219.008 1055.28 211.784C1057.69 195.148 1064.91 181.905 1076.95 172.054C1088.99 161.985 1104.2 156.95 1122.58 156.95C1142.5 156.95 1158.7 162.642 1171.17 174.024C1183.65 185.188 1190.54 199.964 1191.85 218.351ZM1122.91 196.68C1117 196.68 1112.08 198.432 1108.14 201.934C1104.42 205.436 1102.01 210.252 1100.92 216.381C1100.26 220.321 1099.93 224.48 1099.93 228.858C1099.93 229.953 1100.48 230.5 1101.57 230.5H1144.25C1145.35 230.5 1145.89 229.953 1145.89 228.858C1145.89 224.48 1145.56 220.321 1144.91 216.381C1144.03 210.471 1141.62 205.765 1137.69 202.262C1133.75 198.541 1128.82 196.68 1122.91 196.68ZM1297.96 156.95C1313.93 156.95 1326.41 162.094 1335.38 172.383C1344.57 182.452 1349.17 196.571 1349.17 214.739V324.408C1349.17 325.503 1348.73 326.488 1347.86 327.363C1347.2 328.019 1346.33 328.348 1345.23 328.348H1306.82C1305.72 328.348 1304.74 328.019 1303.86 327.363C1303.21 326.488 1302.88 325.503 1302.88 324.408V221.306C1302.88 213.645 1301.02 207.625 1297.3 203.247C1293.58 198.869 1288.55 196.68 1282.2 196.68C1275.63 196.68 1270.38 198.979 1266.44 203.576C1262.72 207.954 1260.86 213.973 1260.86 221.635V324.408C1260.86 325.503 1260.42 326.488 1259.54 327.363C1258.89 328.019 1258.01 328.348 1256.92 328.348H1218.51C1217.41 328.348 1216.43 328.019 1215.55 327.363C1214.9 326.488 1214.57 325.503 1214.57 324.408V163.517C1214.57 162.423 1214.9 161.547 1215.55 160.89C1216.43 160.015 1217.41 159.577 1218.51 159.577H1256.92C1258.01 159.577 1258.89 160.015 1259.54 160.89C1260.42 161.547 1260.86 162.423 1260.86 163.517V172.711C1260.86 173.368 1261.08 173.806 1261.51 174.024C1261.95 174.024 1262.5 173.586 1263.16 172.711C1271.04 162.204 1282.64 156.95 1297.96 156.95Z" fill="white"/>
<path d="M1398.44 140.533C1391 140.533 1384.87 138.125 1380.05 133.309C1375.24 128.274 1372.83 122.036 1372.83 114.593C1372.83 106.932 1375.13 100.693 1379.72 95.8776C1384.54 91.0619 1390.78 88.6539 1398.44 88.6539C1406.1 88.6539 1412.34 91.0619 1417.15 95.8776C1421.96 100.693 1424.37 106.932 1424.37 114.593C1424.37 122.036 1421.86 128.274 1416.82 133.309C1412.01 138.125 1405.88 140.533 1398.44 140.533ZM1379.4 328.348C1378.3 328.348 1377.32 328.019 1376.44 327.363C1375.78 326.488 1375.46 325.503 1375.46 324.408V163.517C1375.46 162.423 1375.78 161.547 1376.44 160.89C1377.32 160.015 1378.3 159.577 1379.4 159.577H1417.81C1418.9 159.577 1419.78 160.015 1420.43 160.89C1421.31 161.547 1421.75 162.423 1421.75 163.517V324.408C1421.75 325.503 1421.31 326.488 1420.43 327.363C1419.78 328.019 1418.9 328.348 1417.81 328.348H1379.4ZM1532.48 156.95C1548.46 156.95 1560.93 162.094 1569.91 172.383C1579.1 182.452 1583.7 196.571 1583.7 214.739V324.408C1583.7 325.503 1583.26 326.488 1582.38 327.363C1581.73 328.019 1580.85 328.348 1579.76 328.348H1541.35C1540.25 328.348 1539.27 328.019 1538.39 327.363C1537.73 326.488 1537.41 325.503 1537.41 324.408V221.306C1537.41 213.645 1535.55 207.625 1531.83 203.247C1528.1 198.869 1523.07 196.68 1516.72 196.68C1510.16 196.68 1504.91 198.979 1500.97 203.576C1497.24 207.954 1495.38 213.973 1495.38 221.635V324.408C1495.38 325.503 1494.95 326.488 1494.07 327.363C1493.41 328.019 1492.54 328.348 1491.45 328.348H1453.03C1451.94 328.348 1450.95 328.019 1450.08 327.363C1449.42 326.488 1449.09 325.503 1449.09 324.408V163.517C1449.09 162.423 1449.42 161.547 1450.08 160.89C1450.95 160.015 1451.94 159.577 1453.03 159.577H1491.45C1492.54 159.577 1493.41 160.015 1494.07 160.89C1494.95 161.547 1495.38 162.423 1495.38 163.517V172.711C1495.38 173.368 1495.6 173.806 1496.04 174.024C1496.48 174.024 1497.03 173.586 1497.68 172.711C1505.56 162.204 1517.16 156.95 1532.48 156.95ZM1670.72 330.646C1650.36 330.646 1634.17 326.16 1622.13 317.184C1610.09 308.208 1604.07 296.388 1604.07 281.722V279.096C1604.07 278 1604.4 277.126 1605.06 276.469C1605.93 275.594 1606.92 275.155 1608.01 275.155H1644.13C1645.22 275.155 1646.1 275.594 1646.75 276.469C1647.63 277.126 1648.07 278 1648.07 279.096V279.752C1648.07 284.567 1650.25 288.507 1654.63 291.573C1659.01 294.638 1664.37 296.17 1670.72 296.17C1676.63 296.17 1681.33 294.856 1684.83 292.23C1688.34 289.385 1690.09 285.881 1690.09 281.722C1690.09 277.564 1688.12 274.388 1684.18 272.2C1680.46 270.012 1674.33 267.493 1665.79 264.648C1662.29 263.774 1657.04 262.022 1650.04 259.395C1636.9 255.017 1626.18 249.106 1617.86 241.664C1609.77 234.222 1605.72 223.495 1605.72 209.486C1605.72 193.506 1611.51 180.81 1623.11 171.398C1634.72 161.985 1650.04 157.279 1669.08 157.279C1688.77 157.279 1704.42 162.204 1716.02 172.054C1727.84 181.686 1733.75 194.601 1733.75 210.799C1733.75 213.207 1732.44 214.411 1729.81 214.411H1694.36C1693.26 214.411 1692.28 214.083 1691.4 213.426C1690.74 212.551 1690.42 211.566 1690.42 210.471V209.486C1690.42 204.889 1688.56 201.058 1684.83 197.994C1681.11 194.929 1676.08 193.397 1669.73 193.397C1663.82 193.397 1659.01 194.82 1655.29 197.665C1651.79 200.511 1650.04 204.014 1650.04 208.173C1650.04 212.769 1652.22 216.381 1656.6 219.008C1660.98 221.416 1667.65 223.933 1676.63 226.56C1678.6 227.217 1680.46 227.873 1682.21 228.53C1684.18 228.968 1685.93 229.515 1687.46 230.172C1702.34 235.207 1714.27 241.336 1723.25 248.559C1732.22 255.564 1736.71 266.072 1736.71 280.081C1736.71 295.841 1730.69 308.208 1718.65 317.184C1706.83 326.16 1690.85 330.646 1670.72 330.646ZM1779.72 140.533C1772.28 140.533 1766.15 138.125 1761.34 133.309C1756.52 128.274 1754.12 122.036 1754.12 114.593C1754.12 106.932 1756.41 100.693 1761.01 95.8776C1765.82 91.0619 1772.06 88.6539 1779.72 88.6539C1787.38 88.6539 1793.62 91.0619 1798.44 95.8776C1803.25 100.693 1805.66 106.932 1805.66 114.593C1805.66 122.036 1803.14 128.274 1798.11 133.309C1793.29 138.125 1787.16 140.533 1779.72 140.533ZM1760.68 328.348C1759.59 328.348 1758.6 328.019 1757.73 327.363C1757.07 326.488 1756.74 325.503 1756.74 324.408V163.517C1756.74 162.423 1757.07 161.547 1757.73 160.89C1758.6 160.015 1759.59 159.577 1760.68 159.577H1799.09C1800.19 159.577 1801.06 160.015 1801.72 160.89C1802.59 161.547 1803.03 162.423 1803.03 163.517V324.408C1803.03 325.503 1802.59 326.488 1801.72 327.363C1801.06 328.019 1800.19 328.348 1799.09 328.348H1760.68ZM1919.35 163.517C1919.35 162.423 1919.68 161.547 1920.33 160.89C1921.21 160.015 1922.19 159.577 1923.29 159.577H1961.7C1962.79 159.577 1963.67 160.015 1964.33 160.89C1965.2 161.547 1965.64 162.423 1965.64 163.517V316.856C1965.64 343.123 1958.31 362.606 1943.64 375.302C1929.2 388.217 1908.4 394.674 1881.27 394.674C1875.36 394.674 1869.12 394.346 1862.55 393.689C1859.93 393.471 1858.61 392.047 1858.61 389.421L1859.6 356.257C1859.6 353.849 1861.02 352.646 1863.87 352.646C1867.15 353.084 1871.75 353.302 1877.65 353.302C1892.32 353.302 1902.93 350.129 1909.5 343.78C1916.07 337.652 1919.35 327.801 1919.35 314.229C1919.35 313.572 1919.13 313.134 1918.69 312.915C1918.25 312.697 1917.82 312.915 1917.38 313.572C1909.28 322.984 1898.12 327.691 1883.89 327.691C1869.67 327.691 1857.63 323.533 1847.78 315.214C1837.93 306.895 1831.69 294.528 1829.07 278.111C1827.54 272.418 1826.77 260.818 1826.77 243.306C1826.77 225.794 1827.75 213.536 1829.72 206.531C1832.13 190.989 1837.93 178.84 1847.12 170.084C1856.32 161.328 1868.24 156.95 1882.91 156.95C1897.35 156.95 1908.84 161.875 1917.38 171.726C1917.82 172.383 1918.25 172.601 1918.69 172.383C1919.13 172.164 1919.35 171.726 1919.35 171.069V163.517ZM1918.04 270.23C1918.91 263.225 1919.35 254.251 1919.35 243.306C1919.35 232.142 1918.91 223.058 1918.04 216.053C1916.94 210.143 1914.53 205.436 1910.81 201.934C1907.09 198.432 1902.39 196.68 1896.7 196.68C1891.23 196.68 1886.52 198.541 1882.58 202.262C1878.86 205.765 1876.45 210.361 1875.36 216.053C1874.04 223.933 1873.39 233.017 1873.39 243.306C1873.39 252.937 1873.93 261.804 1875.03 269.902C1876.12 275.812 1878.53 280.519 1882.25 284.021C1886.19 287.522 1891.11 289.274 1897.02 289.274C1902.72 289.274 1907.42 287.522 1911.14 284.021C1914.86 280.519 1917.16 275.922 1918.04 270.23ZM2073.99 156.95C2089.97 156.95 2102.44 162.094 2111.42 172.383C2120.61 182.452 2125.21 196.571 2125.21 214.739V324.408C2125.21 325.503 2124.77 326.488 2123.89 327.363C2123.24 328.019 2122.36 328.348 2121.27 328.348H2082.86C2081.76 328.348 2080.78 328.019 2079.9 327.363C2079.24 326.488 2078.92 325.503 2078.92 324.408V221.306C2078.92 213.645 2077.06 207.625 2073.33 203.247C2069.61 198.869 2064.58 196.68 2058.23 196.68C2051.67 196.68 2046.41 198.979 2042.47 203.576C2038.75 207.954 2036.89 213.973 2036.89 221.635V324.408C2036.89 325.503 2036.46 326.488 2035.58 327.363C2034.92 328.019 2034.05 328.348 2032.95 328.348H1994.54C1993.45 328.348 1992.46 328.019 1991.59 327.363C1990.93 326.488 1990.6 325.503 1990.6 324.408V102.445C1990.6 101.35 1990.93 100.474 1991.59 99.8177C1992.46 98.9422 1993.45 98.5044 1994.54 98.5044H2032.95C2034.05 98.5044 2034.92 98.9422 2035.58 99.8177C2036.46 100.474 2036.89 101.35 2036.89 102.445V172.711C2036.89 173.368 2037.11 173.806 2037.55 174.024C2037.99 174.024 2038.54 173.586 2039.19 172.711C2047.07 162.204 2058.67 156.95 2073.99 156.95ZM2237.51 190.442C2237.51 191.536 2237.07 192.521 2236.19 193.397C2235.54 194.054 2234.66 194.382 2233.57 194.382H2208.29C2207.19 194.382 2206.65 194.929 2206.65 196.024V269.902C2206.65 276.687 2207.96 281.612 2210.59 284.678C2213.43 287.522 2217.7 288.836 2223.39 288.618H2229.96C2231.05 288.618 2231.92 289.056 2232.58 289.931C2233.46 290.588 2233.89 291.463 2233.89 292.558V324.408C2233.89 327.034 2232.58 328.348 2229.96 328.348C2226.23 328.566 2220.76 328.676 2213.54 328.676C2196.25 328.676 2183.34 325.831 2174.8 320.139C2166.48 314.447 2162.33 303.722 2162.33 287.961V196.024C2162.33 194.929 2161.78 194.382 2160.68 194.382H2145.58C2144.49 194.382 2143.5 194.054 2142.63 193.397C2141.97 192.521 2141.64 191.536 2141.64 190.442V163.517C2141.64 162.423 2141.97 161.547 2142.63 160.89C2143.5 160.015 2144.49 159.577 2145.58 159.577H2160.68C2161.78 159.577 2162.33 159.03 2162.33 157.935V120.175C2162.33 119.081 2162.65 118.205 2163.31 117.549C2164.19 116.673 2165.17 116.235 2166.27 116.235H2202.71C2203.8 116.235 2204.68 116.673 2205.33 117.549C2206.21 118.205 2206.65 119.081 2206.65 120.175V157.935C2206.65 159.03 2207.19 159.577 2208.29 159.577H2233.57C2234.66 159.577 2235.54 160.015 2236.19 160.89C2237.07 161.547 2237.51 162.423 2237.51 163.517V190.442Z" fill="#89FDC5"/>
<path d="M52.8797 199.768C82.0843 199.768 105.759 176.093 105.759 146.888C105.759 117.683 82.0843 94.0083 52.8797 94.0083C23.675 94.0083 0 117.683 0 146.888C0 176.093 23.675 199.768 52.8797 199.768Z" fill="#89FDC5"/>
<path d="M52.8797 330.988C82.0843 330.988 105.759 307.751 105.759 279.087C105.759 250.423 82.0843 227.187 52.8797 227.187C23.675 227.187 0 250.423 0 279.087C0 307.751 23.675 330.988 52.8797 330.988Z" fill="#89FDC5"/>
<path d="M1100.56 433.282C1106.86 433.282 1111.93 435.406 1115.78 439.654C1119.72 443.823 1121.68 449.369 1121.68 456.292C1121.68 463.136 1119.72 468.643 1115.78 472.812C1111.93 476.903 1106.86 478.948 1100.56 478.948H1082.98C1082.67 478.948 1082.51 479.105 1082.51 479.42V514.82C1082.51 515.607 1082.11 516 1081.33 516H1075.31C1074.52 516 1074.13 515.607 1074.13 514.82V434.462C1074.13 433.675 1074.52 433.282 1075.31 433.282H1100.56ZM1099.5 471.986C1103.67 471.986 1107.01 470.57 1109.53 467.738C1112.05 464.906 1113.31 461.13 1113.31 456.41C1113.31 451.611 1112.05 447.796 1109.53 444.964C1107.01 442.053 1103.67 440.598 1099.5 440.598H1082.98C1082.67 440.598 1082.51 440.755 1082.51 441.07V471.514C1082.51 471.829 1082.67 471.986 1082.98 471.986H1099.5Z" fill="white"/>
<path d="M1160.13 516.944C1154.39 516.944 1149.67 515.41 1145.97 512.342C1142.27 509.195 1140.03 504.987 1139.24 499.716C1138.77 495.783 1138.54 491.22 1138.54 486.028C1138.54 480.836 1138.77 476.352 1139.24 472.576C1139.95 467.384 1142.15 463.215 1145.85 460.068C1149.63 456.921 1154.39 455.348 1160.13 455.348C1165.87 455.348 1170.59 456.921 1174.29 460.068C1178.07 463.215 1180.31 467.384 1181.02 472.576C1181.49 475.723 1181.72 480.207 1181.72 486.028C1181.72 492.007 1181.49 496.569 1181.02 499.716C1180.31 504.987 1178.07 509.195 1174.29 512.342C1170.59 515.41 1165.87 516.944 1160.13 516.944ZM1160.13 509.628C1163.51 509.628 1166.34 508.605 1168.63 506.56C1170.99 504.436 1172.4 501.643 1172.87 498.182C1173.19 495.271 1173.35 491.259 1173.35 486.146C1173.35 480.954 1173.19 476.942 1172.87 474.11C1172.48 470.649 1171.1 467.895 1168.74 465.85C1166.46 463.726 1163.59 462.664 1160.13 462.664C1156.67 462.664 1153.8 463.726 1151.52 465.85C1149.23 467.895 1147.86 470.649 1147.39 474.11C1147.07 476.942 1146.91 480.954 1146.91 486.146C1146.91 491.338 1147.07 495.35 1147.39 498.182C1147.78 501.643 1149.12 504.436 1151.4 506.56C1153.76 508.605 1156.67 509.628 1160.13 509.628Z" fill="white"/>
<path d="M1212.86 516C1212.15 516 1211.72 515.646 1211.56 514.938L1197.05 457.59L1196.93 457.118C1196.93 456.567 1197.28 456.292 1197.99 456.292H1203.89C1204.6 456.292 1205.03 456.646 1205.19 457.354L1215.81 502.666C1215.89 502.902 1215.97 503.02 1216.05 503.02C1216.12 503.02 1216.2 502.902 1216.28 502.666L1227.02 457.354C1227.18 456.646 1227.61 456.292 1228.32 456.292H1233.75C1234.53 456.292 1234.97 456.646 1235.04 457.354L1246.02 502.548C1246.1 502.784 1246.18 502.902 1246.25 502.902C1246.33 502.902 1246.41 502.784 1246.49 502.548L1257.23 457.354C1257.39 456.646 1257.82 456.292 1258.53 456.292L1264.54 456.41C1264.94 456.41 1265.21 456.528 1265.37 456.764C1265.61 457 1265.65 457.315 1265.49 457.708L1250.74 514.938C1250.66 515.646 1250.23 516 1249.44 516H1243.3C1242.6 516 1242.16 515.646 1242.01 514.938L1231.27 471.278C1231.19 471.042 1231.07 470.924 1230.91 470.924C1230.84 470.924 1230.76 471.042 1230.68 471.278L1220.29 514.938C1220.14 515.646 1219.7 516 1219 516H1212.86Z" fill="white"/>
<path d="M1303.01 509.628C1306 509.628 1308.56 508.881 1310.68 507.386C1312.88 505.813 1314.46 503.728 1315.4 501.132C1315.64 500.424 1316.11 500.149 1316.82 500.306L1322.24 501.368C1322.64 501.447 1322.87 501.643 1322.95 501.958C1323.11 502.194 1323.15 502.469 1323.07 502.784C1321.73 507.189 1319.29 510.651 1315.75 513.168C1312.21 515.685 1307.93 516.944 1302.89 516.944C1297.15 516.944 1292.47 515.449 1288.85 512.46C1285.23 509.392 1282.99 505.262 1282.12 500.07C1281.81 498.103 1281.61 495.783 1281.53 493.108C1281.45 490.433 1281.42 488.231 1281.42 486.5C1281.42 484.691 1281.42 483.432 1281.42 482.724C1281.42 478.712 1281.57 475.447 1281.89 472.93C1282.52 467.659 1284.68 463.411 1288.38 460.186C1292.15 456.961 1296.87 455.348 1302.54 455.348C1308.59 455.348 1313.51 457.079 1317.29 460.54C1321.06 464.001 1323.19 468.564 1323.66 474.228C1323.9 476.824 1324.01 481.583 1324.01 488.506C1324.01 489.293 1323.62 489.686 1322.83 489.686H1290.27C1289.95 489.686 1289.79 489.843 1289.79 490.158C1289.79 492.597 1289.87 495.311 1290.03 498.3C1290.42 501.683 1291.76 504.436 1294.04 506.56C1296.4 508.605 1299.39 509.628 1303.01 509.628ZM1302.66 462.664C1299.12 462.664 1296.2 463.726 1293.92 465.85C1291.72 467.895 1290.42 470.609 1290.03 473.992C1289.87 477.296 1289.79 480.049 1289.79 482.252C1289.79 482.567 1289.95 482.724 1290.27 482.724H1315.16C1315.48 482.724 1315.64 482.567 1315.64 482.252C1315.64 479.971 1315.48 477.257 1315.16 474.11C1314.77 470.727 1313.43 467.974 1311.15 465.85C1308.95 463.726 1306.12 462.664 1302.66 462.664Z" fill="white"/>
<path d="M1367.52 455.702C1369.88 455.702 1371.89 456.174 1373.54 457.118C1374.09 457.354 1374.29 457.826 1374.13 458.534L1372.72 464.67C1372.64 465.457 1372.16 465.693 1371.3 465.378C1370.04 464.827 1368.66 464.552 1367.17 464.552L1365.75 464.67C1362.29 464.749 1359.42 466.243 1357.14 469.154C1354.86 472.065 1353.72 475.605 1353.72 479.774V514.82C1353.72 515.607 1353.32 516 1352.54 516H1346.52C1345.73 516 1345.34 515.607 1345.34 514.82V457.472C1345.34 456.685 1345.73 456.292 1346.52 456.292H1352.54C1353.32 456.292 1353.72 456.685 1353.72 457.472V465.142C1353.72 465.378 1353.76 465.496 1353.84 465.496C1353.99 465.496 1354.11 465.417 1354.19 465.26C1355.53 462.271 1357.3 459.95 1359.5 458.298C1361.78 456.567 1364.46 455.702 1367.52 455.702Z" fill="white"/>
<path d="M1410.85 509.628C1413.84 509.628 1416.4 508.881 1418.52 507.386C1420.73 505.813 1422.3 503.728 1423.24 501.132C1423.48 500.424 1423.95 500.149 1424.66 500.306L1430.09 501.368C1430.48 501.447 1430.72 501.643 1430.8 501.958C1430.95 502.194 1430.99 502.469 1430.91 502.784C1429.58 507.189 1427.14 510.651 1423.6 513.168C1420.06 515.685 1415.77 516.944 1410.74 516.944C1404.99 516.944 1400.31 515.449 1396.69 512.46C1393.08 509.392 1390.83 505.262 1389.97 500.07C1389.65 498.103 1389.46 495.783 1389.38 493.108C1389.3 490.433 1389.26 488.231 1389.26 486.5C1389.26 484.691 1389.26 483.432 1389.26 482.724C1389.26 478.712 1389.42 475.447 1389.73 472.93C1390.36 467.659 1392.53 463.411 1396.22 460.186C1400 456.961 1404.72 455.348 1410.38 455.348C1416.44 455.348 1421.36 457.079 1425.13 460.54C1428.91 464.001 1431.03 468.564 1431.5 474.228C1431.74 476.824 1431.86 481.583 1431.86 488.506C1431.86 489.293 1431.47 489.686 1430.68 489.686H1398.11C1397.8 489.686 1397.64 489.843 1397.64 490.158C1397.64 492.597 1397.72 495.311 1397.87 498.3C1398.27 501.683 1399.61 504.436 1401.89 506.56C1404.25 508.605 1407.24 509.628 1410.85 509.628ZM1410.5 462.664C1406.96 462.664 1404.05 463.726 1401.77 465.85C1399.57 467.895 1398.27 470.609 1397.87 473.992C1397.72 477.296 1397.64 480.049 1397.64 482.252C1397.64 482.567 1397.8 482.724 1398.11 482.724H1423.01C1423.32 482.724 1423.48 482.567 1423.48 482.252C1423.48 479.971 1423.32 477.257 1423.01 474.11C1422.62 470.727 1421.28 467.974 1419 465.85C1416.79 463.726 1413.96 462.664 1410.5 462.664Z" fill="white"/>
<path d="M1485.4 434.58C1485.4 433.793 1485.79 433.4 1486.58 433.4H1492.6C1493.38 433.4 1493.78 433.793 1493.78 434.58V514.82C1493.78 515.607 1493.38 516 1492.6 516H1486.58C1485.79 516 1485.4 515.607 1485.4 514.82V510.1C1485.4 509.864 1485.32 509.746 1485.16 509.746C1485.08 509.746 1484.97 509.825 1484.81 509.982C1481.9 514.623 1477.34 516.944 1471.12 516.944C1466.16 516.944 1462.19 515.646 1459.2 513.05C1456.29 510.375 1454.13 506.167 1452.71 500.424C1451.69 496.097 1451.18 491.535 1451.18 486.736C1451.18 481.229 1451.61 476.549 1452.48 472.694C1453.66 466.794 1455.82 462.467 1458.97 459.714C1462.19 456.882 1466.44 455.466 1471.71 455.466C1475.01 455.466 1477.69 456.056 1479.73 457.236C1481.86 458.337 1483.55 460.029 1484.81 462.31C1484.89 462.546 1485.01 462.664 1485.16 462.664C1485.32 462.585 1485.4 462.428 1485.4 462.192V434.58ZM1483.39 501.014C1484.57 497.474 1485.16 492.518 1485.16 486.146C1485.16 479.695 1484.53 474.621 1483.27 470.924C1482.33 468.249 1481.03 466.204 1479.38 464.788C1477.81 463.372 1475.68 462.664 1473.01 462.664C1467.82 462.664 1464.12 465.339 1461.92 470.688C1460.42 474.621 1459.67 479.774 1459.67 486.146C1459.67 492.518 1460.3 497.435 1461.56 500.896C1462.59 503.807 1463.96 506.009 1465.69 507.504C1467.5 508.999 1469.9 509.746 1472.89 509.746C1475.64 509.746 1477.85 508.999 1479.5 507.504C1481.15 506.009 1482.45 503.846 1483.39 501.014Z" fill="white"/>
<path d="M1589.54 472.694C1590.33 476.706 1590.72 481.387 1590.72 486.736C1590.72 491.535 1590.21 496.097 1589.19 500.424C1587.77 506.167 1585.57 510.375 1582.58 513.05C1579.67 515.646 1575.74 516.944 1570.78 516.944C1564.57 516.944 1560.04 514.702 1557.21 510.218C1557.13 509.982 1557.01 509.903 1556.86 509.982C1556.7 509.982 1556.62 510.1 1556.62 510.336V514.82C1556.62 515.607 1556.23 516 1555.44 516H1549.42C1548.64 516 1548.24 515.607 1548.24 514.82V434.58C1548.24 433.793 1548.64 433.4 1549.42 433.4H1555.44C1556.23 433.4 1556.62 433.793 1556.62 434.58V461.956C1556.62 462.192 1556.7 462.349 1556.86 462.428C1557.01 462.428 1557.13 462.31 1557.21 462.074C1558.39 459.871 1560 458.219 1562.05 457.118C1564.17 456.017 1566.89 455.466 1570.19 455.466C1575.46 455.466 1579.67 456.882 1582.82 459.714C1586.04 462.467 1588.28 466.794 1589.54 472.694ZM1580.46 500.896C1581.64 497.356 1582.23 492.439 1582.23 486.146C1582.23 479.774 1581.48 474.621 1579.98 470.688C1577.78 465.339 1574.08 462.664 1568.89 462.664C1566.22 462.664 1564.09 463.372 1562.52 464.788C1560.95 466.204 1559.69 468.249 1558.74 470.924C1557.41 474.543 1556.74 479.617 1556.74 486.146C1556.74 492.518 1557.33 497.474 1558.51 501.014C1559.45 503.846 1560.75 506.009 1562.4 507.504C1564.13 508.999 1566.37 509.746 1569.13 509.746C1572.04 509.746 1574.4 508.999 1576.21 507.504C1578.02 506.009 1579.43 503.807 1580.46 500.896Z" fill="white"/>
<path d="M1609.43 539.6C1608.88 539.6 1608.6 539.207 1608.6 538.42V533.7C1608.6 532.913 1608.99 532.52 1609.78 532.52H1610.02C1612.77 532.441 1614.89 531.969 1616.39 531.104C1617.96 530.239 1619.26 528.705 1620.28 526.502C1621.38 524.299 1622.49 520.917 1623.59 516.354C1623.67 516.275 1623.67 516.157 1623.59 516C1623.59 515.764 1623.59 515.646 1623.59 515.646L1606 457.59L1605.89 457.236C1605.89 456.607 1606.28 456.292 1607.07 456.292H1613.44C1614.15 456.292 1614.58 456.646 1614.74 457.354L1627.6 504.436C1627.68 504.593 1627.76 504.672 1627.83 504.672C1627.99 504.672 1628.11 504.593 1628.19 504.436L1641.05 457.354C1641.21 456.646 1641.64 456.292 1642.35 456.292H1648.6C1649 456.292 1649.27 456.41 1649.43 456.646C1649.66 456.882 1649.74 457.197 1649.66 457.59L1630.43 521.192C1628.86 526.463 1627.28 530.357 1625.71 532.874C1624.22 535.391 1622.29 537.122 1619.93 538.066C1617.65 539.089 1614.38 539.6 1610.13 539.6H1609.43Z" fill="white"/>
<path d="M1740.32 516C1739.69 516 1739.26 515.685 1739.02 515.056L1724.39 478.594C1724.31 478.358 1724.15 478.24 1723.92 478.24H1708.7C1708.38 478.24 1708.22 478.397 1708.22 478.712V514.82C1708.22 515.607 1707.83 516 1707.04 516H1701.03C1700.24 516 1699.85 515.607 1699.85 514.82V434.58C1699.85 433.793 1700.24 433.4 1701.03 433.4H1726.04C1730.13 433.4 1733.75 434.344 1736.9 436.232C1740.12 438.12 1742.6 440.795 1744.33 444.256C1746.14 447.717 1747.05 451.69 1747.05 456.174C1747.05 461.523 1745.75 466.086 1743.15 469.862C1740.56 473.638 1737.02 476.155 1732.53 477.414C1732.22 477.571 1732.14 477.768 1732.3 478.004L1747.52 514.584L1747.64 515.056C1747.64 515.685 1747.28 516 1746.57 516H1740.32ZM1708.7 440.716C1708.38 440.716 1708.22 440.873 1708.22 441.188V471.042C1708.22 471.357 1708.38 471.514 1708.7 471.514H1724.98C1729.07 471.514 1732.37 470.098 1734.89 467.266C1737.41 464.434 1738.67 460.737 1738.67 456.174C1738.67 451.533 1737.41 447.796 1734.89 444.964C1732.37 442.132 1729.07 440.716 1724.98 440.716H1708.7Z" fill="white"/>
<path d="M1814.7 439.536C1814.7 440.323 1814.3 440.716 1813.52 440.716H1778.12C1777.8 440.716 1777.64 440.873 1777.64 441.188V470.452C1777.64 470.767 1777.8 470.924 1778.12 470.924H1801.95C1802.74 470.924 1803.13 471.317 1803.13 472.104V477.06C1803.13 477.847 1802.74 478.24 1801.95 478.24H1778.12C1777.8 478.24 1777.64 478.397 1777.64 478.712V508.212C1777.64 508.527 1777.8 508.684 1778.12 508.684H1813.52C1814.3 508.684 1814.7 509.077 1814.7 509.864V514.82C1814.7 515.607 1814.3 516 1813.52 516H1770.45C1769.66 516 1769.27 515.607 1769.27 514.82V434.58C1769.27 433.793 1769.66 433.4 1770.45 433.4H1813.52C1814.3 433.4 1814.7 433.793 1814.7 434.58V439.536Z" fill="white"/>
<path d="M1858.9 516.944C1851.74 516.944 1845.96 514.82 1841.55 510.572C1837.23 506.324 1835.06 500.699 1835.06 493.698V455.584C1835.06 448.583 1837.23 442.997 1841.55 438.828C1845.96 434.58 1851.74 432.456 1858.9 432.456C1866.14 432.456 1871.92 434.541 1876.25 438.71C1880.65 442.879 1882.85 448.425 1882.85 455.348V456.41C1882.85 457.197 1882.46 457.59 1881.67 457.59L1875.66 457.826C1874.87 457.826 1874.48 457.472 1874.48 456.764V455.112C1874.48 450.549 1873.02 446.852 1870.11 444.02C1867.28 441.188 1863.54 439.772 1858.9 439.772C1854.26 439.772 1850.52 441.188 1847.69 444.02C1844.86 446.773 1843.44 450.471 1843.44 455.112V494.288C1843.44 498.929 1844.86 502.666 1847.69 505.498C1850.52 508.251 1854.26 509.628 1858.9 509.628C1863.54 509.628 1867.28 508.212 1870.11 505.38C1873.02 502.548 1874.48 498.851 1874.48 494.288V492.636C1874.48 491.928 1874.87 491.574 1875.66 491.574L1881.67 491.928C1882.46 491.928 1882.85 492.321 1882.85 493.108V493.934C1882.85 500.857 1880.65 506.442 1876.25 510.69C1871.92 514.859 1866.14 516.944 1858.9 516.944Z" fill="white"/>
<path d="M1945.08 434.58C1945.08 433.793 1945.48 433.4 1946.26 433.4H1952.28C1953.07 433.4 1953.46 433.793 1953.46 434.58V514.82C1953.46 515.607 1953.07 516 1952.28 516H1946.26C1945.48 516 1945.08 515.607 1945.08 514.82V478.712C1945.08 478.397 1944.93 478.24 1944.61 478.24H1915.35C1915.03 478.24 1914.88 478.397 1914.88 478.712V514.82C1914.88 515.607 1914.48 516 1913.7 516H1907.68C1906.89 516 1906.5 515.607 1906.5 514.82V434.58C1906.5 433.793 1906.89 433.4 1907.68 433.4H1913.7C1914.48 433.4 1914.88 433.793 1914.88 434.58V470.452C1914.88 470.767 1915.03 470.924 1915.35 470.924H1944.61C1944.93 470.924 1945.08 470.767 1945.08 470.452V434.58Z" fill="white"/>
<path d="M2020.53 516C2019.82 516 2019.39 515.646 2019.23 514.938L2015.34 500.188C2015.26 499.952 2015.06 499.834 2014.75 499.834H1986.55C1986.23 499.834 1986.04 499.952 1985.96 500.188L1982.06 514.938C1981.91 515.646 1981.47 516 1980.76 516H1974.63C1974.24 516 1973.92 515.882 1973.68 515.646C1973.53 515.41 1973.49 515.095 1973.57 514.702L1995.63 434.462C1995.79 433.754 1996.22 433.4 1996.93 433.4H2004.48C2005.19 433.4 2005.62 433.754 2005.78 434.462L2027.85 514.702L2027.96 515.056C2027.96 515.685 2027.57 516 2026.78 516H2020.53ZM1987.96 492.518C1987.88 492.597 1987.88 492.715 1987.96 492.872C1988.12 492.951 1988.28 492.99 1988.43 492.99H2012.86C2013.02 492.99 2013.14 492.951 2013.21 492.872C2013.37 492.715 2013.41 492.597 2013.33 492.518L2000.82 445.082C2000.75 444.925 2000.67 444.846 2000.59 444.846C2000.51 444.846 2000.43 444.925 2000.35 445.082L1987.96 492.518Z" fill="white"/>
<path d="M2088 516C2087.37 516 2086.94 515.685 2086.71 515.056L2072.07 478.594C2072 478.358 2071.84 478.24 2071.6 478.24H2056.38C2056.07 478.24 2055.91 478.397 2055.91 478.712V514.82C2055.91 515.607 2055.51 516 2054.73 516H2048.71C2047.92 516 2047.53 515.607 2047.53 514.82V434.58C2047.53 433.793 2047.92 433.4 2048.71 433.4H2073.73C2077.82 433.4 2081.44 434.344 2084.58 436.232C2087.81 438.12 2090.29 440.795 2092.02 444.256C2093.83 447.717 2094.73 451.69 2094.73 456.174C2094.73 461.523 2093.43 466.086 2090.84 469.862C2088.24 473.638 2084.7 476.155 2080.22 477.414C2079.9 477.571 2079.82 477.768 2079.98 478.004L2095.2 514.584L2095.32 515.056C2095.32 515.685 2094.97 516 2094.26 516H2088ZM2056.38 440.716C2056.07 440.716 2055.91 440.873 2055.91 441.188V471.042C2055.91 471.357 2056.07 471.514 2056.38 471.514H2072.66C2076.76 471.514 2080.06 470.098 2082.58 467.266C2085.09 464.434 2086.35 460.737 2086.35 456.174C2086.35 451.533 2085.09 447.796 2082.58 444.964C2080.06 442.132 2076.76 440.716 2072.66 440.716H2056.38Z" fill="white"/>
<path d="M2138.55 516.944C2131.39 516.944 2125.61 514.859 2121.2 510.69C2116.87 506.521 2114.71 500.975 2114.71 494.052V455.348C2114.71 448.425 2116.87 442.879 2121.2 438.71C2125.61 434.541 2131.39 432.456 2138.55 432.456C2143.27 432.456 2147.4 433.4 2150.94 435.288C2154.55 437.176 2157.35 439.811 2159.31 443.194C2161.36 446.577 2162.38 450.471 2162.38 454.876V458.18C2162.38 458.967 2161.99 459.36 2161.2 459.36H2155.18C2154.4 459.36 2154 458.967 2154 458.18V454.876C2154 450.392 2152.59 446.773 2149.76 444.02C2146.92 441.188 2143.19 439.772 2138.55 439.772C2133.9 439.772 2130.17 441.188 2127.34 444.02C2124.5 446.773 2123.09 450.471 2123.09 455.112V494.288C2123.09 498.851 2124.5 502.548 2127.34 505.38C2130.25 508.212 2134.02 509.628 2138.66 509.628C2143.31 509.628 2147 508.291 2149.76 505.616C2152.59 502.941 2154 499.323 2154 494.76V481.898C2154 481.583 2153.85 481.426 2153.53 481.426H2139.73C2138.94 481.426 2138.55 481.033 2138.55 480.246V475.29C2138.55 474.503 2138.94 474.11 2139.73 474.11H2161.2C2161.99 474.11 2162.38 474.503 2162.38 475.29V493.698C2162.38 500.857 2160.22 506.521 2155.89 510.69C2151.57 514.859 2145.78 516.944 2138.55 516.944Z" fill="white"/>
<path d="M2232.26 439.536C2232.26 440.323 2231.87 440.716 2231.08 440.716H2195.68C2195.37 440.716 2195.21 440.873 2195.21 441.188V470.452C2195.21 470.767 2195.37 470.924 2195.68 470.924H2219.52C2220.31 470.924 2220.7 471.317 2220.7 472.104V477.06C2220.7 477.847 2220.31 478.24 2219.52 478.24H2195.68C2195.37 478.24 2195.21 478.397 2195.21 478.712V508.212C2195.21 508.527 2195.37 508.684 2195.68 508.684H2231.08C2231.87 508.684 2232.26 509.077 2232.26 509.864V514.82C2232.26 515.607 2231.87 516 2231.08 516H2188.01C2187.23 516 2186.83 515.607 2186.83 514.82V434.58C2186.83 433.793 2187.23 433.4 2188.01 433.4H2231.08C2231.87 433.4 2232.26 433.793 2232.26 434.58V439.536Z" fill="white"/>
</svg>
