<svg xmlns="http://www.w3.org/2000/svg" viewBox="0 0 2304 540">
  <title>Hydrogen Insight</title>
  <path fill="var(--color-header-logo-secondary" d="M247.741 102.445c0-1.095.328-1.971.985-2.627.875-.876 1.86-1.314 2.954-1.314h38.411c1.095 0 1.97.438 2.626 1.314.875.656 1.314 1.532 1.314 2.627v221.963c0 1.095-.439 2.08-1.314 2.955-.656.656-1.531.985-2.626.985H251.68a4.803 4.803 0 0 1-2.954-.985 4.798 4.798 0 0 1-.985-2.955V234.44c0-1.094-.547-1.641-1.642-1.641h-52.527c-1.095 0-1.642.547-1.642 1.641v89.968c0 1.095-.437 2.08-1.313 2.955-.656.656-1.532.985-2.626.985H149.58a4.803 4.803 0 0 1-2.954-.985 4.798 4.798 0 0 1-.985-2.955V102.445c0-1.095.328-1.971.985-2.627.875-.876 1.86-1.314 2.954-1.314h38.411c1.094 0 1.97.438 2.626 1.314.876.656 1.313 1.532 1.313 2.627v88.653c0 1.095.547 1.642 1.642 1.642h52.527c1.095 0 1.642-.547 1.642-1.642v-88.653Zm73.443 291.244c-.656 0-1.203-.439-1.641-1.313-.439-.657-.657-1.532-.657-2.627v-30.208c0-2.627 1.203-3.94 3.611-3.94 12.476-.218 21.34-2.081 26.592-5.582 5.471-3.284 8.975-10.179 10.506-20.686l-.328-1.97-47.275-163.517-.328-1.314c0-2.189 1.203-3.283 3.611-3.283h41.365c2.409 0 3.829 1.204 4.268 3.612l21.339 102.116c.218.874.547 1.313.985 1.313.439 0 .767-.439.985-1.313l21.339-102.116c.439-2.408 1.86-3.612 4.268-3.612l40.709.328c1.313 0 2.188.438 2.626 1.313.657.657.875 1.642.657 2.956l-50.229 170.74c-4.815 15.979-9.96 27.91-15.43 35.79-5.253 8.099-12.804 14.009-22.653 17.731-9.849 3.722-23.965 5.582-42.35 5.582h-1.97Zm230.949-291.244c0-1.095.328-1.971.985-2.627.874-.876 1.859-1.314 2.955-1.314h38.41c1.095 0 1.97.438 2.627 1.314.874.656 1.313 1.532 1.313 2.627v221.963c0 1.095-.439 2.08-1.313 2.955-.657.656-1.532.985-2.627.985h-38.41a4.8 4.8 0 0 1-2.955-.985 4.798 4.798 0 0 1-.985-2.955v-7.224c0-.657-.218-1.095-.657-1.313-.438-.218-.874 0-1.313.656-8.097 9.633-19.698 14.448-34.799 14.448-26.702 0-43.882-17.403-51.543-52.208-2.188-10.945-3.283-23.094-3.283-36.446 0-11.821.985-23.313 2.955-34.477 6.784-33.929 24.294-50.894 52.527-50.894 7.661 0 14.227 1.095 19.698 3.284 5.471 1.97 10.288 5.472 14.445 10.507.439.657.875.875 1.313.657.439-.219.657-.657.657-1.314v-67.639ZM549.507 272.2c1.531-6.349 2.298-15.87 2.298-28.566 0-11.602-.875-21.233-2.627-28.895-2.844-12.039-9.302-18.059-19.369-18.059-5.035 0-9.192 1.533-12.475 4.597-3.283 3.065-5.692 7.443-7.223 13.134-1.97 6.348-2.955 16.089-2.955 29.223 0 12.477.767 21.889 2.298 28.238 2.845 12.916 9.631 19.373 20.355 19.373 9.849 0 16.415-6.349 19.698-19.045Zm155.245-114.921c5.91 0 11.273 1.313 16.087 3.94 1.752 1.094 2.408 2.845 1.97 5.253l-6.566 37.76c-.218 2.627-1.752 3.393-4.597 2.299-3.501-.876-6.676-1.314-9.52-1.314-2.627 0-5.471.329-8.536.985-6.348.876-11.708 3.941-16.086 9.194-4.378 5.254-6.566 11.602-6.566 19.044v89.968c0 1.095-.439 2.08-1.313 2.955-.657.656-1.532.985-2.627.985h-38.41a4.8 4.8 0 0 1-2.955-.985 4.798 4.798 0 0 1-.985-2.955V163.517c0-1.094.328-1.97.985-2.627.874-.875 1.859-1.313 2.955-1.313h38.41c1.095 0 1.97.438 2.627 1.313.874.657 1.313 1.533 1.313 2.627v13.134c0 .876.11 1.423.328 1.642.439 0 .875-.328 1.313-.985 7.661-13.353 18.385-20.029 32.173-20.029Zm97.422 173.696c-19.041 0-34.689-4.708-46.946-14.119-12.037-9.633-19.259-22.767-21.668-39.402-1.752-10.069-2.626-21.343-2.626-33.82 0-12.696.874-23.969 2.626-33.82 2.409-16.198 9.631-29.004 21.668-38.416 12.257-9.632 27.905-14.448 46.946-14.448 18.823 0 34.143 4.816 45.962 14.448 12.036 9.412 19.369 22.218 21.995 38.416 1.752 9.851 2.627 21.124 2.627 33.82 0 12.258-.875 23.423-2.627 33.492-2.408 16.856-9.63 30.097-21.667 39.73-11.819 9.411-27.249 14.119-46.29 14.119Zm0-39.73c5.691 0 10.506-1.86 14.445-5.582 4.158-3.723 6.894-8.755 8.208-15.104 1.095-9.194 1.641-18.169 1.641-26.925 0-8.975-.546-17.84-1.641-26.596-1.096-6.348-3.722-11.273-7.88-14.776-3.939-3.721-8.974-5.582-15.101-5.582-5.909 0-10.944 1.861-15.102 5.582-3.939 3.503-6.455 8.428-7.551 14.776-1.095 6.567-1.641 15.432-1.641 26.596 0 10.945.439 19.919 1.313 26.925 1.313 6.349 4.05 11.381 8.208 15.104 4.157 3.722 9.192 5.582 15.101 5.582Zm182.838-127.728c0-1.094.328-1.97.985-2.627.875-.875 1.86-1.313 2.955-1.313h38.408c1.1 0 1.97.438 2.63 1.313.87.657 1.31 1.533 1.31 2.627v153.339c0 26.267-7.33 45.75-21.99 58.446-14.449 12.915-35.242 19.372-62.38 19.372-5.91 0-12.147-.328-18.713-.985-2.627-.218-3.94-1.642-3.94-4.268l.985-33.164c0-2.408 1.424-3.611 4.268-3.611 3.283.438 7.879.656 13.788.656 14.664 0 25.279-3.173 31.845-9.522 6.566-6.128 9.849-15.979 9.849-29.551 0-.657-.218-1.095-.657-1.314-.438-.218-.874 0-1.313.657-8.097 9.412-19.259 14.119-33.486 14.119-14.227 0-26.264-4.158-36.112-12.477-9.849-8.319-16.087-20.686-18.713-37.103-1.532-5.693-2.298-17.293-2.298-34.805s.984-29.77 2.954-36.775c2.409-15.542 8.208-27.691 17.4-36.447 9.192-8.756 21.121-13.134 35.784-13.134 14.445 0 25.936 4.925 34.471 14.776.439.657.875.875 1.313.657.439-.219.657-.657.657-1.314v-7.552Zm-1.313 106.713c.875-7.005 1.313-15.979 1.313-26.924 0-11.164-.438-20.248-1.313-27.253-1.095-5.91-3.501-10.617-7.223-14.119-3.721-3.502-8.425-5.254-14.116-5.254-5.471 0-10.178 1.861-14.117 5.582-3.722 3.503-6.127 8.099-7.223 13.791-1.313 7.88-1.969 16.964-1.969 27.253 0 9.631.546 18.498 1.641 26.596 1.095 5.91 3.501 10.617 7.223 14.119 3.939 3.501 8.864 5.253 14.773 5.253 5.691 0 10.395-1.752 14.117-5.253 3.721-3.502 6.019-8.099 6.894-13.791Zm208.151-51.879c.66 7.224.99 15.214.99 23.97l-.33 12.805c0 2.627-1.31 3.94-3.94 3.94h-87c-1.09 0-1.64.547-1.64 1.642.44 5.036.88 8.755 1.31 11.164 1.1 6.128 3.73 10.946 7.88 14.447 4.38 3.502 9.74 5.254 16.09 5.254 10.72-.218 18.17-5.143 22.32-14.776 1.1-2.188 2.74-3.065 4.93-2.627l34.8 6.896c2.62.656 3.5 2.298 2.62 4.925-4.81 14.447-12.8 25.611-23.96 33.491-10.95 7.663-24.51 11.493-40.71 11.493-19.48 0-35.02-4.379-46.62-13.134-11.38-8.976-18.82-21.782-22.32-38.417-1.97-8.976-2.96-22.656-2.96-41.043 0-10.508.66-19.373 1.97-26.597 2.41-16.636 9.63-29.879 21.67-39.73 12.04-10.069 27.25-15.104 45.63-15.104 19.92 0 36.12 5.692 48.59 17.074 12.48 11.164 19.37 25.94 20.68 44.327Zm-68.94-21.671c-5.91 0-10.83 1.752-14.77 5.254-3.72 3.502-6.13 8.318-7.22 14.447-.66 3.94-.99 8.099-.99 12.477 0 1.095.55 1.642 1.64 1.642h42.68c1.1 0 1.64-.547 1.64-1.642 0-4.378-.33-8.537-.98-12.477-.88-5.91-3.29-10.616-7.22-14.119-3.94-3.721-8.87-5.582-14.78-5.582Zm175.05-39.73c15.97 0 28.45 5.144 37.42 15.433 9.19 10.069 13.79 24.188 13.79 42.356v109.669c0 1.095-.44 2.08-1.31 2.955-.66.656-1.53.985-2.63.985h-38.41c-1.1 0-2.08-.329-2.96-.985a4.837 4.837 0 0 1-.98-2.955V221.306c0-7.661-1.86-13.681-5.58-18.059-3.72-4.378-8.75-6.567-15.1-6.567-6.57 0-11.82 2.299-15.76 6.896-3.72 4.378-5.58 10.397-5.58 18.059v102.773c0 1.095-.44 2.08-1.32 2.955-.65.656-1.53.985-2.62.985h-38.41c-1.1 0-2.08-.329-2.96-.985a4.837 4.837 0 0 1-.98-2.955V163.517c0-1.094.33-1.97.98-2.627.88-.875 1.86-1.313 2.96-1.313h38.41c1.09 0 1.97.438 2.62 1.313.88.657 1.32 1.533 1.32 2.627v9.194c0 .657.22 1.095.65 1.313.44 0 .99-.438 1.65-1.313 7.88-10.507 19.48-15.761 34.8-15.761Z"/>
  <path fill="var(--color-header-logo-primary)" d="M1398.44 140.533c-7.44 0-13.57-2.408-18.39-7.224-4.81-5.035-7.22-11.273-7.22-18.716 0-7.661 2.3-13.9 6.89-18.715 4.82-4.816 11.06-7.224 18.72-7.224 7.66 0 13.9 2.408 18.71 7.224 4.81 4.815 7.22 11.054 7.22 18.715 0 7.443-2.51 13.681-7.55 18.716-4.81 4.816-10.94 7.224-18.38 7.224Zm-19.04 187.815c-1.1 0-2.08-.329-2.96-.985a4.774 4.774 0 0 1-.98-2.955V163.517c0-1.094.32-1.97.98-2.627.88-.875 1.86-1.313 2.96-1.313h38.41c1.09 0 1.97.438 2.62 1.313.88.657 1.32 1.533 1.32 2.627v160.891c0 1.095-.44 2.08-1.32 2.955-.65.656-1.53.985-2.62.985h-38.41Zm153.08-171.398c15.98 0 28.45 5.144 37.43 15.433 9.19 10.069 13.79 24.188 13.79 42.356v109.669c0 1.095-.44 2.08-1.32 2.955-.65.656-1.53.985-2.62.985h-38.41c-1.1 0-2.08-.329-2.96-.985a4.774 4.774 0 0 1-.98-2.955V221.306c0-7.661-1.86-13.681-5.58-18.059-3.73-4.378-8.76-6.567-15.11-6.567-6.56 0-11.81 2.299-15.75 6.896-3.73 4.378-5.59 10.397-5.59 18.059v102.773c0 1.095-.43 2.08-1.31 2.955-.66.656-1.53.985-2.62.985h-38.42a4.79 4.79 0 0 1-2.95-.985 4.784 4.784 0 0 1-.99-2.955V163.517c0-1.094.33-1.97.99-2.627.87-.875 1.86-1.313 2.95-1.313h38.42c1.09 0 1.96.438 2.62 1.313.88.657 1.31 1.533 1.31 2.627v9.194c0 .657.22 1.095.66 1.313.44 0 .99-.438 1.64-1.313 7.88-10.507 19.48-15.761 34.8-15.761Zm138.24 173.696c-20.36 0-36.55-4.486-48.59-13.462-12.04-8.976-18.06-20.796-18.06-35.462v-2.626c0-1.096.33-1.97.99-2.627.87-.875 1.86-1.314 2.95-1.314h36.12c1.09 0 1.97.439 2.62 1.314.88.657 1.32 1.531 1.32 2.627v.656c0 4.815 2.18 8.755 6.56 11.821 4.38 3.065 9.74 4.597 16.09 4.597 5.91 0 10.61-1.314 14.11-3.94 3.51-2.845 5.26-6.349 5.26-10.508 0-4.158-1.97-7.334-5.91-9.522-3.72-2.188-9.85-4.707-18.39-7.552-3.5-.874-8.75-2.626-15.75-5.253-13.14-4.378-23.86-10.289-32.18-17.731-8.09-7.442-12.14-18.169-12.14-32.178 0-15.98 5.79-28.676 17.39-38.088 11.61-9.413 26.93-14.119 45.97-14.119 19.69 0 35.34 4.925 46.94 14.775 11.82 9.632 17.73 22.547 17.73 38.745 0 2.408-1.31 3.612-3.94 3.612h-35.45c-1.1 0-2.08-.328-2.96-.985a4.774 4.774 0 0 1-.98-2.955v-.985c0-4.597-1.86-8.428-5.59-11.492-3.72-3.065-8.75-4.597-15.1-4.597-5.91 0-10.72 1.423-14.44 4.268-3.5 2.846-5.25 6.349-5.25 10.508 0 4.596 2.18 8.208 6.56 10.835 4.38 2.408 11.05 4.925 20.03 7.552 1.97.657 3.83 1.313 5.58 1.97 1.97.438 3.72.985 5.25 1.642 14.88 5.035 26.81 11.164 35.79 18.387 8.97 7.005 13.46 17.513 13.46 31.522 0 15.76-6.02 28.127-18.06 37.103-11.82 8.976-27.8 13.462-47.93 13.462Zm109-190.113c-7.44 0-13.57-2.408-18.38-7.224-4.82-5.035-7.22-11.273-7.22-18.716 0-7.661 2.29-13.9 6.89-18.715 4.81-4.816 11.05-7.224 18.71-7.224s13.9 2.408 18.72 7.224c4.81 4.815 7.22 11.054 7.22 18.715 0 7.443-2.52 13.681-7.55 18.716-4.82 4.816-10.95 7.224-18.39 7.224Zm-19.04 187.815a4.79 4.79 0 0 1-2.95-.985 4.784 4.784 0 0 1-.99-2.955V163.517c0-1.094.33-1.97.99-2.627.87-.875 1.86-1.313 2.95-1.313h38.41c1.1 0 1.97.438 2.63 1.313.87.657 1.31 1.533 1.31 2.627v160.891c0 1.095-.44 2.08-1.31 2.955-.66.656-1.53.985-2.63.985h-38.41Zm158.67-164.831c0-1.094.33-1.97.98-2.627.88-.875 1.86-1.313 2.96-1.313h38.41c1.09 0 1.97.438 2.63 1.313.87.657 1.31 1.533 1.31 2.627v153.339c0 26.267-7.33 45.75-22 58.446-14.44 12.915-35.24 19.372-62.37 19.372-5.91 0-12.15-.328-18.72-.985-2.62-.218-3.94-1.642-3.94-4.268l.99-33.164c0-2.408 1.42-3.611 4.27-3.611 3.28.438 7.88.656 13.78.656 14.67 0 25.28-3.173 31.85-9.522 6.57-6.128 9.85-15.979 9.85-29.551 0-.657-.22-1.095-.66-1.314-.44-.218-.87 0-1.31.657-8.1 9.412-19.26 14.119-33.49 14.119-14.22 0-26.26-4.158-36.11-12.477-9.85-8.319-16.09-20.686-18.71-37.103-1.53-5.693-2.3-17.293-2.3-34.805s.98-29.77 2.95-36.775c2.41-15.542 8.21-27.691 17.4-36.447 9.2-8.756 21.12-13.134 35.79-13.134 14.44 0 25.93 4.925 34.47 14.776.44.657.87.875 1.31.657.44-.219.66-.657.66-1.314v-7.552Zm-1.31 106.713c.87-7.005 1.31-15.979 1.31-26.924 0-11.164-.44-20.248-1.31-27.253-1.1-5.91-3.51-10.617-7.23-14.119-3.72-3.502-8.42-5.254-14.11-5.254-5.47 0-10.18 1.861-14.12 5.582-3.72 3.503-6.13 8.099-7.22 13.791-1.32 7.88-1.97 16.964-1.97 27.253 0 9.631.54 18.498 1.64 26.596 1.09 5.91 3.5 10.617 7.22 14.119 3.94 3.501 8.86 5.253 14.77 5.253 5.7 0 10.4-1.752 14.12-5.253 3.72-3.502 6.02-8.099 6.9-13.791Zm155.95-113.28c15.98 0 28.45 5.144 37.43 15.433 9.19 10.069 13.79 24.188 13.79 42.356v109.669c0 1.095-.44 2.08-1.32 2.955-.65.656-1.53.985-2.62.985h-38.41c-1.1 0-2.08-.329-2.96-.985a4.774 4.774 0 0 1-.98-2.955V221.306c0-7.661-1.86-13.681-5.59-18.059-3.72-4.378-8.75-6.567-15.1-6.567-6.56 0-11.82 2.299-15.76 6.896-3.72 4.378-5.58 10.397-5.58 18.059v102.773c0 1.095-.43 2.08-1.31 2.955-.66.656-1.53.985-2.63.985h-38.41a4.79 4.79 0 0 1-2.95-.985 4.784 4.784 0 0 1-.99-2.955V102.445c0-1.095.33-1.971.99-2.627.87-.876 1.86-1.314 2.95-1.314h38.41c1.1 0 1.97.438 2.63 1.314.88.656 1.31 1.532 1.31 2.627v70.266c0 .657.22 1.095.66 1.313.44 0 .99-.438 1.64-1.313 7.88-10.507 19.48-15.761 34.8-15.761Zm163.52 33.492c0 1.094-.44 2.079-1.32 2.955-.65.657-1.53.985-2.62.985h-25.28c-1.1 0-1.64.547-1.64 1.642v73.878c0 6.785 1.31 11.71 3.94 14.776 2.84 2.844 7.11 4.158 12.8 3.94h6.57c1.09 0 1.96.438 2.62 1.313.88.657 1.31 1.532 1.31 2.627v31.85c0 2.626-1.31 3.94-3.93 3.94-3.73.218-9.2.328-16.42.328-17.29 0-30.2-2.845-38.74-8.537-8.32-5.692-12.47-16.417-12.47-32.178v-91.937c0-1.095-.55-1.642-1.65-1.642h-15.1c-1.09 0-2.08-.328-2.95-.985a4.788 4.788 0 0 1-.99-2.955v-26.925c0-1.094.33-1.97.99-2.627.87-.875 1.86-1.313 2.95-1.313h15.1c1.1 0 1.65-.547 1.65-1.642v-37.76c0-1.094.32-1.97.98-2.626.88-.876 1.86-1.314 2.96-1.314h36.44c1.09 0 1.97.438 2.62 1.314.88.656 1.32 1.532 1.32 2.626v37.76c0 1.095.54 1.642 1.64 1.642h25.28c1.09 0 1.97.438 2.62 1.313.88.657 1.32 1.533 1.32 2.627v26.925Z"/>
  <path fill="var(--color-header-logo-primary)" d="M52.88 199.768c29.204 0 52.879-23.675 52.879-52.88 0-29.205-23.675-52.88-52.88-52.88C23.676 94.008 0 117.683 0 146.888c0 29.205 23.675 52.88 52.88 52.88Z"/>
  <path fill="var(--color-header-logo-primary)" d="M52.88 330.988c29.204 0 52.879-23.237 52.879-51.901 0-28.664-23.675-51.9-52.88-51.9-29.204 0-52.879 23.236-52.879 51.9 0 28.664 23.675 51.901 52.88 51.901Z"/>
  <path fill="var(--color-header-logo-secondary)" d="M1100.56 433.282c6.3 0 11.37 2.124 15.22 6.372 3.94 4.169 5.9 9.715 5.9 16.638 0 6.844-1.96 12.351-5.9 16.52-3.85 4.091-8.92 6.136-15.22 6.136h-17.58c-.31 0-.47.157-.47.472v35.4c0 .787-.4 1.18-1.18 1.18h-6.02c-.79 0-1.18-.393-1.18-1.18v-80.358c0-.787.39-1.18 1.18-1.18h25.25Zm-1.06 38.704c4.17 0 7.51-1.416 10.03-4.248 2.52-2.832 3.78-6.608 3.78-11.328 0-4.799-1.26-8.614-3.78-11.446-2.52-2.911-5.86-4.366-10.03-4.366h-16.52c-.31 0-.47.157-.47.472v30.444c0 .315.16.472.47.472h16.52Z"/>
  <path fill="var(--color-header-logo-secondary" d="M1160.13 516.944c-5.74 0-10.46-1.534-14.16-4.602-3.7-3.147-5.94-7.355-6.73-12.626-.47-3.933-.7-8.496-.7-13.688s.23-9.676.7-13.452c.71-5.192 2.91-9.361 6.61-12.508 3.78-3.147 8.54-4.72 14.28-4.72s10.46 1.573 14.16 4.72c3.78 3.147 6.02 7.316 6.73 12.508.47 3.147.7 7.631.7 13.452 0 5.979-.23 10.541-.7 13.688-.71 5.271-2.95 9.479-6.73 12.626-3.7 3.068-8.42 4.602-14.16 4.602Zm0-7.316c3.38 0 6.21-1.023 8.5-3.068 2.36-2.124 3.77-4.917 4.24-8.378.32-2.911.48-6.923.48-12.036 0-5.192-.16-9.204-.48-12.036-.39-3.461-1.77-6.215-4.13-8.26-2.28-2.124-5.15-3.186-8.61-3.186-3.46 0-6.33 1.062-8.61 3.186-2.29 2.045-3.66 4.799-4.13 8.26-.32 2.832-.48 6.844-.48 12.036 0 5.192.16 9.204.48 12.036.39 3.461 1.73 6.254 4.01 8.378 2.36 2.045 5.27 3.068 8.73 3.068Z"/>
  <path fill="var(--color-header-logo-secondary" d="M1212.86 516c-.71 0-1.14-.354-1.3-1.062l-14.51-57.348-.12-.472c0-.551.35-.826 1.06-.826h5.9c.71 0 1.14.354 1.3 1.062l10.62 45.312c.08.236.16.354.24.354.07 0 .15-.118.23-.354l10.74-45.312c.16-.708.59-1.062 1.3-1.062h5.43c.78 0 1.22.354 1.29 1.062l10.98 45.194c.08.236.16.354.23.354.08 0 .16-.118.24-.354l10.74-45.194c.16-.708.59-1.062 1.3-1.062l6.01.118c.4 0 .67.118.83.354.24.236.28.551.12.944l-14.75 57.23c-.08.708-.51 1.062-1.3 1.062h-6.14c-.7 0-1.14-.354-1.29-1.062l-10.74-43.66c-.08-.236-.2-.354-.36-.354-.07 0-.15.118-.23.354l-10.39 43.66c-.15.708-.59 1.062-1.29 1.062h-6.14Z"/>
  <path fill="var(--color-header-logo-secondary" d="M1303.01 509.628c2.99 0 5.55-.747 7.67-2.242 2.2-1.573 3.78-3.658 4.72-6.254.24-.708.71-.983 1.42-.826l5.42 1.062c.4.079.63.275.71.59.16.236.2.511.12.826-1.34 4.405-3.78 7.867-7.32 10.384-3.54 2.517-7.82 3.776-12.86 3.776-5.74 0-10.42-1.495-14.04-4.484-3.62-3.068-5.86-7.198-6.73-12.39-.31-1.967-.51-4.287-.59-6.962-.08-2.675-.11-4.877-.11-6.608v-3.776c0-4.012.15-7.277.47-9.794.63-5.271 2.79-9.519 6.49-12.744 3.77-3.225 8.49-4.838 14.16-4.838 6.05 0 10.97 1.731 14.75 5.192 3.77 3.461 5.9 8.024 6.37 13.688.24 2.596.35 7.355.35 14.278 0 .787-.39 1.18-1.18 1.18h-32.56c-.32 0-.48.157-.48.472 0 2.439.08 5.153.24 8.142.39 3.383 1.73 6.136 4.01 8.26 2.36 2.045 5.35 3.068 8.97 3.068Zm-.35-46.964c-3.54 0-6.46 1.062-8.74 3.186-2.2 2.045-3.5 4.759-3.89 8.142-.16 3.304-.24 6.057-.24 8.26 0 .315.16.472.48.472h24.89c.32 0 .48-.157.48-.472 0-2.281-.16-4.995-.48-8.142-.39-3.383-1.73-6.136-4.01-8.26-2.2-2.124-5.03-3.186-8.49-3.186Z"/>
  <path fill="var(--color-header-logo-secondary" d="M1367.52 455.702c2.36 0 4.37.472 6.02 1.416.55.236.75.708.59 1.416l-1.41 6.136c-.08.787-.56 1.023-1.42.708-1.26-.551-2.64-.826-4.13-.826l-1.42.118c-3.46.079-6.33 1.573-8.61 4.484-2.28 2.911-3.42 6.451-3.42 10.62v35.046c0 .787-.4 1.18-1.18 1.18h-6.02c-.79 0-1.18-.393-1.18-1.18v-57.348c0-.787.39-1.18 1.18-1.18h6.02c.78 0 1.18.393 1.18 1.18v7.67c0 .236.04.354.12.354.15 0 .27-.079.35-.236 1.34-2.989 3.11-5.31 5.31-6.962 2.28-1.731 4.96-2.596 8.02-2.596Z"/>
  <path fill="var(--color-header-logo-secondary" d="M1410.85 509.628c2.99 0 5.55-.747 7.67-2.242 2.21-1.573 3.78-3.658 4.72-6.254.24-.708.71-.983 1.42-.826l5.43 1.062c.39.079.63.275.71.59.15.236.19.511.11.826-1.33 4.405-3.77 7.867-7.31 10.384-3.54 2.517-7.83 3.776-12.86 3.776-5.75 0-10.43-1.495-14.05-4.484-3.61-3.068-5.86-7.198-6.72-12.39-.32-1.967-.51-4.287-.59-6.962-.08-2.675-.12-4.877-.12-6.608v-3.776c0-4.012.16-7.277.47-9.794.63-5.271 2.8-9.519 6.49-12.744 3.78-3.225 8.5-4.838 14.16-4.838 6.06 0 10.98 1.731 14.75 5.192 3.78 3.461 5.9 8.024 6.37 13.688.24 2.596.36 7.355.36 14.278 0 .787-.39 1.18-1.18 1.18h-32.57c-.31 0-.47.157-.47.472 0 2.439.08 5.153.23 8.142.4 3.383 1.74 6.136 4.02 8.26 2.36 2.045 5.35 3.068 8.96 3.068Zm-.35-46.964c-3.54 0-6.45 1.062-8.73 3.186-2.2 2.045-3.5 4.759-3.9 8.142-.15 3.304-.23 6.057-.23 8.26 0 .315.16.472.47.472h24.9c.31 0 .47-.157.47-.472 0-2.281-.16-4.995-.47-8.142-.39-3.383-1.73-6.136-4.01-8.26-2.21-2.124-5.04-3.186-8.5-3.186Z"/>
  <path fill="var(--color-header-logo-secondary" d="M1485.4 434.58c0-.787.39-1.18 1.18-1.18h6.02c.78 0 1.18.393 1.18 1.18v80.24c0 .787-.4 1.18-1.18 1.18h-6.02c-.79 0-1.18-.393-1.18-1.18v-4.72c0-.236-.08-.354-.24-.354-.08 0-.19.079-.35.236-2.91 4.641-7.47 6.962-13.69 6.962-4.96 0-8.93-1.298-11.92-3.894-2.91-2.675-5.07-6.883-6.49-12.626-1.02-4.327-1.53-8.889-1.53-13.688 0-5.507.43-10.187 1.3-14.042 1.18-5.9 3.34-10.227 6.49-12.98 3.22-2.832 7.47-4.248 12.74-4.248 3.3 0 5.98.59 8.02 1.77 2.13 1.101 3.82 2.793 5.08 5.074.08.236.2.354.35.354.16-.079.24-.236.24-.472V434.58Zm-2.01 66.434c1.18-3.54 1.77-8.496 1.77-14.868 0-6.451-.63-11.525-1.89-15.222-.94-2.675-2.24-4.72-3.89-6.136-1.57-1.416-3.7-2.124-6.37-2.124-5.19 0-8.89 2.675-11.09 8.024-1.5 3.933-2.25 9.086-2.25 15.458s.63 11.289 1.89 14.75c1.03 2.911 2.4 5.113 4.13 6.608 1.81 1.495 4.21 2.242 7.2 2.242 2.75 0 4.96-.747 6.61-2.242 1.65-1.495 2.95-3.658 3.89-6.49Z"/>
  <path fill="var(--color-header-logo-secondary" d="M1589.54 472.694c.79 4.012 1.18 8.693 1.18 14.042 0 4.799-.51 9.361-1.53 13.688-1.42 5.743-3.62 9.951-6.61 12.626-2.91 2.596-6.84 3.894-11.8 3.894-6.21 0-10.74-2.242-13.57-6.726-.08-.236-.2-.315-.35-.236-.16 0-.24.118-.24.354v4.484c0 .787-.39 1.18-1.18 1.18h-6.02c-.78 0-1.18-.393-1.18-1.18v-80.24c0-.787.4-1.18 1.18-1.18h6.02c.79 0 1.18.393 1.18 1.18v27.376c0 .236.08.393.24.472.15 0 .27-.118.35-.354 1.18-2.203 2.79-3.855 4.84-4.956 2.12-1.101 4.84-1.652 8.14-1.652 5.27 0 9.48 1.416 12.63 4.248 3.22 2.753 5.46 7.08 6.72 12.98Zm-9.08 28.202c1.18-3.54 1.77-8.457 1.77-14.75 0-6.372-.75-11.525-2.25-15.458-2.2-5.349-5.9-8.024-11.09-8.024-2.67 0-4.8.708-6.37 2.124-1.57 1.416-2.83 3.461-3.78 6.136-1.33 3.619-2 8.693-2 15.222 0 6.372.59 11.328 1.77 14.868.94 2.832 2.24 4.995 3.89 6.49 1.73 1.495 3.97 2.242 6.73 2.242 2.91 0 5.27-.747 7.08-2.242 1.81-1.495 3.22-3.697 4.25-6.608Z"/>
  <path fill="var(--color-header-logo-secondary" d="M1609.43 539.6c-.55 0-.83-.393-.83-1.18v-4.72c0-.787.39-1.18 1.18-1.18h.24c2.75-.079 4.87-.551 6.37-1.416 1.57-.865 2.87-2.399 3.89-4.602 1.1-2.203 2.21-5.585 3.31-10.148.08-.079.08-.197 0-.354v-.354L1606 457.59l-.11-.354c0-.629.39-.944 1.18-.944h6.37c.71 0 1.14.354 1.3 1.062l12.86 47.082c.08.157.16.236.23.236.16 0 .28-.079.36-.236l12.86-47.082c.16-.708.59-1.062 1.3-1.062h6.25c.4 0 .67.118.83.354.23.236.31.551.23.944l-19.23 63.602c-1.57 5.271-3.15 9.165-4.72 11.682-1.49 2.517-3.42 4.248-5.78 5.192-2.28 1.023-5.55 1.534-9.8 1.534h-.7Z"/>
  <path fill="var(--color-header-logo-secondary" d="M1740.32 516c-.63 0-1.06-.315-1.3-.944l-14.63-36.462c-.08-.236-.24-.354-.47-.354h-15.22c-.32 0-.48.157-.48.472v36.108c0 .787-.39 1.18-1.18 1.18h-6.01c-.79 0-1.18-.393-1.18-1.18v-80.24c0-.787.39-1.18 1.18-1.18h25.01c4.09 0 7.71.944 10.86 2.832 3.22 1.888 5.7 4.563 7.43 8.024 1.81 3.461 2.72 7.434 2.72 11.918 0 5.349-1.3 9.912-3.9 13.688-2.59 3.776-6.13 6.293-10.62 7.552-.31.157-.39.354-.23.59l15.22 36.58.12.472c0 .629-.36.944-1.07.944h-6.25Zm-31.62-75.284c-.32 0-.48.157-.48.472v29.854c0 .315.16.472.48.472h16.28c4.09 0 7.39-1.416 9.91-4.248 2.52-2.832 3.78-6.529 3.78-11.092 0-4.641-1.26-8.378-3.78-11.21-2.52-2.832-5.82-4.248-9.91-4.248h-16.28Z"/>
  <path fill="var(--color-header-logo-secondary" d="M1814.7 439.536c0 .787-.4 1.18-1.18 1.18h-35.4c-.32 0-.48.157-.48.472v29.264c0 .315.16.472.48.472h23.83c.79 0 1.18.393 1.18 1.18v4.956c0 .787-.39 1.18-1.18 1.18h-23.83c-.32 0-.48.157-.48.472v29.5c0 .315.16.472.48.472h35.4c.78 0 1.18.393 1.18 1.18v4.956c0 .787-.4 1.18-1.18 1.18h-43.07c-.79 0-1.18-.393-1.18-1.18v-80.24c0-.787.39-1.18 1.18-1.18h43.07c.78 0 1.18.393 1.18 1.18v4.956Z"/>
  <path fill="var(--color-header-logo-secondary" d="M1858.9 516.944c-7.16 0-12.94-2.124-17.35-6.372-4.32-4.248-6.49-9.873-6.49-16.874v-38.114c0-7.001 2.17-12.587 6.49-16.756 4.41-4.248 10.19-6.372 17.35-6.372 7.24 0 13.02 2.085 17.35 6.254 4.4 4.169 6.6 9.715 6.6 16.638v1.062c0 .787-.39 1.18-1.18 1.18l-6.01.236c-.79 0-1.18-.354-1.18-1.062v-1.652c0-4.563-1.46-8.26-4.37-11.092-2.83-2.832-6.57-4.248-11.21-4.248-4.64 0-8.38 1.416-11.21 4.248-2.83 2.753-4.25 6.451-4.25 11.092v39.176c0 4.641 1.42 8.378 4.25 11.21 2.83 2.753 6.57 4.13 11.21 4.13 4.64 0 8.38-1.416 11.21-4.248 2.91-2.832 4.37-6.529 4.37-11.092v-1.652c0-.708.39-1.062 1.18-1.062l6.01.354c.79 0 1.18.393 1.18 1.18v.826c0 6.923-2.2 12.508-6.6 16.756-4.33 4.169-10.11 6.254-17.35 6.254Z"/>
  <path fill="var(--color-header-logo-secondary" d="M1945.08 434.58c0-.787.4-1.18 1.18-1.18h6.02c.79 0 1.18.393 1.18 1.18v80.24c0 .787-.39 1.18-1.18 1.18h-6.02c-.78 0-1.18-.393-1.18-1.18v-36.108c0-.315-.15-.472-.47-.472h-29.26c-.32 0-.47.157-.47.472v36.108c0 .787-.4 1.18-1.18 1.18h-6.02c-.79 0-1.18-.393-1.18-1.18v-80.24c0-.787.39-1.18 1.18-1.18h6.02c.78 0 1.18.393 1.18 1.18v35.872c0 .315.15.472.47.472h29.26c.32 0 .47-.157.47-.472V434.58Z"/>
  <path fill="var(--color-header-logo-secondary" d="M2020.53 516c-.71 0-1.14-.354-1.3-1.062l-3.89-14.75c-.08-.236-.28-.354-.59-.354h-28.2c-.32 0-.51.118-.59.354l-3.9 14.75c-.15.708-.59 1.062-1.3 1.062h-6.13c-.39 0-.71-.118-.95-.354-.15-.236-.19-.551-.11-.944l22.06-80.24c.16-.708.59-1.062 1.3-1.062h7.55c.71 0 1.14.354 1.3 1.062l22.07 80.24.11.354c0 .629-.39.944-1.18.944h-6.25Zm-32.57-23.482c-.08.079-.08.197 0 .354.16.079.32.118.47.118h24.43c.16 0 .28-.039.35-.118.16-.157.2-.275.12-.354l-12.51-47.436c-.07-.157-.15-.236-.23-.236-.08 0-.16.079-.24.236l-12.39 47.436Z"/>
  <path fill="var(--color-header-logo-secondary" d="M2088 516c-.63 0-1.06-.315-1.29-.944l-14.64-36.462c-.07-.236-.23-.354-.47-.354h-15.22c-.31 0-.47.157-.47.472v36.108c0 .787-.4 1.18-1.18 1.18h-6.02c-.79 0-1.18-.393-1.18-1.18v-80.24c0-.787.39-1.18 1.18-1.18h25.02c4.09 0 7.71.944 10.85 2.832 3.23 1.888 5.71 4.563 7.44 8.024 1.81 3.461 2.71 7.434 2.71 11.918 0 5.349-1.3 9.912-3.89 13.688-2.6 3.776-6.14 6.293-10.62 7.552-.32.157-.4.354-.24.59l15.22 36.58.12.472c0 .629-.35.944-1.06.944H2088Zm-31.62-75.284c-.31 0-.47.157-.47.472v29.854c0 .315.16.472.47.472h16.28c4.1 0 7.4-1.416 9.92-4.248 2.51-2.832 3.77-6.529 3.77-11.092 0-4.641-1.26-8.378-3.77-11.21-2.52-2.832-5.82-4.248-9.92-4.248h-16.28Z"/>
  <path fill="var(--color-header-logo-secondary" d="M2138.55 516.944c-7.16 0-12.94-2.085-17.35-6.254-4.33-4.169-6.49-9.715-6.49-16.638v-38.704c0-6.923 2.16-12.469 6.49-16.638 4.41-4.169 10.19-6.254 17.35-6.254 4.72 0 8.85.944 12.39 2.832 3.61 1.888 6.41 4.523 8.37 7.906 2.05 3.383 3.07 7.277 3.07 11.682v3.304c0 .787-.39 1.18-1.18 1.18h-6.02c-.78 0-1.18-.393-1.18-1.18v-3.304c0-4.484-1.41-8.103-4.24-10.856-2.84-2.832-6.57-4.248-11.21-4.248-4.65 0-8.38 1.416-11.21 4.248-2.84 2.753-4.25 6.451-4.25 11.092v39.176c0 4.563 1.41 8.26 4.25 11.092 2.91 2.832 6.68 4.248 11.32 4.248 4.65 0 8.34-1.337 11.1-4.012 2.83-2.675 4.24-6.293 4.24-10.856v-12.862c0-.315-.15-.472-.47-.472h-13.8c-.79 0-1.18-.393-1.18-1.18v-4.956c0-.787.39-1.18 1.18-1.18h21.47c.79 0 1.18.393 1.18 1.18v18.408c0 7.159-2.16 12.823-6.49 16.992-4.32 4.169-10.11 6.254-17.34 6.254Z"/>
  <path fill="var(--color-header-logo-secondary" d="M2232.26 439.536c0 .787-.39 1.18-1.18 1.18h-35.4c-.31 0-.47.157-.47.472v29.264c0 .315.16.472.47.472h23.84c.79 0 1.18.393 1.18 1.18v4.956c0 .787-.39 1.18-1.18 1.18h-23.84c-.31 0-.47.157-.47.472v29.5c0 .315.16.472.47.472h35.4c.79 0 1.18.393 1.18 1.18v4.956c0 .787-.39 1.18-1.18 1.18h-43.07c-.78 0-1.18-.393-1.18-1.18v-80.24c0-.787.4-1.18 1.18-1.18h43.07c.79 0 1.18.393 1.18 1.18v4.956Z"/>
</svg>
