<svg xmlns="http://www.w3.org/2000/svg" xmlns:xlink="http://www.w3.org/1999/xlink" viewBox="0 0 184 29">
  <title>Intrafish</title>
  <defs>
    <path id="a" d="M0 28.896h182.617V0H0z"/>
  </defs>
  <g fill="none" fill-rule="evenodd" transform="translate(1)">
    <path fill="#FCC944" d="M46.158 3.397c-.781-.902-1.953-1.417-3.255-1.417H4.621C2.147 2.109.194 4.04.194 6.359v17.386c0 .386 0 .772.13 1.159 5.99-4.508 13.933-6.697 21.616-8.886 9.895-2.705 19.14-5.28 24.218-12.622"/>
    <path stroke="#FFF" stroke-linecap="round" stroke-linejoin="round" stroke-width=".5" d="M46.158 3.397c-.781-.902-1.953-1.417-3.255-1.417H4.621C2.147 2.109.194 4.04.194 6.359v17.386c0 .386 0 .772.13 1.159 5.99-4.508 13.933-6.697 21.616-8.886 9.895-2.705 19.14-5.28 24.218-12.622"/>
    <path fill="#0086CB" d="M22.59 18.336c-7.422 2.06-15.234 4.25-20.964 8.629.782.773 1.824 1.288 2.995 1.288h38.412c2.474 0 4.427-1.932 4.427-4.38V5.845c-5.86 7.083-15.104 9.659-24.87 12.492"/>
    <path stroke="#FFF" stroke-linecap="round" stroke-linejoin="round" stroke-width=".5" d="M22.59 18.336c-7.422 2.06-15.234 4.25-20.964 8.629.782.773 1.824 1.288 2.995 1.288h38.412c2.474 0 4.427-1.932 4.427-4.38V5.845c-5.86 7.083-15.104 9.659-24.87 12.492"/>
    <path fill="#000" d="M53.711 28.381h4.947V2.238h-4.947zM74.414 28.381V16.146c0-1.802-.52-2.833-1.954-2.833-2.083 0-3.776 2.704-3.776 5.924v9.273h-4.817V13.313c-1.042-.129-2.084-.386-3.126-.386V9.579c2.475-.387 5.079-.387 7.553-.387 0 1.159-.13 2.19-.26 3.348 1.041-2.318 3.385-3.863 5.989-3.734 3.906 0 5.208 2.833 5.208 6.181v13.394h-4.817ZM88.607 28.768c-3.907 0-5.079-1.546-5.079-6.053v-9.402h-2.864v-4.12h2.734V3.396l4.818-1.546v7.341h4.036v4.121h-4.036v8.114c0 2.318.521 2.962 1.953 2.962.651 0 1.302-.129 1.953-.257l.39 4.12c-1.302.387-2.604.516-3.905.516M106.445 13.957c-3.255-.772-4.818 1.417-4.818 6.569v7.856H96.81V13.313a12.977 12.977 0 0 0-3.124-.386V9.579c2.474-.387 5.078-.387 7.552-.387 0 1.288-.13 2.447-.26 3.735h.13c.911-2.318 2.474-4.378 5.599-4.121l-.261 5.151ZM118.034 28.381c0-1.03 0-2.06.13-3.22-.911 2.19-3.125 3.606-5.47 3.606-3.254 0-5.077-2.189-5.077-5.28 0-4.765 4.167-7.083 10.026-7.083v-.773c0-1.802-.78-2.704-3.255-2.704-1.823.129-3.516.515-5.078 1.417l-.52-4.38c2.082-.772 4.166-1.158 6.249-1.158 5.86 0 7.422 2.575 7.422 6.696v8.758c1.041.129 2.083.386 3.125.386v3.349c-2.474.386-5.078.515-7.552.386Zm-.39-8.5c-4.298 0-5.34 1.16-5.34 2.834 0 1.158.782 1.931 1.953 1.931 2.084 0 3.516-2.06 3.516-4.25l-.13-.515ZM132.357 6.874v6.311h7.552v4.378h-7.552v10.819h-4.818V2.238h12.76v4.636zM144.336 28.381V13.313c-1.042-.129-2.083-.386-3.125-.386V9.579c2.605-.387 5.208-.516 7.812-.387v19.19h-4.687Zm2.344-21.765c-1.693 0-2.995-1.416-2.995-3.22 0-1.802 1.302-3.219 2.995-3.219 1.692 0 2.995 1.417 2.995 3.22 0 1.803-1.303 3.22-2.995 3.22ZM156.836 28.896c-1.302 0-2.604-.129-3.776-.515l.26-4.378a9.277 9.277 0 0 0 3.646.773c1.563 0 2.604-.645 2.604-1.804 0-3.22-6.9-1.417-6.9-7.856 0-3.477 2.343-6.181 7.552-6.181 1.041 0 2.083.128 3.125.386l-.261 4.121c-1.042-.386-2.083-.515-3.125-.515-1.562 0-2.343.773-2.343 1.803 0 2.962 6.9 1.546 6.9 7.727.13 3.864-2.995 6.44-7.682 6.44M177.67 28.381V16.146c0-1.802-.52-2.833-1.954-2.833-2.213 0-3.775 2.704-3.775 5.924v9.273h-4.818V4.17c-1.042-.13-2.083-.387-3.125-.387V.434c2.604-.386 5.208-.515 7.943-.386v8.114c0 1.288-.13 2.575-.261 3.863 1.042-2.19 3.255-3.477 5.729-3.477 3.907 0 5.208 2.833 5.208 6.182v13.522l-4.947.13Z"/>
  </g>
</svg>
