<svg xmlns="http://www.w3.org/2000/svg" fill="none" viewBox="0 0 975 114">
  <title>Kystens Næringsliv</title>
  <path fill="#EC9E9E" d="M195.907 87.89c-3.761-1.676-12.237-15.686-29.384-51.355l3.556-4.5c8.369-10.776 18.092-17.362 23.948-19.038v-.624h-23.11v.624c2.611.204 4.082 1.987 4.082 4.501 0 4.18-2.094 7.638-6.488 13.28l-15.482 20.08c14.01 31.79 16.738 38.064 28.449 38.064 2.514 0 10.668 0 14.429-.419v-.614Z"/>
  <path fill="#EC9E9E" d="M151.353 74.922V25.974c0-7.736.419-12.967 7.531-12.967v-.624h-35.142v.624c7.112 0 7.531 5.231 7.531 12.967v48.948c0 7.736-.419 12.967-7.531 12.967v.624h35.142v-.624c-7.112 0-7.531-5.231-7.531-12.967ZM234.498 33.72h-16.105v.623c4.599.838 7.22 5.437 3.556 15.686l-5.543 15.686-8.886-22.38c-1.675-4.179-1.783-8.573 2.923-8.992v-.623h-29.179v.623c3.556.624 5.124 5.018 7.843 11.818l18.199 45.177-1.364 3.868c-4.287 12.13-10.045 11.711-20.08 2.514h-.623l-1.043 14.848c1.881.204 3.761.419 5.748.419 6.694 0 13.182-4.706 17.148-15.9l16.631-46.434c3.663-10.25 7.424-15.686 10.775-16.32v-.613ZM257.608 52.435l-4.18-2.192c-3.556-1.88-8.573-4.082-8.573-9.518 0-3.761 2.513-6.8 7.638-6.8 7.424 0 12.549 7.423 16.524 14.847h.623v-14.01c-4.394-1.461-11.399-2.3-15.578-2.3-11.507 0-21.025 6.49-21.025 18.2 0 10.873 8.262 14.956 12.022 16.943l4.18 2.192c6.8 3.556 11.292 5.65 11.292 10.873 0 5.018-4.18 7.638-9.207 7.638-9.304 0-14.01-9.411-18.618-17.78h-.624l.945 16.738c4.18 1.676 11.087 2.513 15.9 2.513 14.01 0 23.432-7.219 23.432-19.134 0-10.678-7.639-14.449-14.751-18.21ZM305.718 81.4c-4.082 0-6.489-2.299-6.489-7.316V38.942h12.237l1.988-5.232h-14.225V16.777h-.623c-6.694 10.873-13.601 15.267-22.594 19.768l-1.461.73v1.677h5.436v34.927c0 11.711 5.437 15.9 14.536 15.9 7.113 0 14.751-4.598 19.768-11.291l-.623-.42c-2.309 1.871-5.446 3.333-7.95 3.333Z"/>
  <path fill="#EC9E9E" d="M340.754 32.463c-16.943 0-27.611 13.386-27.611 29.706 0 14.429 8.057 27.61 24.999 27.61 12.237 0 18.716-7.004 23.325-15.374l-.624-.418c-3.244 4.598-8.262 6.8-13.494 6.8-10.775 0-14.643-9.412-14.955-25.516h29.063c.633-13.61-6.693-22.808-20.703-22.808Zm4.812 21.122h-13.181c0-9.304 1.149-19.66 7.95-19.66 5.855 0 6.167 7.638 5.231 19.66ZM420.234 77.64V48.772c0-10.463-4.082-16.319-14.01-16.319-7.317 0-13.912 4.706-18.823 9.723v-9.518h-.419l-24.162 4.598v.624c3.556 1.257 5.33 3.137 5.33 9.83v29.91c0 6.694-.312 10.25-4.599 10.25v.623H392v-.623c-4.287 0-4.599-3.556-4.599-10.25V43.424c2.3-.945 5.018-1.568 6.898-1.568 5.856 0 6.693 4.394 6.693 11.506v24.26c0 6.693-.311 10.249-4.598 10.249v.623h28.449v-.623c-4.297.02-4.609-3.537-4.609-10.23ZM452.649 52.435l-4.18-2.192c-3.556-1.88-8.573-4.082-8.573-9.518 0-3.761 2.513-6.8 7.638-6.8 7.424 0 12.549 7.423 16.524 14.847h.623v-14.01c-4.394-1.461-11.399-2.3-15.578-2.3-11.506 0-21.025 6.49-21.025 18.2 0 10.873 8.262 14.956 12.022 16.943l4.18 2.192c6.8 3.556 11.292 5.65 11.292 10.873 0 5.018-4.18 7.638-9.207 7.638-9.304 0-14.01-9.411-18.618-17.78h-.624l.945 16.738c4.18 1.676 11.087 2.513 15.9 2.513 14.01 0 23.432-7.219 23.432-19.134-.01-10.678-7.639-14.449-14.751-18.21ZM553.466 12.383h-19.875v.624c7.95 2.094 9.626 9.411 9.626 19.242v23.635l-29.804-43.51h-26.88v.623c5.018.838 9.207 4.18 9.207 12.763v38.698c0 14.01-2.095 22.594-9.207 23.422v.623h21.756v-.623c-7.112-.42-10.669-9.412-10.669-23.422V23.051l46.853 67.976h.624V32.248c0-9.83 1.257-18.822 8.369-19.241v-.624ZM605.746 32.463c-5.856 0-10.776 1.569-14.643 4.287-3.245-2.826-7.736-4.287-13.182-4.287-11.711 0-19.973 6.586-23.432 17.469l.624.311c2.718-5.231 8.057-9.83 14.536-9.83 9.723 0 9.723 10.454 9.723 13.387v5.329l-9.207 2.513c-12.11 3.342-17.751 8.681-17.751 16.622 0 7.112 5.544 11.506 12.968 11.506 9.207 0 14.75-5.856 17.673-11.292 3.663 6.693 10.035 11.292 20.08 11.292 12.237 0 18.716-7.005 23.324-15.374l-.624-.42c-3.244 4.6-8.261 6.801-13.493 6.801-10.776 0-14.644-9.411-14.955-25.516h29.072c.624-13.6-6.693-22.798-20.713-22.798Zm-30.222 49.776c-2.923 0-5.748-3.245-5.748-9.1 0-6.274 1.461-8.993 7.735-11.71l1.881-.839v1.569c0 5.33.945 10.454 2.923 14.75-1.666 2.826-3.966 5.33-6.791 5.33Zm35.035-28.654h-13.182c0-9.304 1.15-19.66 7.95-19.66 5.865 0 6.177 7.638 5.232 19.66ZM652.393 43.443V32.667h-.418l-24.163 4.599v.624c3.557 1.256 5.33 3.137 5.33 9.83v29.91c0 6.694-.312 10.25-4.599 10.25v.623h28.449v-.623c-4.287 0-4.599-3.556-4.599-10.25V44.797c1.676-.838 3.352-1.257 5.018-1.257 3.556 0 7.317 2.095 10.357 6.07h.623l3.663-16.319c-1.568-.526-3.03-.838-4.394-.838-5.855.01-10.668 4.404-15.267 10.99ZM686.795 26.812c5.436 0 9.937-4.501 9.937-10.142 0-5.437-4.501-9.938-9.937-9.938-5.651 0-10.143 4.501-10.143 9.938a10.086 10.086 0 0 0 10.143 10.142ZM696.733 77.64V32.667h-.419l-24.162 4.6v.623c3.556 1.256 5.33 3.137 5.33 9.83v29.91c0 6.694-.312 10.25-4.599 10.25v.623h28.449v-.623c-4.287.01-4.599-3.547-4.599-10.24ZM760.002 77.64V48.772c0-10.463-4.082-16.319-14.01-16.319-7.317 0-13.913 4.706-18.823 9.723v-9.518h-.419l-24.162 4.598v.624c3.556 1.257 5.329 3.137 5.329 9.83v29.91c0 6.694-.312 10.25-4.598 10.25v.623h28.448v-.623c-4.286 0-4.598-3.556-4.598-10.25V43.424c2.299-.945 5.017-1.568 6.898-1.568 5.855 0 6.693 4.394 6.693 11.506v24.26c0 6.693-.312 10.249-4.599 10.249v.623h28.449v-.623c-4.296.02-4.608-3.537-4.608-10.23ZM819.405 32.667l-17.469 2.095c-3.341-1.461-7.424-2.3-12.237-2.3-13.805 0-22.593 7.64-22.593 18.824 0 8.057 4.18 13.805 11.613 16.524-6.586 3.77-11.087 7.316-11.087 12.763 0 5.65 3.137 9.723 10.454 9.723h19.661c7.005 0 10.873 3.03 10.873 8.057 0 7.005-5.856 10.98-13.591 10.98-9.831 0-15.589-4.706-15.589-11.925 0-2.192.624-3.868 1.783-5.963h-.419l-1.987.312c-6.275 1.043-13.182 3.868-13.182 10.98 0 5.018 5.329 10.873 19.768 10.873 16.728 0 33.992-9.626 33.992-23.636 0-9.207-6.693-14.955-18.199-14.955h-18.823c-3.761 0-4.813-1.364-4.813-3.03 0-1.568.731-2.513 2.406-3.76 2.826.945 6.07 1.364 9.724 1.364 13.805 0 22.486-7.532 22.486-18.824 0-4.91-1.569-8.992-4.394-12.022l9.626 1.042 1.997-7.122Zm-29.706 35.454c-5.65 0-6.693-7.95-6.693-17.147s1.043-17.05 6.693-17.05c5.651 0 6.586 7.843 6.586 17.05s-.935 17.147-6.586 17.147ZM846.167 52.435l-4.18-2.192c-3.556-1.88-8.574-4.082-8.574-9.518 0-3.761 2.514-6.8 7.639-6.8 7.424 0 12.548 7.423 16.523 14.847h.624v-14.01c-4.394-1.461-11.399-2.3-15.579-2.3-11.506 0-21.025 6.49-21.025 18.2 0 10.873 8.262 14.956 12.023 16.943l4.18 2.192c6.8 3.556 11.291 5.65 11.291 10.873 0 5.018-4.179 7.638-9.206 7.638-9.305 0-14.011-9.411-18.619-17.78h-.623l.945 16.738c4.179 1.676 11.087 2.513 15.9 2.513 14.01 0 23.431-7.219 23.431-19.134 0-10.678-7.638-14.449-14.75-18.21ZM887.272 77.64V6.732h-.419l-24.162 3.76v.624c3.557 1.257 5.33 3.138 5.33 9.83V77.63c0 6.694-.312 10.25-4.599 10.25v.623h28.449v-.623c-4.287.01-4.599-3.547-4.599-10.24ZM907.761 26.812c5.437 0 9.938-4.501 9.938-10.142 0-5.437-4.501-9.938-9.938-9.938-5.65 0-10.142 4.501-10.142 9.938a10.092 10.092 0 0 0 10.142 10.142ZM917.7 77.64V32.667h-.419l-24.162 4.6v.623c3.556 1.256 5.329 3.137 5.329 9.83v29.91c0 6.694-.311 10.25-4.598 10.25v.623h28.449v-.623c-4.287.01-4.599-3.547-4.599-10.24ZM958.278 33.72v.623c4.599.838 7.531 5.33 3.556 15.686l-5.748 15.062-8.262-21.755c-1.783-4.599-1.783-8.574 2.933-8.993v-.623h-29.599v.623c3.556.624 5.125 5.018 7.843 11.818l18.092 44.866h.838l15.686-40.374c3.975-10.143 7.424-15.686 10.776-16.32v-.623h-16.115v.01ZM23.13.838H0v97.671h23.13V.838ZM57.551 49.678c0-19.417 14.04-32.073 14.127-32.141L56.587 0c-.907.78-22.175 19.417-22.175 49.678 0 30.261 21.269 48.9 22.175 49.679l15.14-17.479c-.136-.127-14.176-12.782-14.176-32.2Z"/>
</svg>
