<?xml version="1.0" encoding="UTF-8"?>
<svg width="178px" height="34px" viewBox="0 0 178 34" version="1.1" xmlns="http://www.w3.org/2000/svg" xmlns:xlink="http://www.w3.org/1999/xlink">
    <!-- Generator: sketchtool 58 (101010) - https://sketch.com -->
    <title>B309BDAE-0B39-4C40-AE4F-55E06DF6028B</title>
    <desc>Created with sketchtool.</desc>
    <g id="frontpage" stroke="none" stroke-width="1" fill="none" fill-rule="evenodd">
        <g id="XL---frontpage" transform="translate(-164.000000, -12.000000)">
            <g id="header-header-/-re-/-xl">
                <g id="logo-/-re" transform="translate(164.000000, 9.000000)">
                    <g id="RE-logo" transform="translate(0.000000, 3.000000)">
                        <g id="GlobalnewsandintelligencefortheEnergyTransition-2" transform="translate(1.000000, 27.000000)" fill="#323232" fill-rule="nonzero">
                            <path d="M4.5228833,2.70304302 L2.3777015,2.70304302 L2.3777015,3.28331584 L3.84782609,3.28331584 L3.84782609,3.34207765 C3.84782609,4.20146905 3.5553013,4.96537251 2.38520214,4.96537251 C1.20760234,4.96537251 0.727561658,3.98111228 0.727561658,2.93074502 C0.727561658,1.79223505 1.20760234,0.844700944 2.41520468,0.844700944 C3.27027714,0.844700944 3.6828121,1.2633788 3.86282736,1.8363064 L4.55288584,1.8363064 C4.40287312,0.925498426 3.64530892,0.279118573 2.43020595,0.279118573 C0.855072464,0.279118573 0,1.43231899 0,2.96012592 C0,4.41448059 0.795067379,5.53095488 2.30269514,5.53095488 C3.24777524,5.53095488 3.69781337,5.1343127 3.92283244,4.77439664 C3.93033308,5.14165792 3.95283499,5.36935992 3.99033816,5.46484785 L4.5228833,5.46484785 L4.5228833,2.70304302 Z M6.28553267,5.46484785 L6.28553267,0.073452256 L5.62547674,0.073452256 L5.62547674,5.46484785 L6.28553267,5.46484785 Z M8.92575642,1.65267576 C7.77815917,1.65267576 7.1331045,2.50472193 7.1331045,3.60650577 C7.1331045,4.73032529 7.79316044,5.55299056 8.88075261,5.55299056 C10.0433511,5.55299056 10.6734045,4.67156348 10.6734045,3.59181532 C10.6734045,2.42392445 9.98334605,1.65267576 8.92575642,1.65267576 Z M8.89575388,2.18887723 C9.60831426,2.18887723 9.99834732,2.76915005 9.99834732,3.60650577 C9.99834732,4.45120672 9.60081363,5.01678909 8.91075515,5.01678909 C8.2281973,5.01678909 7.80816171,4.42182581 7.80816171,3.59916055 C7.80816171,2.7544596 8.18319349,2.18887723 8.89575388,2.18887723 Z M11.528477,0.073452256 L11.528477,4.2161595 C11.528477,4.62749213 11.528477,5.04616999 11.5209764,5.46484785 L12.1510297,5.46484785 L12.1680712,5.30219517 C12.1756318,5.20453305 12.1810323,5.08730325 12.1810323,4.97271773 C12.3685482,5.33263379 12.6910755,5.55299056 13.298627,5.55299056 C14.3712179,5.55299056 14.9562675,4.65687303 14.9562675,3.52570829 C14.9562675,2.42392445 14.3562166,1.65267576 13.3961353,1.65267576 C12.7060768,1.65267576 12.3535469,1.95383001 12.1885329,2.26967471 L12.1885329,0.073452256 L11.528477,0.073452256 Z M14.2812103,3.54039874 C14.2812103,4.44386149 13.8836766,5.00944386 13.2086194,5.00944386 C12.4060514,5.00944386 12.1510297,4.39244491 12.1510297,3.613851 C12.1510297,2.7250787 12.4360539,2.19622246 13.2461226,2.19622246 C13.9061785,2.19622246 14.2812103,2.73242392 14.2812103,3.54039874 Z M18.0090098,4.98009235 L18.0095624,4.99555449 C18.0175566,5.2157526 18.0397127,5.38589224 18.0690313,5.46484785 L18.6990847,5.46484785 C18.6765828,5.35466946 18.6465802,4.99475341 18.6465802,4.64952781 L18.6465802,2.87198321 C18.6465802,2.02728227 18.1290364,1.65267576 17.1989575,1.65267576 C16.1038647,1.65267576 15.7813374,2.24029381 15.728833,2.7544596 L16.366387,2.7544596 C16.4338927,2.4679958 16.5464022,2.15949633 17.1764556,2.15949633 C17.889016,2.15949633 17.9940249,2.55613851 17.9940249,2.88667366 L17.9940249,3.20251836 L17.3489703,3.20251836 C16.2163743,3.20251836 15.5488177,3.58447009 15.5488177,4.41448059 C15.5488177,4.98006296 15.9313501,5.55299056 16.8314264,5.55299056 C17.566459,5.55299056 17.8739899,5.22248212 18.0090098,4.98009235 Z M18.0015256,3.65057712 L18.0015256,3.76810073 L17.9954432,4.00269346 C17.9622835,4.57724469 17.7738592,5.04616999 16.9664378,5.04616999 C16.4938978,5.04616999 16.2238749,4.76705142 16.2238749,4.37775446 C16.2238749,3.85624344 16.6289092,3.65057712 17.3864734,3.65057712 L18.0015256,3.65057712 Z M20.4392321,5.46484785 L20.4392321,0.073452256 L19.7791762,0.073452256 L19.7791762,5.46484785 L20.4392321,5.46484785 Z M23.4544877,5.46484785 L24.1145436,5.46484785 L24.1145436,3.49632739 C24.1145436,2.74711438 24.3995678,2.21091291 25.1196288,2.21091291 C25.6971777,2.21091291 25.9221968,2.58551941 25.9221968,3.15110178 L25.9221968,5.46484785 L26.5822527,5.46484785 L26.5822527,3.0703043 C26.5822527,2.07869885 26.0272057,1.65267576 25.3071447,1.65267576 C24.5720824,1.65267576 24.2645563,2.03462749 24.1145436,2.35047219 L24.1117656,2.16792973 C24.1078764,2.01177568 24.0995423,1.81427072 24.0845411,1.74081847 L23.446987,1.74081847 C23.4544877,2.02728227 23.4544877,2.35781742 23.4544877,2.68100735 L23.4544877,5.46484785 Z M30.7751081,3.71668416 C30.7826087,3.62119622 30.7826087,3.52570829 30.7826087,3.40818468 C30.7826087,2.61490031 30.385075,1.65267576 29.1549708,1.65267576 C27.9998729,1.65267576 27.4298246,2.53410283 27.4298246,3.6432319 C27.4298246,4.59811123 27.9173659,5.55299056 29.1099669,5.55299056 C30.1525553,5.55299056 30.5650903,4.91395593 30.715103,4.43651626 L30.0475464,4.43651626 C29.9275362,4.70828961 29.7325197,5.01678909 29.1324689,5.01678909 C28.4874142,5.01678909 28.0973811,4.47324239 28.0898805,3.71668416 L30.7751081,3.71668416 Z M28.1123824,3.26862539 C28.1798881,2.61490031 28.4724129,2.15949633 29.1474701,2.15949633 C29.7925248,2.15949633 30.1075515,2.65162644 30.1150521,3.26862539 L28.1123824,3.26862539 Z M31.2476481,1.74081847 L32.3502415,5.46484785 L33.0853038,5.46484785 L33.6366006,3.55325289 C33.782863,3.03357817 33.8841215,2.64795383 33.9178744,2.44596013 L33.925375,2.44596013 L33.969119,2.63593176 C34.0997648,3.1655627 34.4213546,4.27583945 34.7429443,5.46484785 L35.4555047,5.46484785 L36.6256039,1.74081847 L35.9580473,1.74081847 L35.2474315,4.29478061 C35.1888154,4.5140492 35.1504789,4.66421826 35.1179761,4.79643232 L35.1104755,4.79643232 L35.0691178,4.5991654 C34.979006,4.21371109 34.7716968,3.49755159 34.2779049,1.74081847 L33.6328502,1.74081847 L32.9157287,4.2325109 C32.8325054,4.53574802 32.7801464,4.74269619 32.7552759,4.86988458 L32.7477752,4.86988458 L32.6664881,4.49607195 C32.5419879,3.97635948 32.2990607,3.07764953 31.9377066,1.74081847 L31.2476481,1.74081847 Z M37.0381388,4.39979014 C37.1356471,5.06820567 37.6231884,5.55299056 38.6057717,5.55299056 C39.5508518,5.55299056 40.0833969,5.07555089 40.0833969,4.42182581 C40.0833969,3.9033393 39.8774279,3.54100872 38.8901836,3.27359647 L38.6957793,3.22455404 C37.9982202,3.06295908 37.8407068,2.92339979 37.8407068,2.64428122 C37.8407068,2.40188877 38.0057208,2.1521511 38.538266,2.1521511 C39.1158149,2.1521511 39.3033308,2.49003148 39.3633359,2.7250787 L39.9933893,2.7250787 C39.9483855,2.21091291 39.5433511,1.65267576 38.5607679,1.65267576 C37.5856852,1.65267576 37.1881515,2.17418678 37.1881515,2.6956978 C37.1881515,3.17084208 37.3859222,3.49104801 38.3067919,3.74104749 L38.5007628,3.79013641 C39.2283244,3.9590766 39.4008391,4.12067156 39.4008391,4.47324239 C39.4008391,4.81112277 39.1833206,5.04616999 38.6282736,5.04616999 C38.1107297,5.04616999 37.8032037,4.80377754 37.6981948,4.39979014 L37.0381388,4.39979014 Z M45.0187988,4.98009235 L45.0193514,4.99555449 C45.0273456,5.2157526 45.0495016,5.38589224 45.0788202,5.46484785 L45.7088736,5.46484785 C45.6863717,5.35466946 45.6563692,4.99475341 45.6563692,4.64952781 L45.6563692,2.87198321 C45.6563692,2.02728227 45.1388253,1.65267576 44.2087465,1.65267576 C43.1136537,1.65267576 42.7911264,2.24029381 42.7386219,2.7544596 L43.3761759,2.7544596 C43.4436817,2.4679958 43.5561912,2.15949633 44.1862446,2.15949633 C44.898805,2.15949633 45.0038139,2.55613851 45.0038139,2.88667366 L45.0038139,3.20251836 L44.3587592,3.20251836 C43.2261632,3.20251836 42.5586067,3.58447009 42.5586067,4.41448059 C42.5586067,4.98006296 42.9411391,5.55299056 43.8412154,5.55299056 C44.5762479,5.55299056 44.8837789,5.22248212 45.0187988,4.98009235 Z M45.0113145,3.65057712 L45.0113145,3.76810073 L45.0052322,4.00269346 C44.9720724,4.57724469 44.7836482,5.04616999 43.9762268,5.04616999 C43.5036868,5.04616999 43.2336639,4.76705142 43.2336639,4.37775446 C43.2336639,3.85624344 43.6386982,3.65057712 44.3962624,3.65057712 L45.0113145,3.65057712 Z M46.7889652,5.46484785 L47.4490211,5.46484785 L47.4490211,3.49632739 C47.4490211,2.74711438 47.7340453,2.21091291 48.4541063,2.21091291 C49.0316552,2.21091291 49.2566743,2.58551941 49.2566743,3.15110178 L49.2566743,5.46484785 L49.9167302,5.46484785 L49.9167302,3.0703043 C49.9167302,2.07869885 49.3616832,1.65267576 48.6416222,1.65267576 C47.9065599,1.65267576 47.5990338,2.03462749 47.4490211,2.35047219 L47.442458,2.04564533 C47.4377702,1.9207765 47.4302695,1.79590766 47.4190186,1.74081847 L46.7814645,1.74081847 L46.7889652,2.68100735 L46.7889652,2.68100735 L46.7889652,5.46484785 Z M53.5395372,0.073452256 L53.5395372,2.13011542 C53.442029,1.91710388 53.1420036,1.65267576 52.4669464,1.65267576 C51.4168574,1.65267576 50.7643021,2.49737671 50.7643021,3.6432319 C50.7643021,4.77439664 51.3643529,5.55299056 52.3469362,5.55299056 C52.9694889,5.55299056 53.3520214,5.32528856 53.5395372,4.93599161 C53.5395372,5.08289612 53.5545385,5.36935992 53.5770404,5.46484785 L54.2070938,5.46484785 L54.2005308,4.9341553 L54.2005308,4.9341553 L54.1995932,0.073452256 L53.5395372,0.073452256 Z M51.4468599,3.62119622 C51.4468599,2.71773347 51.8593949,2.19622246 52.5344521,2.19622246 C53.3895245,2.19622246 53.5695398,2.71773347 53.5695398,3.54774397 C53.5695398,4.36306401 53.3670226,5.00944386 52.4819476,5.00944386 C51.8818968,5.00944386 51.4468599,4.51731375 51.4468599,3.62119622 Z M57.2148487,5.46484785 L57.8749047,5.46484785 L57.8749047,1.74081847 L57.2148487,1.74081847 L57.2148487,5.46484785 Z M57.8749047,0.874081847 L57.8749047,0.073452256 L57.2148487,0.073452256 L57.2148487,0.874081847 L57.8749047,0.874081847 Z M58.9924994,5.46484785 L59.6525553,5.46484785 L59.6525553,3.49632739 C59.6525553,2.74711438 59.9375795,2.21091291 60.6576405,2.21091291 C61.2351894,2.21091291 61.4602085,2.58551941 61.4602085,3.15110178 L61.4602085,5.46484785 L62.1202644,5.46484785 L62.1202644,3.0703043 C62.1202644,2.07869885 61.5652174,1.65267576 60.8451564,1.65267576 C60.1100941,1.65267576 59.802568,2.03462749 59.6525553,2.35047219 L59.6459922,2.04564533 C59.6413043,1.9207765 59.6338037,1.79590766 59.6225528,1.74081847 L58.9849987,1.74081847 L58.9924994,2.68100735 L58.9924994,2.68100735 L58.9924994,5.46484785 Z M62.7503178,2.26232949 L63.4103738,2.26232949 L63.4103738,4.59811123 C63.4103738,5.21511018 63.6653954,5.51626443 64.2579456,5.51626443 C64.4454615,5.51626443 64.6704805,5.5089192 64.8279939,5.4501574 L64.8279939,4.96537251 C64.722985,4.98740818 64.5879736,4.99475341 64.4979659,4.99475341 C64.1529367,4.99475341 64.0629291,4.81112277 64.0629291,4.44386149 L64.0629291,2.26232949 L64.9030003,2.26232949 L64.9030003,1.74081847 L64.0629291,1.74081847 L64.0629291,0.639034627 L63.4103738,0.639034627 L63.4103738,1.74081847 L62.7503178,1.74081847 L62.7503178,2.26232949 Z M66.020595,3.71668416 L68.7058225,3.71668416 L68.7130454,3.5191792 C68.7133232,3.48408534 68.7133232,3.44735922 68.7133232,3.40818468 C68.7133232,2.61490031 68.3157895,1.65267576 67.0856852,1.65267576 C65.9305873,1.65267576 65.360539,2.53410283 65.360539,3.6432319 C65.360539,4.59811123 65.8480803,5.55299056 67.0406814,5.55299056 C68.0832698,5.55299056 68.4958047,4.91395593 68.6458174,4.43651626 L67.9782609,4.43651626 C67.8582507,4.70828961 67.6632342,5.01678909 67.0631833,5.01678909 C66.4181287,5.01678909 66.0280956,4.47324239 66.020595,3.71668416 Z M66.0430969,3.26862539 C66.1106026,2.61490031 66.4031274,2.15949633 67.0781846,2.15949633 C67.7232393,2.15949633 68.038266,2.65162644 68.0457666,3.26862539 L66.0430969,3.26862539 Z M70.2134503,5.46484785 L70.2134503,0.073452256 L69.5533944,0.073452256 L69.5533944,5.46484785 L70.2134503,5.46484785 Z M71.9911009,5.46484785 L71.9911009,0.073452256 L71.331045,0.073452256 L71.331045,5.46484785 L71.9911009,5.46484785 Z M73.1086957,5.46484785 L73.7687516,5.46484785 L73.7687516,1.74081847 L73.1086957,1.74081847 L73.1086957,5.46484785 Z M73.7687516,0.874081847 L73.7687516,0.073452256 L73.1086957,0.073452256 L73.1086957,0.874081847 L73.7687516,0.874081847 Z M78.021612,5.12696747 L78.0245641,2.31019123 C78.0266634,2.08019787 78.0291126,1.86253935 78.0291126,1.74081847 L77.4140605,1.74081847 L77.3826178,2.12394544 C77.3801576,2.16214061 77.3780575,2.19916055 77.3765573,2.23294858 C77.2940503,1.98321091 76.9865243,1.65267576 76.2589626,1.65267576 C75.3438851,1.65267576 74.6163234,2.39454355 74.6163234,3.60650577 C74.6163234,4.70094439 75.2538774,5.4501574 76.1914569,5.4501574 C76.8290109,5.4501574 77.1740402,5.20776495 77.3765573,4.79643232 L77.3765573,5.09758657 C77.3765573,5.94963274 77.1665395,6.48583421 76.3039664,6.48583421 C75.8164251,6.48583421 75.4788965,6.27282267 75.366387,5.86149003 L74.6988304,5.86149003 C74.7663361,6.3683106 75.118866,7 76.2739639,7 C77.5190694,7 78.021612,6.32423924 78.021612,5.12696747 Z M75.2988813,3.57712487 C75.2988813,2.77649528 75.6589118,2.19622246 76.3639715,2.19622246 C77.1740402,2.19622246 77.3990592,2.6956978 77.3990592,3.53305352 C77.3990592,4.35571878 77.1590389,4.89926548 76.3414696,4.89926548 C75.7189169,4.89926548 75.2988813,4.36306401 75.2988813,3.57712487 Z M79.5292398,3.71668416 L82.2144673,3.71668416 L82.2216902,3.5191792 C82.221968,3.48408534 82.221968,3.44735922 82.221968,3.40818468 C82.221968,2.61490031 81.8244343,1.65267576 80.59433,1.65267576 C79.4392321,1.65267576 78.8691838,2.53410283 78.8691838,3.6432319 C78.8691838,4.59811123 79.3567251,5.55299056 80.5493262,5.55299056 C81.5919146,5.55299056 82.0044495,4.91395593 82.1544622,4.43651626 L81.4869057,4.43651626 C81.3668955,4.70828961 81.171879,5.01678909 80.5718281,5.01678909 C79.9267735,5.01678909 79.5367404,4.47324239 79.5292398,3.71668416 Z M79.5517417,3.26862539 C79.6192474,2.61490031 79.9117722,2.15949633 80.5868294,2.15949633 C81.2318841,2.15949633 81.5469108,2.65162644 81.5544114,3.26862539 L79.5517417,3.26862539 Z M83.0620392,5.46484785 L83.7220951,5.46484785 L83.7220951,3.49632739 C83.7220951,2.74711438 84.0071192,2.21091291 84.7271803,2.21091291 C85.3047292,2.21091291 85.5297483,2.58551941 85.5297483,3.15110178 L85.5297483,5.46484785 L86.1898042,5.46484785 L86.1898042,3.0703043 C86.1898042,2.07869885 85.6347572,1.65267576 84.9146962,1.65267576 C84.1796339,1.65267576 83.8721078,2.03462749 83.7220951,2.35047219 L83.715532,2.04564533 C83.7108441,1.9207765 83.7033435,1.79590766 83.6920926,1.74081847 L83.0545385,1.74081847 L83.0620392,2.68100735 L83.0620392,2.68100735 L83.0620392,5.46484785 Z M89.6550979,4.32633788 C89.4975845,4.76705142 89.220061,5.01678909 88.747521,5.01678909 C88.087465,5.01678909 87.7199339,4.45120672 87.7199339,3.59916055 C87.7199339,2.7544596 88.1024663,2.18887723 88.7700229,2.18887723 C89.3250699,2.18887723 89.5650903,2.51941238 89.6550979,2.89401889 L90.3076532,2.89401889 C90.2626494,2.41657922 89.880117,1.65267576 88.7850242,1.65267576 C87.6524282,1.65267576 87.0448767,2.57082896 87.0448767,3.62119622 C87.0448767,4.818468 87.6899314,5.55299056 88.7400203,5.55299056 C89.7076023,5.55299056 90.1501398,4.96537251 90.3076532,4.32633788 L89.6550979,4.32633788 Z M91.4927536,3.71668416 L94.1779812,3.71668416 L94.185204,3.5191792 C94.1854818,3.48408534 94.1854818,3.44735922 94.1854818,3.40818468 C94.1854818,2.61490031 93.7879481,1.65267576 92.5578439,1.65267576 C91.402746,1.65267576 90.8326977,2.53410283 90.8326977,3.6432319 C90.8326977,4.59811123 91.320239,5.55299056 92.5128401,5.55299056 C93.5554284,5.55299056 93.9679634,4.91395593 94.1179761,4.43651626 L93.4504195,4.43651626 C93.3304094,4.70828961 93.1353928,5.01678909 92.535342,5.01678909 C91.8902873,5.01678909 91.5002543,4.47324239 91.4927536,3.71668416 Z M91.5152555,3.26862539 C91.5827613,2.61490031 91.875286,2.15949633 92.5503432,2.15949633 C93.1953979,2.15949633 93.5104246,2.65162644 93.5179252,3.26862539 L91.5152555,3.26862539 Z M97.6957793,5.46484785 L97.6957793,2.26232949 L98.4608441,2.26232949 L98.4608441,1.74081847 L97.6957793,1.74081847 L97.6957793,1.33683106 C97.6957793,0.793284365 97.845792,0.558237146 98.2358251,0.558237146 C98.3333333,0.558237146 98.4758454,0.572927597 98.565853,0.594963274 L98.565853,0.0440713536 C98.4758454,0.0146904512 98.2883295,0 98.1458174,0 C97.3057462,0 97.0357234,0.609653725 97.0357234,1.29275971 L97.0357234,1.74081847 L96.4281719,1.74081847 L96.4281719,2.26232949 L97.0357234,2.26232949 L97.0357234,5.46484785 L97.6957793,5.46484785 Z M100.568523,1.65267576 C99.4209255,1.65267576 98.7758708,2.50472193 98.7758708,3.60650577 C98.7758708,4.73032529 99.4359268,5.55299056 100.523519,5.55299056 C101.686117,5.55299056 102.316171,4.67156348 102.316171,3.59181532 C102.316171,2.42392445 101.626112,1.65267576 100.568523,1.65267576 Z M100.53852,2.18887723 C101.251081,2.18887723 101.641114,2.76915005 101.641114,3.60650577 C101.641114,4.45120672 101.24358,5.01678909 100.553521,5.01678909 C99.8709636,5.01678909 99.450928,4.42182581 99.450928,3.59916055 C99.450928,2.7544596 99.8259598,2.18887723 100.53852,2.18887723 Z M103.171243,5.46484785 L103.831299,5.46484785 L103.831299,3.65792235 C103.831299,2.71773347 104.326341,2.31374607 105.106407,2.29171039 L105.106407,1.65267576 C104.476354,1.66736621 104.026316,1.99790136 103.831299,2.49737671 L103.82815,2.2079791 C103.823339,1.98515965 103.814155,1.81427072 103.808797,1.74081847 L103.163743,1.74081847 L103.171243,2.7544596 L103.171243,2.7544596 L103.171243,5.46484785 Z M107.221587,2.26232949 L107.881643,2.26232949 L107.881643,4.59811123 C107.881643,5.21511018 108.136664,5.51626443 108.729214,5.51626443 C108.91673,5.51626443 109.141749,5.5089192 109.299263,5.4501574 L109.299263,4.96537251 C109.194254,4.98740818 109.059242,4.99475341 108.969235,4.99475341 C108.624205,4.99475341 108.534198,4.81112277 108.534198,4.44386149 L108.534198,2.26232949 L109.374269,2.26232949 L109.374269,1.74081847 L108.534198,1.74081847 L108.534198,0.639034627 L107.881643,0.639034627 L107.881643,1.74081847 L107.221587,1.74081847 L107.221587,2.26232949 Z M110.101831,0.073452256 L110.101831,5.46484785 L110.761887,5.46484785 L110.761887,3.43022036 C110.761887,2.65162644 111.061912,2.21091291 111.74447,2.21091291 C112.299517,2.21091291 112.56954,2.56348374 112.56954,3.19517314 L112.56954,5.46484785 L113.229596,5.46484785 L113.229596,3.08499475 C113.229596,1.97586569 112.554539,1.65267576 111.946987,1.65267576 C111.301932,1.65267576 110.949402,1.96117524 110.761887,2.29171039 L110.761887,0.073452256 L110.101831,0.073452256 Z M114.737223,3.71668416 L117.422451,3.71668416 L117.429674,3.5191792 C117.429952,3.48408534 117.429952,3.44735922 117.429952,3.40818468 C117.429952,2.61490031 117.032418,1.65267576 115.802314,1.65267576 C114.647216,1.65267576 114.077168,2.53410283 114.077168,3.6432319 C114.077168,4.59811123 114.564709,5.55299056 115.75731,5.55299056 C116.799898,5.55299056 117.212433,4.91395593 117.362446,4.43651626 L116.694889,4.43651626 C116.574879,4.70828961 116.379863,5.01678909 115.779812,5.01678909 C115.134757,5.01678909 114.744724,4.47324239 114.737223,3.71668416 Z M114.759725,3.26862539 C114.827231,2.61490031 115.119756,2.15949633 115.794813,2.15949633 C116.439868,2.15949633 116.754894,2.65162644 116.762395,3.26862539 L114.759725,3.26862539 Z M123.565472,2.49737671 L120.970252,2.49737671 L120.970252,0.932843652 L123.692982,0.932843652 L123.692982,0.352570829 L120.295195,0.352570829 L120.295195,5.46484785 L123.730486,5.46484785 L123.820493,4.88457503 L120.970252,4.88457503 L120.970252,3.07764953 L123.565472,3.07764953 L123.565472,2.49737671 Z M124.645563,5.46484785 L125.305619,5.46484785 L125.305619,3.49632739 C125.305619,2.74711438 125.590643,2.21091291 126.310704,2.21091291 C126.888253,2.21091291 127.113272,2.58551941 127.113272,3.15110178 L127.113272,5.46484785 L127.773328,5.46484785 L127.773328,3.0703043 C127.773328,2.07869885 127.218281,1.65267576 126.49822,1.65267576 C125.763158,1.65267576 125.455632,2.03462749 125.305619,2.35047219 L125.299056,2.04564533 C125.294368,1.9207765 125.286868,1.79590766 125.275617,1.74081847 L124.638063,1.74081847 L124.645563,2.68100735 L124.645563,2.68100735 L124.645563,5.46484785 Z M129.280956,3.71668416 L131.966184,3.71668416 L131.973406,3.5191792 C131.973684,3.48408534 131.973684,3.44735922 131.973684,3.40818468 C131.973684,2.61490031 131.576151,1.65267576 130.346046,1.65267576 C129.190948,1.65267576 128.6209,2.53410283 128.6209,3.6432319 C128.6209,4.59811123 129.108441,5.55299056 130.301042,5.55299056 C131.343631,5.55299056 131.756166,4.91395593 131.906178,4.43651626 L131.238622,4.43651626 C131.118612,4.70828961 130.923595,5.01678909 130.323544,5.01678909 C129.67849,5.01678909 129.288457,4.47324239 129.280956,3.71668416 Z M129.303458,3.26862539 C129.370964,2.61490031 129.663488,2.15949633 130.338546,2.15949633 C130.9836,2.15949633 131.298627,2.65162644 131.306128,3.26862539 L129.303458,3.26862539 Z M132.813755,5.46484785 L133.473811,5.46484785 L133.473811,3.65792235 C133.473811,2.71773347 133.968853,2.31374607 134.748919,2.29171039 L134.748919,1.65267576 C134.118866,1.66736621 133.668828,1.99790136 133.473811,2.49737671 L133.470662,2.2079791 C133.465851,1.98515965 133.456667,1.81427072 133.451309,1.74081847 L132.806255,1.74081847 L132.813755,2.7544596 L132.813755,2.7544596 L132.813755,5.46484785 Z M138.589245,5.12696747 L138.592197,2.31019123 C138.594296,2.08019787 138.596745,1.86253935 138.596745,1.74081847 L137.981693,1.74081847 L137.950251,2.12394544 C137.94779,2.16214061 137.94569,2.19916055 137.94419,2.23294858 C137.861683,1.98321091 137.554157,1.65267576 136.826595,1.65267576 C135.911518,1.65267576 135.183956,2.39454355 135.183956,3.60650577 C135.183956,4.70094439 135.82151,5.4501574 136.75909,5.4501574 C137.396644,5.4501574 137.741673,5.20776495 137.94419,4.79643232 L137.94419,5.09758657 C137.94419,5.94963274 137.734172,6.48583421 136.871599,6.48583421 C136.384058,6.48583421 136.046529,6.27282267 135.93402,5.86149003 L135.266463,5.86149003 C135.333969,6.3683106 135.686499,7 136.841597,7 C138.086702,7 138.589245,6.32423924 138.589245,5.12696747 Z M135.866514,3.57712487 C135.866514,2.77649528 136.226545,2.19622246 136.931604,2.19622246 C137.741673,2.19622246 137.966692,2.6956978 137.966692,3.53305352 C137.966692,4.35571878 137.726672,4.89926548 136.909102,4.89926548 C136.28655,4.89926548 135.866514,4.36306401 135.866514,3.57712487 Z M139.219298,1.74081847 L140.644419,5.61175236 C140.4194,6.22875131 140.239385,6.43441763 139.759344,6.43441763 C139.654335,6.43441763 139.541826,6.4270724 139.444317,6.41972718 L139.444317,6.97796432 C139.59433,6.99265477 139.736842,7 139.856852,7 C140.629418,7 140.921943,6.72822665 141.304475,5.63378804 L142.669591,1.74081847 L142.009535,1.74081847 L141.225928,4.13812382 C141.116959,4.48293809 141.044953,4.72151102 140.996949,4.89192025 L140.989448,4.89192025 L140.884501,4.54587851 C140.720722,4.03298227 140.410233,3.12906611 139.931859,1.74081847 L139.219298,1.74081847 Z M146.389906,5.46484785 L147.087465,5.46484785 L147.087465,0.932843652 L148.775108,0.932843652 L148.775108,0.352570829 L144.709764,0.352570829 L144.709764,0.932843652 L146.389906,0.932843652 L146.389906,5.46484785 Z M149.397661,5.46484785 L150.057717,5.46484785 L150.057717,3.65792235 C150.057717,2.71773347 150.552759,2.31374607 151.332825,2.29171039 L151.332825,1.65267576 C150.702771,1.66736621 150.252733,1.99790136 150.057717,2.49737671 L150.054568,2.2079791 C150.049757,1.98515965 150.040572,1.81427072 150.035215,1.74081847 L149.39016,1.74081847 L149.397661,2.7544596 L149.397661,2.7544596 L149.397661,5.46484785 Z M154.235554,4.98009235 L154.236107,4.99555449 C154.244101,5.2157526 154.266257,5.38589224 154.295576,5.46484785 L154.925629,5.46484785 C154.903127,5.35466946 154.873125,4.99475341 154.873125,4.64952781 L154.873125,2.87198321 C154.873125,2.02728227 154.355581,1.65267576 153.425502,1.65267576 C152.330409,1.65267576 152.007882,2.24029381 151.955378,2.7544596 L152.592932,2.7544596 C152.660437,2.4679958 152.772947,2.15949633 153.403,2.15949633 C154.115561,2.15949633 154.22057,2.55613851 154.22057,2.88667366 L154.22057,3.20251836 L153.575515,3.20251836 C152.442919,3.20251836 151.775362,3.58447009 151.775362,4.41448059 C151.775362,4.98006296 152.157895,5.55299056 153.057971,5.55299056 C153.793004,5.55299056 154.100535,5.22248212 154.235554,4.98009235 Z M154.22807,3.65057712 L154.22807,3.76810073 L154.221988,4.00269346 C154.188828,4.57724469 154.000404,5.04616999 153.192982,5.04616999 C152.720442,5.04616999 152.45042,4.76705142 152.45042,4.37775446 C152.45042,3.85624344 152.855454,3.65057712 153.613018,3.65057712 L154.22807,3.65057712 Z M156.005721,5.46484785 L156.665777,5.46484785 L156.665777,3.49632739 C156.665777,2.74711438 156.950801,2.21091291 157.670862,2.21091291 C158.248411,2.21091291 158.47343,2.58551941 158.47343,3.15110178 L158.47343,5.46484785 L159.133486,5.46484785 L159.133486,3.0703043 C159.133486,2.07869885 158.578439,1.65267576 157.858378,1.65267576 C157.123316,1.65267576 156.815789,2.03462749 156.665777,2.35047219 L156.659214,2.04564533 C156.654526,1.9207765 156.647025,1.79590766 156.635774,1.74081847 L155.99822,1.74081847 L156.005721,2.68100735 L156.005721,2.68100735 L156.005721,5.46484785 Z M159.913552,4.39979014 C160.01106,5.06820567 160.498602,5.55299056 161.481185,5.55299056 C162.426265,5.55299056 162.95881,5.07555089 162.95881,4.42182581 C162.95881,3.9033393 162.752841,3.54100872 161.765597,3.27359647 L161.571192,3.22455404 C160.873633,3.06295908 160.71612,2.92339979 160.71612,2.64428122 C160.71612,2.40188877 160.881134,2.1521511 161.413679,2.1521511 C161.991228,2.1521511 162.178744,2.49003148 162.238749,2.7250787 L162.868802,2.7250787 C162.823799,2.21091291 162.418764,1.65267576 161.436181,1.65267576 C160.461098,1.65267576 160.063565,2.17418678 160.063565,2.6956978 C160.063565,3.17084208 160.261335,3.49104801 161.182205,3.74104749 L161.376176,3.79013641 C162.103738,3.9590766 162.276252,4.12067156 162.276252,4.47324239 C162.276252,4.81112277 162.058734,5.04616999 161.503687,5.04616999 C160.986143,5.04616999 160.678617,4.80377754 160.573608,4.39979014 L159.913552,4.39979014 Z M163.798881,5.46484785 L164.458937,5.46484785 L164.458937,1.74081847 L163.798881,1.74081847 L163.798881,5.46484785 Z M164.458937,0.874081847 L164.458937,0.073452256 L163.798881,0.073452256 L163.798881,0.874081847 L164.458937,0.874081847 Z M165.088991,2.26232949 L165.749047,2.26232949 L165.749047,4.59811123 C165.749047,5.21511018 166.004068,5.51626443 166.596618,5.51626443 C166.784134,5.51626443 167.009153,5.5089192 167.166667,5.4501574 L167.166667,4.96537251 C167.061658,4.98740818 166.926646,4.99475341 166.836639,4.99475341 C166.491609,4.99475341 166.401602,4.81112277 166.401602,4.44386149 L166.401602,2.26232949 L167.241673,2.26232949 L167.241673,1.74081847 L166.401602,1.74081847 L166.401602,0.639034627 L165.749047,0.639034627 L165.749047,1.74081847 L165.088991,1.74081847 L165.088991,2.26232949 Z M167.969235,5.46484785 L168.629291,5.46484785 L168.629291,1.74081847 L167.969235,1.74081847 L167.969235,5.46484785 Z M168.629291,0.874081847 L168.629291,0.073452256 L167.969235,0.073452256 L167.969235,0.874081847 L168.629291,0.874081847 Z M171.269514,1.65267576 C170.121917,1.65267576 169.476862,2.50472193 169.476862,3.60650577 C169.476862,4.73032529 170.136918,5.55299056 171.224511,5.55299056 C172.387109,5.55299056 173.017162,4.67156348 173.017162,3.59181532 C173.017162,2.42392445 172.327104,1.65267576 171.269514,1.65267576 Z M171.239512,2.18887723 C171.952072,2.18887723 172.342105,2.76915005 172.342105,3.60650577 C172.342105,4.45120672 171.944572,5.01678909 171.254513,5.01678909 C170.571955,5.01678909 170.15192,4.42182581 170.15192,3.59916055 C170.15192,2.7544596 170.526951,2.18887723 171.239512,2.18887723 Z M174.532291,5.46484785 L173.872235,5.46484785 L173.872235,2.68100735 C173.872235,2.35781742 173.872235,2.02728227 173.864734,1.74081847 L174.502288,1.74081847 C174.52479,1.85099685 174.532291,2.24029381 174.532291,2.35047219 C174.682304,2.03462749 174.98983,1.65267576 175.724892,1.65267576 C176.444953,1.65267576 177,2.07869885 177,3.0703043 L177,5.46484785 L176.339944,5.46484785 L176.339944,3.15110178 C176.339944,2.58551941 176.114925,2.21091291 175.537376,2.21091291 C174.817315,2.21091291 174.532291,2.74711438 174.532291,3.49632739 L174.532291,5.46484785 Z" id="GlobalnewsandintelligencefortheEnergyTransition"></path>
                        </g>
                        <g id="Group-2">
                            <polygon id="Path" fill="#336633" points="158.601858 23.2203579 177.393808 23.2203579 177.393808 17.8618138 164.994427 17.8618138 164.994427 14.289451 176.071207 14.289451 176.071207 9.30979385 164.994427 9.30979385 164.994427 5.84568451 177.228483 5.84568451 177.228483 0.487140376 158.601858 0.487140376"></polygon>
                            <path d="M147.304644,23.7074983 C150.996904,23.7074983 154.523839,22.5167107 157.334365,20.1892623 L157.334365,9.95931435 L146.698452,9.95931435 L146.698452,14.5600846 L151.272446,14.5600846 L151.272446,17.3205467 C150.170279,17.9700672 148.847678,18.2948275 147.580186,18.2407007 C143.887926,18.2407007 141.297833,15.588492 141.297833,11.9620026 L141.297833,11.9078759 C141.297833,8.44376652 143.887926,5.68330439 147.249536,5.68330439 C149.343653,5.68330439 151.327554,6.44107831 152.81548,7.84837273 L156.562848,3.40998263 C154.13808,1.35316771 151.217337,0.108253417 147.194427,0.108253417 C140.030341,0.108253417 134.739938,5.30441743 134.739938,11.9620026 L134.739938,11.9620026 C134.739938,18.7819678 140.140557,23.6533716 147.304644,23.7074983" id="Path" fill="#336633"></path>
                            <path d="M129.284211,15.3178585 C132.149845,14.1270709 134.023529,11.7996224 134.023529,8.3355131 L134.023529,8.28138639 C134.023529,6.06219135 133.307121,4.27600997 131.98452,2.97696896 C130.441486,1.40729442 127.96161,0.487140376 124.434675,0.487140376 L113.52322,0.487140376 L113.52322,23.2203579 L119.915789,23.2203579 L119.915789,16.346266 L122.726316,16.346266 L127.410526,23.2203579 L134.795046,23.2203579 L129.284211,15.3178585 Z M127.63096,8.71440006 C127.63096,10.392328 126.363467,11.4207355 124.214241,11.4207355 L119.970898,11.4207355 L119.970898,5.95393793 L124.159133,5.95393793 C126.308359,5.95393793 127.63096,6.87409197 127.63096,8.66027335 L127.63096,8.71440006 L127.63096,8.71440006 Z" id="Shape" fill="#336633"></path>
                            <path d="M102.556656,0.324760251 L96.3845201,0.324760251 L86.5201238,23.2203579 L93.2433437,23.2203579 L94.8965944,19.1608548 L103.824149,19.1608548 L105.532508,23.2203579 L112.421053,23.2203579 L102.556656,0.324760251 Z M96.825387,14.289451 L99.4154799,7.79424602 L102.005573,14.289451 L96.825387,14.289451 Z" id="Shape" fill="#336633"></path>
                            <polygon id="Path" fill="#336633" points="64.5318885 23.2203579 70.9795666 23.2203579 70.9795666 14.6142113 79.1907121 14.6142113 79.1907121 23.2203579 85.6383901 23.2203579 85.6383901 0.487140376 79.1907121 0.487140376 79.1907121 9.03916031 70.9795666 9.03916031 70.9795666 0.487140376 64.5318885 0.487140376"></polygon>
                            <path d="M53.5102167,23.7074983 C58.6352941,23.7074983 61.6111455,21.54243 63.7603715,18.565461 L58.9659443,15.2096051 C57.5882353,16.887533 56.155418,17.9700672 53.7306502,17.9700672 C50.479257,17.9700672 48.2198142,15.3178585 48.2198142,11.9078759 L48.2198142,11.8537492 C48.2198142,8.55201994 50.479257,5.84568451 53.7306502,5.84568451 C55.9349845,5.84568451 57.4780186,6.87409197 58.8006192,8.49789323 L63.6501548,4.81727705 C61.5560372,2.05681492 58.5250774,0.108253417 53.7857585,0.108253417 C46.7869969,0.108253417 41.5517028,5.30441743 41.5517028,11.9620026 L41.5517028,11.9078759 C41.4414861,18.2948275 46.5665635,23.5451182 53.0693498,23.7074983 C53.2346749,23.7074983 53.4,23.7074983 53.5102167,23.7074983" id="Path" fill="#336633"></path>
                            <polygon id="Path" fill="#323232" points="22.5944272 23.2203579 41.4414861 23.2203579 41.4414861 17.8618138 28.9869969 17.8618138 28.9869969 14.289451 40.1188854 14.289451 40.1188854 9.30979385 28.9869969 9.30979385 28.9869969 5.84568451 41.2210526 5.84568451 41.2210526 0.487140376 22.5944272 0.487140376"></polygon>
                            <path d="M16.0916409,15.3178585 C18.9572755,14.1270709 20.8309598,11.7996224 20.8309598,8.3355131 L20.8309598,8.28138639 C20.8309598,6.06219135 20.1145511,4.27600997 18.7919505,2.97696896 C17.2489164,1.40729442 14.7690402,0.487140376 11.2421053,0.487140376 L0.330650155,0.487140376 L0.330650155,23.2203579 L6.72321981,23.2203579 L6.72321981,16.346266 L9.53374613,16.346266 L14.2179567,23.2203579 L21.6575851,23.2203579 L16.0916409,15.3178585 Z M14.4383901,8.71440006 C14.4383901,10.392328 13.1708978,11.4207355 11.0216718,11.4207355 L6.77832817,11.4207355 L6.77832817,5.95393793 L10.9665635,5.95393793 C13.1157895,5.95393793 14.4383901,6.87409197 14.4383901,8.66027335 L14.4383901,8.71440006 Z" id="Shape" fill="#323232"></path>
                        </g>
                    </g>
                </g>
            </g>
        </g>
    </g>
</svg>
