<svg xmlns="http://www.w3.org/2000/svg" viewBox="0 0 178 34">
  <title>Recharge</title>
  <g fill="none" fill-rule="evenodd">
    <path fill="#323232" fill-rule="nonzero" d="M5.523 29.703H3.378v.58h1.47v.06c0 .858-.293 1.622-1.463 1.622-1.177 0-1.657-.984-1.657-2.034 0-1.139.48-2.086 1.687-2.086.855 0 1.268.418 1.448.991h.69c-.15-.91-.908-1.557-2.123-1.557C1.855 27.28 1 28.432 1 29.96c0 1.454.795 2.571 2.303 2.571.945 0 1.395-.397 1.62-.757.007.368.03.595.067.69h.533v-2.761Zm1.763 2.762v-5.392h-.66v5.392h.66Zm2.64-3.812c-1.148 0-1.793.852-1.793 1.954 0 1.123.66 1.946 1.748 1.946 1.162 0 1.792-.881 1.792-1.961 0-1.168-.69-1.94-1.747-1.94Zm-.03.536c.712 0 1.102.58 1.102 1.418 0 .844-.397 1.41-1.087 1.41-.683 0-1.103-.595-1.103-1.418 0-.845.375-1.41 1.088-1.41Zm2.632-2.116v4.143c0 .411 0 .83-.007 1.249h.63l.017-.163c.008-.097.013-.215.013-.33.188.36.51.581 1.118.581 1.072 0 1.657-.896 1.657-2.027 0-1.102-.6-1.873-1.56-1.873-.69 0-1.042.3-1.207.617v-2.197h-.66Zm2.753 3.467c0 .904-.397 1.47-1.072 1.47-.803 0-1.058-.618-1.058-1.396 0-.889.285-1.418 1.095-1.418.66 0 1.035.536 1.035 1.344Zm3.728 1.44v.016c.009.22.03.39.06.469h.63a5.66 5.66 0 0 1-.052-.815v-1.778c0-.845-.518-1.22-1.448-1.22-1.095 0-1.418.588-1.47 1.102h.637c.068-.286.18-.595.81-.595.713 0 .818.397.818.728v.316h-.645c-1.133 0-1.8.381-1.8 1.211 0 .566.382 1.139 1.282 1.139.735 0 1.043-.33 1.178-.573Zm-.007-1.33v.118l-.007.235c-.033.574-.221 1.043-1.029 1.043-.472 0-.742-.279-.742-.668 0-.522.405-.727 1.162-.727h.616Zm2.437 1.815v-5.392h-.66v5.392h.66Zm3.015 0h.66v-1.969c0-.749.286-1.285 1.006-1.285.577 0 .802.375.802.94v2.314h.66V30.07c0-.991-.555-1.417-1.275-1.417-.735 0-1.042.382-1.192.697l-.003-.182a3.66 3.66 0 0 0-.027-.427h-.638c.007.286.007.617.007.94v2.784Zm7.321-1.748c.008-.096.008-.191.008-.309 0-.793-.398-1.755-1.628-1.755-1.155 0-1.725.881-1.725 1.99 0 .955.487 1.91 1.68 1.91 1.043 0 1.455-.639 1.605-1.116h-.667c-.12.271-.315.58-.916.58-.645 0-1.035-.544-1.042-1.3h2.685Zm-2.663-.448c.068-.654.36-1.11 1.035-1.11.646 0 .96.493.968 1.11h-2.003Zm3.136-1.528 1.102 3.724h.735l.552-1.912c.146-.52.247-.905.28-1.107h.008l.044.19c.13.53.452 1.64.774 2.829h.713l1.17-3.724h-.668l-.71 2.554c-.06.219-.098.37-.13.501h-.008l-.04-.197c-.091-.385-.298-1.101-.792-2.858h-.645l-.717 2.492c-.083.303-.136.51-.16.637h-.008l-.082-.374c-.124-.52-.367-1.418-.728-2.755h-.69Zm5.79 2.659c.098.668.585 1.153 1.568 1.153.945 0 1.477-.477 1.477-1.131 0-.519-.206-.881-1.193-1.148l-.194-.05c-.698-.161-.855-.3-.855-.58 0-.242.165-.492.697-.492.578 0 .765.338.825.573h.63c-.045-.514-.45-1.072-1.432-1.072-.975 0-1.373.521-1.373 1.043 0 .475.198.795 1.119 1.045l.194.05c.727.168.9.33.9.682 0 .338-.218.573-.773.573-.517 0-.825-.242-.93-.646h-.66Zm7.98.58.001.016c.008.22.03.39.06.469h.63a5.66 5.66 0 0 1-.053-.815v-1.778c0-.845-.517-1.22-1.447-1.22-1.095 0-1.418.588-1.47 1.102h.637c.068-.286.18-.595.81-.595.713 0 .818.397.818.728v.316h-.645c-1.133 0-1.8.381-1.8 1.211 0 .566.382 1.139 1.282 1.139.735 0 1.043-.33 1.178-.573Zm-.007-1.33v.118l-.006.235c-.033.574-.221 1.043-1.029 1.043-.472 0-.742-.279-.742-.668 0-.522.405-.727 1.162-.727h.615Zm1.778 1.815h.66v-1.969c0-.749.285-1.285 1.005-1.285.578 0 .803.375.803.94v2.314h.66V30.07c0-.991-.555-1.417-1.275-1.417-.735 0-1.043.382-1.193.697l-.007-.304a2.547 2.547 0 0 0-.023-.305h-.638l.008.94v2.784Zm6.75-5.392v2.057c-.097-.213-.397-.477-1.072-.477-1.05 0-1.703.844-1.703 1.99 0 1.131.6 1.91 1.583 1.91.622 0 1.005-.228 1.193-.617 0 .147.015.433.037.529h.63l-.006-.53-.001-4.862h-.66Zm-2.092 3.548c0-.903.412-1.425 1.087-1.425.856 0 1.036.522 1.036 1.352 0 .815-.203 1.461-1.088 1.461-.6 0-1.035-.492-1.035-1.388Zm5.768 1.844h.66V28.74h-.66v3.724Zm.66-4.59v-.802h-.66v.801h.66Zm1.117 4.59h.66v-1.969c0-.749.286-1.285 1.006-1.285.577 0 .802.375.802.94v2.314h.66V30.07c0-.991-.555-1.417-1.275-1.417-.735 0-1.042.382-1.192.697l-.007-.304a2.547 2.547 0 0 0-.023-.305h-.638l.007.94v2.784Zm3.758-3.203h.66v2.336c0 .617.255.918.848.918.187 0 .412-.007.57-.066v-.485c-.105.022-.24.03-.33.03-.345 0-.435-.184-.435-.551v-2.182h.84v-.521h-.84v-1.102h-.653v1.102h-.66v.521Zm3.27 1.455h2.686l.007-.198v-.11c0-.794-.397-1.756-1.627-1.756-1.155 0-1.725.881-1.725 1.99 0 .955.487 1.91 1.68 1.91 1.042 0 1.455-.639 1.605-1.116h-.668c-.12.271-.315.58-.915.58-.645 0-1.035-.544-1.042-1.3Zm.023-.448c.068-.654.36-1.11 1.035-1.11.645 0 .96.493.968 1.11h-2.003Zm4.17 2.196v-5.392h-.66v5.392h.66Zm1.778 0v-5.392h-.66v5.392h.66Zm1.118 0h.66V28.74h-.66v3.724Zm.66-4.59v-.802h-.66v.801h.66Zm4.253 4.252.003-2.817.004-.57h-.615l-.031.384a5.56 5.56 0 0 0-.006.109c-.083-.25-.39-.58-1.118-.58-.915 0-1.643.742-1.643 1.954 0 1.094.638 1.843 1.575 1.843.638 0 .983-.242 1.186-.654v.302c0 .852-.21 1.388-1.073 1.388-.488 0-.825-.213-.938-.625H75.7c.067.507.42 1.139 1.575 1.139 1.245 0 1.748-.676 1.748-1.873Zm-2.723-1.55c0-.8.36-1.38 1.065-1.38.81 0 1.035.499 1.035 1.336 0 .823-.24 1.366-1.058 1.366-.622 0-1.042-.536-1.042-1.322Zm4.23.14h2.685l.008-.198v-.11c0-.794-.398-1.756-1.628-1.756-1.155 0-1.725.881-1.725 1.99 0 .955.488 1.91 1.68 1.91 1.043 0 1.455-.639 1.605-1.116h-.667c-.12.271-.315.58-.915.58-.645 0-1.035-.544-1.043-1.3Zm.023-.448c.067-.654.36-1.11 1.035-1.11.645 0 .96.493.967 1.11h-2.002Zm3.51 2.196h.66v-1.969c0-.749.285-1.285 1.005-1.285.578 0 .803.375.803.94v2.314h.66V30.07c0-.991-.555-1.417-1.275-1.417-.735 0-1.043.382-1.193.697l-.006-.304a2.547 2.547 0 0 0-.024-.305h-.637l.007.94v2.784Zm6.593-1.139c-.157.441-.435.69-.907.69-.66 0-1.028-.565-1.028-1.417 0-.845.382-1.41 1.05-1.41.555 0 .795.33.885.705h.653c-.045-.477-.428-1.241-1.523-1.241-1.133 0-1.74.918-1.74 1.968 0 1.197.645 1.932 1.695 1.932.968 0 1.41-.588 1.568-1.227h-.653Zm1.838-.61h2.685l.007-.197v-.11c0-.794-.397-1.756-1.627-1.756-1.155 0-1.725.881-1.725 1.99 0 .955.487 1.91 1.68 1.91 1.042 0 1.455-.639 1.605-1.116h-.668c-.12.271-.315.58-.915.58-.645 0-1.035-.544-1.042-1.3Zm.022-.447c.068-.654.36-1.11 1.035-1.11.645 0 .96.493.968 1.11h-2.003Zm6.18 2.196v-3.203h.766v-.521h-.765v-.404c0-.544.15-.779.54-.779.097 0 .24.015.33.037v-.55a1.707 1.707 0 0 0-.42-.045c-.84 0-1.11.61-1.11 1.293v.448h-.608v.521h.608v3.203h.66Zm2.874-3.812c-1.148 0-1.793.852-1.793 1.954 0 1.123.66 1.946 1.748 1.946 1.162 0 1.792-.881 1.792-1.961 0-1.168-.69-1.94-1.747-1.94Zm-.03.536c.712 0 1.102.58 1.102 1.418 0 .844-.397 1.41-1.087 1.41-.683 0-1.103-.595-1.103-1.418 0-.845.375-1.41 1.088-1.41Zm2.632 3.276h.66v-1.807c0-.94.495-1.344 1.275-1.366v-.64c-.63.015-1.08.346-1.275.845l-.003-.289a10.21 10.21 0 0 0-.02-.467h-.644l.007 1.013v2.71Zm4.05-3.203h.66v2.336c0 .617.256.918.848.918.188 0 .413-.007.57-.066v-.485c-.105.022-.24.03-.33.03-.345 0-.435-.184-.435-.551v-2.182h.84v-.521h-.84v-1.102h-.652v1.102h-.66v.521Zm2.88-2.189v5.392h.66V30.43c0-.778.3-1.22.983-1.22.556 0 .826.353.826.985v2.27h.66v-2.38c0-1.11-.675-1.432-1.283-1.432-.645 0-.998.308-1.185.639v-2.219h-.66Zm4.636 3.644h2.685l.008-.198v-.11c0-.794-.398-1.756-1.628-1.756-1.155 0-1.725.881-1.725 1.99 0 .955.488 1.91 1.68 1.91 1.043 0 1.455-.639 1.605-1.116h-.667c-.12.271-.315.58-.915.58-.645 0-1.035-.544-1.043-1.3Zm.023-.448c.067-.654.36-1.11 1.035-1.11.645 0 .96.493.967 1.11h-2.002Zm8.805-.772h-2.595v-1.564h2.723v-.58h-3.398v5.112h3.435l.09-.58h-2.85v-1.807h2.595v-.58Zm1.08 2.968h.66v-1.969c0-.749.286-1.285 1.006-1.285.577 0 .802.375.802.94v2.314h.66V30.07c0-.991-.555-1.417-1.275-1.417-.735 0-1.042.382-1.192.697l-.007-.304a2.547 2.547 0 0 0-.023-.305h-.638l.008.94v2.784Zm4.636-1.748h2.685l.007-.198v-.11c0-.794-.397-1.756-1.627-1.756-1.155 0-1.725.881-1.725 1.99 0 .955.487 1.91 1.68 1.91 1.043 0 1.455-.639 1.605-1.116h-.667c-.12.271-.315.58-.915.58-.646 0-1.036-.544-1.043-1.3Zm.022-.448c.068-.654.36-1.11 1.036-1.11.645 0 .96.493.967 1.11h-2.003Zm3.51 2.196h.66v-1.807c0-.94.496-1.344 1.276-1.366v-.64c-.63.015-1.08.346-1.275.845l-.003-.289a10.21 10.21 0 0 0-.02-.467h-.645l.008 1.013v2.71Zm5.776-.338.003-2.817c.002-.23.005-.447.005-.57h-.615l-.032.384a5.553 5.553 0 0 0-.006.109c-.082-.25-.39-.58-1.117-.58-.915 0-1.643.742-1.643 1.954 0 1.094.638 1.843 1.575 1.843.638 0 .983-.242 1.185-.654v.302c0 .852-.21 1.388-1.072 1.388-.488 0-.825-.213-.938-.625h-.668c.068.507.42 1.139 1.576 1.139 1.245 0 1.747-.676 1.747-1.873Zm-2.722-1.55c0-.8.36-1.38 1.065-1.38.81 0 1.035.499 1.035 1.336 0 .823-.24 1.366-1.058 1.366-.622 0-1.042-.536-1.042-1.322Zm3.352-1.836 1.425 3.87c-.225.618-.405.823-.885.823-.105 0-.217-.007-.315-.014v.558c.15.015.293.022.413.022.772 0 1.065-.272 1.447-1.366l1.366-3.893h-.66l-.784 2.397c-.109.345-.181.584-.23.754h-.007l-.104-.346c-.164-.513-.475-1.417-.953-2.805h-.713Zm7.17 3.724h.698v-4.532h1.688v-.58h-4.065v.58h1.68v4.532Zm3.009 0h.66v-1.807c0-.94.495-1.344 1.275-1.366v-.64c-.63.015-1.08.346-1.275.845l-.003-.289a10.212 10.212 0 0 0-.02-.467h-.645l.008 1.013v2.71Zm4.838-.485v.016c.008.22.03.39.06.469h.63a5.66 5.66 0 0 1-.053-.815v-1.778c0-.845-.517-1.22-1.447-1.22-1.096 0-1.418.588-1.47 1.102h.637c.067-.286.18-.595.81-.595.713 0 .818.397.818.728v.316h-.645c-1.133 0-1.8.381-1.8 1.211 0 .566.382 1.139 1.282 1.139.735 0 1.043-.33 1.178-.573Zm-.008-1.33v.118l-.006.235c-.033.574-.222 1.043-1.029 1.043-.473 0-.743-.279-.743-.668 0-.522.405-.727 1.163-.727h.615Zm1.778 1.815h.66v-1.969c0-.749.285-1.285 1.005-1.285.577 0 .802.375.802.94v2.314h.66V30.07c0-.991-.555-1.417-1.275-1.417-.735 0-1.042.382-1.192.697l-.007-.304a2.547 2.547 0 0 0-.023-.305h-.638l.008.94v2.784Zm3.908-1.065c.097.668.585 1.153 1.567 1.153.945 0 1.478-.477 1.478-1.131 0-.519-.206-.881-1.193-1.148l-.195-.05c-.697-.161-.855-.3-.855-.58 0-.242.165-.492.698-.492.577 0 .765.338.825.573h.63c-.045-.514-.45-1.072-1.433-1.072-.975 0-1.372.521-1.372 1.043 0 .475.197.795 1.118 1.045l.194.05c.728.168.9.33.9.682 0 .338-.217.573-.772.573-.518 0-.825-.242-.93-.646h-.66Zm3.885 1.065h.66V28.74h-.66v3.724Zm.66-4.59v-.802h-.66v.801h.66Zm.63 1.387h.66v2.336c0 .617.255.918.848.918.187 0 .412-.007.57-.066v-.485c-.105.022-.24.03-.33.03-.345 0-.435-.184-.435-.551v-2.182h.84v-.521h-.84v-1.102h-.653v1.102h-.66v.521Zm2.88 3.203h.66V28.74h-.66v3.724Zm.66-4.59v-.802h-.66v.801h.66Zm2.64.778c-1.147 0-1.792.852-1.792 1.954 0 1.123.66 1.946 1.748 1.946 1.162 0 1.792-.881 1.792-1.961 0-1.168-.69-1.94-1.747-1.94Zm-.03.536c.713 0 1.103.58 1.103 1.418 0 .844-.397 1.41-1.087 1.41-.683 0-1.103-.595-1.103-1.418 0-.845.375-1.41 1.088-1.41Zm3.293 3.276h-.66V29.68c0-.323 0-.654-.007-.94h.637c.023.11.03.5.03.61.15-.316.458-.698 1.193-.698.72 0 1.275.426 1.275 1.417v2.395h-.66V30.15c0-.565-.225-.94-.803-.94-.72 0-1.005.536-1.005 1.285v1.969Z"/>
    <path fill="#363" d="M158.602 23.22h18.792v-5.358h-12.4v-3.573h11.077V9.31h-11.077V5.846h12.234V.487h-18.626zM147.305 23.707c3.692 0 7.219-1.19 10.03-3.518V9.96h-10.637v4.601h4.574v2.76a6.814 6.814 0 0 1-3.692.92c-3.692 0-6.282-2.652-6.282-6.278v-.054c0-3.464 2.59-6.225 5.952-6.225 2.094 0 4.078.758 5.565 2.165l3.748-4.438c-2.425-2.057-5.346-3.302-9.369-3.302-7.164 0-12.454 5.196-12.454 11.854 0 6.82 5.4 11.691 12.565 11.745M129.284 15.318c2.866-1.19 4.74-3.518 4.74-6.982V8.28c0-2.219-.717-4.005-2.04-5.304-1.543-1.57-4.022-2.49-7.55-2.49h-10.91V23.22h6.392v-6.874h2.81l4.685 6.874h7.384l-5.51-7.902Zm-1.653-6.604c0 1.678-1.268 2.707-3.417 2.707h-4.243V5.954h4.188c2.15 0 3.472.92 3.472 2.706v.054ZM102.557.325h-6.172L86.52 23.22h6.723l1.654-4.06h8.927l1.709 4.06h6.888L102.557.325Zm-5.732 13.964 2.59-6.495 2.59 6.495h-5.18ZM64.532 23.22h6.448v-8.606h8.211v8.606h6.447V.487h-6.447v8.552H70.98V.487h-6.448zM53.51 23.707c5.125 0 8.101-2.165 10.25-5.142l-4.794-3.355c-1.378 1.678-2.81 2.76-5.235 2.76-3.252 0-5.511-2.652-5.511-6.062v-.054c0-3.302 2.26-6.008 5.51-6.008 2.205 0 3.748 1.028 5.07 2.652l4.85-3.68c-2.094-2.761-5.125-4.71-9.864-4.71-6.999 0-12.234 5.196-12.234 11.854v-.054c-.11 6.387 5.015 11.637 11.517 11.8h.441"/>
    <path fill="#323232" d="M22.594 23.22h18.847v-5.358H28.987v-3.573h11.132V9.31H28.987V5.846h12.234V.487H22.594zM16.092 15.318c2.865-1.19 4.739-3.518 4.739-6.982V8.28c0-2.219-.716-4.005-2.039-5.304-1.543-1.57-4.023-2.49-7.55-2.49H.331V23.22h6.392v-6.874h2.81l4.685 6.874h7.44l-5.566-7.902Zm-1.654-6.604c0 1.678-1.267 2.707-3.416 2.707H6.778V5.954h4.189c2.149 0 3.471.92 3.471 2.706v.054Z"/>
  </g>
</svg>
