<svg xmlns="http://www.w3.org/2000/svg" viewBox="0 0 210 51">
  <title>TradeWinds</title>
    <path fill="var(--color-header-logo-primary)" d="M21.124 28.754H5.799v-1.041c3.136-.248 4.16-.333 4.16-3.835V1.92c-3 .146-7.42.332-8.27 7.027H.434L.563.563h25.752l.084 8.384h-1.244c-.856-6.695-5.281-6.88-8.265-7.05v21.959c0 3.541 1.03 3.626 4.206 3.834l.028 1.064Z"/>
    <path fill="var(--color-header-logo-primary)" d="M36.556 28.754H25.144v-1.002c1.373-.248 2.32-.417 2.32-2.5V12.99c0-2.083-1.031-2.291-2.32-2.46v-.997h8.107v3.294h.084c.901-1.295 2.815-3.795 5.63-3.795 2.917 0 3.564 2.252 3.564 3.254a2.635 2.635 0 0 1-2.747 2.816c-2.489 0-2.444-2.46-3.823-2.46-.642 0-2.534.917-2.534 3.94v7.883c0 2.545.513 3.17 3.136 3.294l-.005.996ZM54.668 18.254c-.986.202-5.236 1.373-5.236 4.892 0 1.256.641 2.714 2.19 2.714 1.458 0 2.449-1.092 3.046-1.74v-5.866Zm8.388 8.175a6.34 6.34 0 0 1-4.723 2.308c-3.007 0-3.35-1.689-3.604-2.815a10.01 10.01 0 0 1-6.823 2.815c-2.06 0-4.724-1.255-4.724-4.33 0-4.205 5.45-5.827 11.547-7.567v-2.956c0-2.06-.602-3.558-3.777-3.558-1.543 0-2.534.81-2.534 1.458 0 .85 1.29 1.171 1.29 2.754 0 .726-.642 2.252-2.877 2.252-.518 0-2.815 0-2.815-2.754 0-2.55 2.702-5.016 8.028-5.016 4.763 0 8.586 1.74 8.586 5.54v10.574a.878.878 0 0 0 .946 1.013c.159.009.314-.05.427-.163l.428-.405.625.85ZM76.298 13.637c0-.04-.946-2.528-3.35-2.528-3.046 0-3.648 3.665-3.648 7.618 0 2.359 0 7.657 3.434 7.657 1.976 0 3.564-2.404 3.564-2.85v-9.897Zm8.496 13.642c-5.32.614-5.709.653-8.372 1.346v-2.647c-1.543 1.549-2.747 2.686-5.968 2.686-3.564 0-7.51-3.423-7.51-9.369 0-7.088 4.25-10.467 8.281-10.467 2.573 0 4.037 1.464 5.067 2.528V3.902c0-2.157-.9-2.202-3.26-2.365V.563h9.228v23.422c0 1.126.085 2.252 2.534 2.36v.934ZM96.425 16.745c-.045-1.25-.045-3.379-.388-4.567-.259-.89-.816-1.897-2.32-1.897-1.587 0-3.045.89-3.045 6.464h5.753Zm5.478 6.902c-2.617 3.756-5.067 5.068-8.495 5.068-4.335 0-8.716-2.99-8.716-9.898 0-5.98 3.908-9.775 8.84-9.775 7.47 0 8.028 7.027 8.152 9.212H90.89c.13 3.434 1.075 7.555 5.152 7.555 2.533 0 4.036-1.779 4.853-2.708l1.007.546ZM138.955 1.582c-1.504.124-2.45 1.126-2.962 2.613l-8.585 24.582h-1.16l-7.207-19.11h-.298l-7.831 19.11h-1.183l-9.104-24.582c-.731-1.96-1.16-2.37-2.96-2.613V.563h12.616v1.02c-1.543.123-2.747.202-2.747 1.688.016.463.117.92.298 1.346l5.106 14.74h.085l5.022-12.454-1.503-3.941c-.563-.901-1.03-1.346-3.091-1.43V.562h13.388v1.02c-1.847.123-3.091.162-3.091 1.553.114.771.316 1.527.602 2.252l4.578 13.586h.084l4.791-13.907c.2-.54.3-1.112.299-1.689 0-1.689-1.504-1.689-2.962-1.796V.563h7.815v1.02ZM143.205.467a3.265 3.265 0 0 1 3.305 3.243 3.327 3.327 0 0 1-6.649 0 3.271 3.271 0 0 1 3.35-3.243h-.006Zm5.017 28.248h-10.253v-1.002c1.543-.372 2.252-.502 2.252-2.495V12.995c0-1.87-.641-2.162-2.252-2.455v-.968h8.243v15.765c0 1.289.343 2.207 2.015 2.37l-.005 1.008ZM171.907 28.754h-10.083v-1.002c1.413-.124 2.015-.833 2.015-2.376v-10.09c0-1.17-.045-3.462-2.359-3.462-1.689 0-3.563 2.044-3.563 2.42v11.132c0 .957.13 2.168 2.1 2.376v1.002h-10.331v-1.002c1.542-.293 2.252-.462 2.252-2.5V12.99c0-1.875-.563-2.213-2.252-2.46v-.997h8.191v3.001h.085a7.032 7.032 0 0 1 6.091-3.524c2.36 0 5.749 1.295 5.749 5.878v10.489c0 1.002 0 2.292 2.105 2.376v1.002ZM185.926 13.67c0-.039-.946-2.533-3.35-2.533-3.046 0-3.648 3.676-3.648 7.635 0 2.364 0 7.674 3.434 7.674 1.976 0 3.564-2.41 3.564-2.86V13.67Zm8.501 13.677c-5.32.613-5.709.653-8.372 1.345V26.04c-1.548 1.549-2.747 2.675-5.967 2.675-3.564 0-7.51-3.43-7.51-9.392 0-7.105 4.25-10.489 8.281-10.489 2.573 0 4.037 1.47 5.067 2.534V3.913c0-2.162-.9-2.207-3.26-2.37v-.98h9.228v23.473c0 1.126.084 2.286 2.533 2.37v.94ZM207.9 14.977c-.9-2.872-2.877-4.612-5.32-4.612-1.543 0-2.748 1.053-2.748 2.309 0 4.127 10.044 3.198 10.044 9.83 0 3.846-2.747 6.233-6.756 6.233-2.145 0-5.067-1.17-5.45-1.17s-.732.326-1.16 1.125h-1.07v-6.677h1.206c.259 1.092 1.289 5.343 6.052 5.343 2.145 0 3.046-1.458 3.046-2.669 0-3.722-10.213-3.48-10.213-9.712 0-3.559 2.877-5.946 6.823-5.946 2.016 0 3.778.89 4.595.89a1.03 1.03 0 0 0 1.07-.811h.945v5.867H207.9Z"/>
    <path fill="var(--color-header-logo-primary)" d="M3.891 47.222v-9.315H.56v-.999h7.797v.999H5.04v9.315H3.891Zm5.887 0V36.894h1.063v4.325h.043a2.599 2.599 0 0 1 2.326-1.417c1.537 0 2.312 1.012 2.312 2.4v5.02h-1.077v-4.614c0-1.288-.603-1.866-1.565-1.866-1.091 0-2.039.824-2.039 2.198v4.282H9.778Zm10.526.188c-1.767 0-3.102-.954-3.102-2.95v-1.534c0-1.996 1.35-3.11 3.087-3.11 1.594 0 2.858.97 2.858 2.85v1.142h-4.84v.753c0 1.186.805 1.923 2.068 1.923.833 0 1.436-.433 1.824-.925l.818.492c-.646 1.012-1.68 1.36-2.713 1.36Zm-1.996-4.354h3.776v-.42c0-1.099-.646-1.923-1.852-1.923-1.163 0-1.924.868-1.924 2.025v.318ZM32.12 47.41c-2.183 0-3.92-1.2-3.92-3.457v-3.587c0-2.2 1.651-3.66 3.877-3.66 2.039 0 3.661 1.128 3.661 3.038v.491h-1.105v-.347c0-1.388-1.077-2.14-2.585-2.14-1.493 0-2.7.954-2.7 2.603v3.472c0 1.562 1.164 2.546 2.772 2.546 1.493 0 2.556-.81 2.556-2.199v-1.157h-2.814V41.97h3.92v2.344c0 1.953-1.551 3.095-3.662 3.095Zm7.323-.101c-1.378 0-1.651-1.027-1.651-1.866v-8.549h1.077v8.592c0 .507.273.897.933.897.287 0 .531-.043.79-.072v.824a4.026 4.026 0 0 1-1.149.174Zm5.255.101c-1.766 0-3.044-.969-3.044-2.806v-1.88c0-1.91 1.379-2.908 3.001-2.908 1.78 0 3.03 1.056 3.03 2.893v1.78c0 1.894-1.35 2.921-2.987 2.921Zm0-.926c1.192 0 1.896-.65 1.896-1.952v-1.924c0-1.1-.646-1.88-1.939-1.88-1.191 0-1.924.708-1.924 1.938v1.91c0 1.142.69 1.908 1.967 1.908Zm7.884.926c-.89 0-1.78-.52-2.097-1.345h-.043v1.157h-1.02V36.908h1.063v4.239h.043c.488-.97 1.45-1.345 2.226-1.345 1.536 0 2.613.983 2.613 2.589v2.213c0 1.953-1.364 2.806-2.785 2.806Zm-.115-.926c.876 0 1.809-.535 1.809-1.779v-2.314c0-.97-.704-1.664-1.838-1.664-.919 0-1.953.81-1.953 2.199v1.504c0 1.259.92 2.054 1.982 2.054Zm6.648.897c-1.35 0-2.398-.766-2.398-2.112 0-1.576 1.421-2.184 2.67-2.184h2.054v-1.012c0-1.042-.69-1.418-1.723-1.418-.847 0-1.709.304-1.709 1.128v.246h-.976v-.217c0-1.475 1.378-2.01 2.728-2.01 1.45 0 2.757.506 2.757 2.14v3.515c0 .405.057 1.476.1 1.765h-1.048c-.028-.217-.057-.839-.072-1.027h-.028c-.603.998-1.465 1.186-2.355 1.186Zm.287-.853c1.436 0 2.04-.81 2.04-1.953v-.694h-1.868c-.919 0-1.794.246-1.794 1.33 0 .883.746 1.317 1.622 1.317Zm6.763.781c-1.378 0-1.651-1.027-1.651-1.866v-8.549h1.077v8.592c0 .507.273.897.933.897.287 0 .531-.043.79-.072v.824a4.026 4.026 0 0 1-1.149.174Zm9.29.087c-1.866 0-3.36-.854-3.833-2.474l1.062-.39c.402 1.157 1.436 1.837 2.829 1.837 1.35 0 2.44-.666 2.44-1.852 0-1.1-.674-1.548-1.579-1.837l-1.938-.55c-1.436-.405-2.269-1.157-2.269-2.632 0-1.707 1.436-2.778 3.288-2.778 1.58 0 2.9.593 3.432 1.953l-1.005.405c-.445-.882-1.278-1.374-2.44-1.374-1.05 0-2.126.535-2.126 1.692 0 .81.488 1.375 1.694 1.736l1.953.55c1.206.333 2.125 1.085 2.125 2.72 0 1.764-1.45 2.994-3.633 2.994Zm5.285-.174V36.894h1.062v4.325h.043a2.599 2.599 0 0 1 2.326-1.417c1.537 0 2.312 1.012 2.312 2.4v5.02h-1.077v-4.614c0-1.288-.603-1.866-1.565-1.866-1.091 0-2.039.824-2.039 2.198v4.282h-1.062Zm7.768 0v-7.261h1.062v7.261H88.51Zm0-8.737v-1.577h1.062v1.577H88.51Zm3.159 11.543V39.961h1.034v1.186h.028c.517-.955 1.494-1.345 2.269-1.345 1.536 0 2.613.969 2.613 2.574v2.228c0 1.953-1.335 2.806-2.742 2.806-.905 0-1.78-.52-2.097-1.345h-.043v3.963h-1.062Zm3.044-3.544c.876 0 1.809-.535 1.809-1.779V42.42c0-.97-.704-1.693-1.838-1.693-.919 0-1.953.767-1.953 2.156v1.547c0 1.259.92 2.054 1.982 2.054Zm4.652 3.544V39.961h1.034v1.186h.029c.517-.955 1.493-1.345 2.268-1.345 1.537 0 2.614.969 2.614 2.574v2.228c0 1.953-1.336 2.806-2.743 2.806-.904 0-1.78-.52-2.096-1.345h-.043v3.963h-1.063Zm3.044-3.544c.876 0 1.81-.535 1.81-1.779V42.42c0-.97-.704-1.693-1.839-1.693-.918 0-1.952.767-1.952 2.156v1.547c0 1.259.919 2.054 1.981 2.054Zm4.653.738v-7.261h1.062v7.261h-1.062Zm0-8.737v-1.577h1.062v1.577h-1.062Zm3.158 8.737v-7.261h1.034v1.258h.03a2.631 2.631 0 0 1 2.368-1.417c1.537 0 2.312 1.012 2.312 2.4v5.02h-1.077v-4.614c0-1.288-.603-1.866-1.565-1.866-1.091 0-2.039.824-2.039 2.198v4.282h-1.063Zm10.195 2.951c-1.062 0-2.125-.434-2.627-1.374l.976-.42c.43.637 1.005.926 1.738.926 1.249 0 2.024-.81 2.024-2.097v-1.389c-.488.94-1.364 1.316-2.24 1.316-1.637 0-2.628-.983-2.628-2.574v-1.968c0-1.866 1.307-2.791 2.671-2.791.804 0 1.824.419 2.197 1.36V39.96h1.034v7.102c0 1.693-1.034 3.11-3.145 3.11Zm.173-3.905c.933 0 1.938-.637 1.938-2.127v-1.446c0-1.259-.976-1.968-1.967-1.968-.876 0-1.81.536-1.81 1.794v2.054c0 .97.676 1.693 1.839 1.693Zm8.586.954V36.894h1.163l5.285 8.303h.028v-8.303h1.106v10.328h-1.134l-5.328-8.419h-.028v8.42h-1.092Zm12.507.188c-1.766 0-3.102-.954-3.102-2.95v-1.534c0-1.996 1.35-3.11 3.088-3.11 1.593 0 2.857.97 2.857 2.85v1.142h-4.839v.753c0 1.186.804 1.923 2.068 1.923.833 0 1.436-.433 1.823-.925l.819.492c-.646 1.012-1.68 1.36-2.714 1.36Zm-1.996-4.354h3.777v-.42c0-1.099-.647-1.923-1.853-1.923-1.163 0-1.924.868-1.924 2.025v.318Zm8.07 4.195-2.255-7.29h1.12l1.695 5.901h.014l1.795-5.901h.99l1.724 5.887h.029l1.723-5.887h1.12l-2.312 7.29h-1.063l-1.723-5.887h-.028l-1.767 5.887h-1.062Zm11.688.145c-1.177 0-2.254-.318-2.93-1.157l.733-.608c.574.593 1.264.897 2.183.897.861 0 1.751-.449 1.751-1.302 0-.81-.502-1.041-1.493-1.23l-.833-.173c-1.249-.246-2.024-.825-2.024-1.866 0-1.259 1.02-2.17 2.584-2.17 1.092 0 1.953.26 2.513.911l-.732.565c-.46-.406-1.02-.637-1.838-.637-.876 0-1.48.477-1.48 1.172 0 .694.59.926 1.566 1.128l1.077.231c1.063.232 1.766.81 1.766 1.881 0 1.577-1.45 2.358-2.843 2.358Zm11.229 0c-1.867 0-3.36-.854-3.834-2.474l1.062-.39c.403 1.157 1.436 1.837 2.83 1.837 1.349 0 2.44-.666 2.44-1.852 0-1.1-.675-1.548-1.58-1.837l-1.938-.55c-1.436-.405-2.268-1.157-2.268-2.632 0-1.707 1.435-2.778 3.288-2.778 1.58 0 2.9.593 3.432 1.953l-1.006.405c-.445-.882-1.278-1.374-2.44-1.374-1.049 0-2.126.535-2.126 1.692 0 .81.488 1.375 1.695 1.736l1.952.55c1.207.333 2.126 1.085 2.126 2.72 0 1.764-1.45 2.994-3.633 2.994Zm7.983.014c-1.766 0-3.044-.969-3.044-2.806v-1.88c0-1.91 1.379-2.908 3.001-2.908 1.78 0 3.03 1.056 3.03 2.893v1.78c0 1.894-1.35 2.921-2.987 2.921Zm0-.926c1.192 0 1.896-.65 1.896-1.952v-1.924c0-1.1-.646-1.88-1.939-1.88-1.192 0-1.924.708-1.924 1.938v1.91c0 1.142.69 1.908 1.967 1.908Zm6.964.912c-1.536 0-2.311-1.042-2.311-2.416v-5.02h1.077v4.615c0 1.287.617 1.852 1.58 1.852 1.076 0 2.024-.825 2.024-2.2v-4.266h1.062v7.261h-1.034v-1.258h-.028a2.618 2.618 0 0 1-2.37 1.432Zm5.428-.174v-7.261h1.048v1.46h.03c.573-1.157 1.65-1.576 2.584-1.576.186 0 .373.014.531.043v1.013c-.244-.044-.474-.044-.66-.044-1.365 0-2.427.84-2.456 2.402v3.963h-1.077Zm8.127.188c-1.795 0-3.015-1.056-3.015-2.936v-1.62c0-1.924 1.235-3.038 2.987-3.038 1.65 0 2.843.94 2.843 2.517v.188h-1.034v-.246c0-.81-.603-1.562-1.795-1.562s-1.895.824-1.895 2.04v1.75c0 1.171.617 1.981 1.91 1.981 1.191 0 1.78-.737 1.78-1.547v-.203h1.034v.16c0 1.562-1.149 2.516-2.815 2.516Zm7.122 0c-1.766 0-3.101-.954-3.101-2.95v-1.534c0-1.996 1.35-3.11 3.087-3.11 1.594 0 2.857.97 2.857 2.85v1.142H204.3v.753c0 1.186.805 1.923 2.068 1.923.833 0 1.436-.433 1.824-.925l.818.492c-.646 1.012-1.68 1.36-2.714 1.36Zm-1.996-4.354h3.777v-.42c0-1.099-.646-1.923-1.852-1.923-1.163 0-1.925.868-1.925 2.025v.318Z"/>
</svg>
