<?xml version="1.0" encoding="UTF-8"?>
<svg width="210px" height="51px" viewBox="0 0 210 51" version="1.1" xmlns="http://www.w3.org/2000/svg" xmlns:xlink="http://www.w3.org/1999/xlink">
    <!-- Generator: sketchtool 52.3 (67297) - http://www.bohemiancoding.com/sketch -->
    <title>CC68341F-01C6-48A0-84C6-C78E21374258</title>
    <desc>Created with sketchtool.</desc>
    <g id="accepted" stroke="none" stroke-width="1" fill="none" fill-rule="evenodd">
        <g id="Menu_expanded" transform="translate(-200.000000, -12.000000)">
            <g id="header">
                <g id="logo-/-TW-/-dark" transform="translate(200.000000, 12.000000)">
                    <g id="Group-4">
                        <g id="TW_noback" fill="#2C69AC" fill-rule="nonzero">
                            <path d="M21.1238609,28.7541554 L5.79892769,28.7541554 L5.79892769,27.7125422 C8.93485268,27.4648071 9.95951757,27.380352 9.95951757,23.8782794 L9.95951757,1.91994656 C6.95871324,2.06633545 2.53914212,2.25213673 1.68900806,8.94661308 L0.43351206,8.94661308 L0.563002679,0.563034197 L26.3147457,0.563034197 L26.3991961,8.94661308 L25.1549602,8.94661308 C24.2991961,2.25213673 19.8739949,2.06633545 16.8900807,1.89742519 L16.8900807,23.8557581 C16.8900807,27.397243 17.9203756,27.4816982 21.0957108,27.6900208 L21.1238609,28.7541554 Z" id="Shape"></path>
                            <path d="M36.5557635,28.7541548 L25.1436996,28.7541548 L25.1436996,27.751954 C26.5174261,27.504219 27.4632706,27.3353087 27.4632706,25.2520823 L27.4632706,12.9891982 C27.4632706,10.9059718 26.4329757,10.6976492 25.1436996,10.5287389 L25.1436996,9.53216847 L33.2509379,9.53216847 L33.2509379,12.8259183 L33.3353883,12.8259183 C34.2361926,11.5309398 36.1504016,9.03106806 38.9654149,9.03106806 C41.8817686,9.03106806 42.5292217,11.2832047 42.5292217,12.2854055 C42.5813574,13.0349184 42.311079,13.771044 41.7863333,14.3087234 C41.2615876,14.8464027 40.5322848,15.1344955 39.7817687,15.1005764 C37.293297,15.1005764 37.3383372,12.6401171 35.9589807,12.6401171 C35.3171577,12.6401171 33.4254687,13.5578627 33.4254687,16.5813562 L33.4254687,24.4638345 C33.4254687,27.0087489 33.9378011,27.6337169 36.5613935,27.7575844 L36.5557635,28.7541548 Z" id="Shape"></path>
                            <path d="M54.6675611,18.2535684 C53.6823063,18.4562607 49.431636,19.6273717 49.431636,23.1463352 C49.431636,24.4019014 50.0734591,25.8601599 51.6217165,25.8601599 C53.0798935,25.8601599 54.0707782,24.7678736 54.6675611,24.1203843 L54.6675611,18.2535684 Z M63.0563003,26.4288249 C61.8900789,27.8457477 60.1671201,28.6877651 58.3327079,28.7372651 C55.3262737,28.7372651 54.9828421,27.0481625 54.7294909,25.9220941 C52.8965994,27.6955018 50.4559769,28.7024156 47.9058986,28.7372651 C45.8453089,28.7372651 43.1823063,27.4816988 43.1823063,24.4075321 C43.1823063,20.2016667 48.6321721,18.5801282 54.7294909,16.8403526 L54.7294909,13.884423 C54.7294909,11.8237179 54.1270781,10.3260469 50.951743,10.3260469 C49.4091157,10.3260469 48.4182311,11.1368162 48.4182311,11.7843055 C48.4182311,12.6344871 49.7075072,12.9554166 49.7075072,14.5375427 C49.7075072,15.2638568 49.0656841,16.7896795 46.8305635,16.7896795 C46.3126011,16.7896795 44.0155502,16.7896795 44.0155502,14.0364423 C44.0155502,11.4858974 46.717963,9.0198076 52.0439682,9.0198076 C56.8069707,9.0198076 60.6297588,10.7595833 60.6297588,14.5600641 L60.6297588,25.1338462 C60.58699,25.4014002 60.6700924,25.6737189 60.8549569,25.8717991 C61.0398215,26.0698794 61.3057537,26.1715473 61.5756033,26.1473078 C61.7349225,26.1559742 61.8904369,26.0966298 62.0034853,25.9840279 L62.4313673,25.5786432 L63.0563003,26.4288249 Z" id="Shape"></path>
                            <path d="M76.298123,13.6366879 C76.298123,13.5972755 75.3522785,11.1086643 72.948257,11.1086643 C69.9024125,11.1086643 69.2999996,14.774017 69.2999996,18.7265172 C69.2999996,21.0856305 69.2999996,26.3837825 72.734316,26.3837825 C74.7104554,26.3837825 76.298123,23.9796264 76.298123,23.5348294 L76.298123,13.6366879 Z M84.7938341,27.2790059 C79.4734586,27.8927131 79.0849867,27.9321255 76.421984,28.6246576 L76.421984,25.9783969 C74.8793566,27.5267409 73.6745308,28.66407 70.4541554,28.66407 C66.8903483,28.66407 62.9436994,25.2408222 62.9436994,19.2951813 C62.9436994,12.206581 67.1943697,8.82837591 71.2254691,8.82837591 C73.7983914,8.82837591 75.2621984,10.2922648 76.2924933,11.3563994 L76.2924933,3.90182686 C76.2924933,1.74540597 75.391689,1.70036323 73.0327077,1.53708332 L73.0327077,0.563034197 L82.2603219,0.563034197 L82.2603219,23.9852559 C82.2603219,25.1113243 82.3447724,26.2373926 84.7938341,26.3443691 L84.7938341,27.2790059 Z" id="Shape"></path>
                            <path d="M96.4254709,16.7446373 C96.3804306,15.4947013 96.3804306,13.3664321 96.036999,12.1784299 C95.7780178,11.2888358 95.2206451,10.2810046 93.717428,10.2810046 C92.1297605,10.2810046 90.6715836,11.1705987 90.6715836,16.7446373 L96.4254709,16.7446373 Z M101.903486,23.6474357 C99.2855239,27.4028736 96.8364623,28.7147432 93.4077761,28.7147432 C89.0726556,28.7147432 84.6924949,25.7250318 84.6924949,18.8166026 C84.6924949,12.8371797 88.5997333,9.04232942 93.5316367,9.04232942 C101.002682,9.04232942 101.560055,16.0689958 101.683915,18.2535684 L90.8911542,18.2535684 C91.0206448,21.6880768 91.9664893,25.8094869 96.0426285,25.8094869 C98.5761405,25.8094869 100.079358,24.030299 100.895711,23.1012926 L101.903486,23.6474357 Z" id="Shape"></path>
                            <path d="M138.954688,1.5821261 C137.451471,1.70599363 136.505627,2.70819451 135.993294,4.19460481 L127.407504,28.7766781 L126.247718,28.7766781 L119.041284,9.66729726 L118.742892,9.66729726 L110.911525,28.7766781 L109.72922,28.7766781 L100.625467,4.19460481 C99.8935631,2.23524578 99.4656811,1.82423081 97.6640725,1.5821261 L97.6640725,0.563034197 L110.280962,0.563034197 L110.280962,1.5821261 C108.738335,1.70599363 107.533509,1.78481842 107.533509,3.27122871 C107.550253,3.73420217 107.651375,4.19022895 107.831901,4.61688046 L112.938335,19.3571159 L113.022785,19.3571159 L118.044769,6.90279932 L116.541552,2.9615599 C115.978549,2.06070518 115.511257,1.61590816 113.450667,1.53145303 L113.450667,0.563034197 L126.838871,0.563034197 L126.838871,1.5821261 C124.992222,1.70599363 123.747986,1.74540602 123.747986,3.13610051 C123.86208,3.90736639 124.064204,4.66301097 124.350399,5.38823732 L128.927611,18.9742526 L129.012061,18.9742526 L133.803214,5.06730782 C134.002516,4.52655004 134.103568,3.95452172 134.101605,3.37820521 C134.101605,1.6891026 132.598388,1.6891026 131.140211,1.5821261 L131.140211,0.563034197 L138.954688,0.563034197 L138.954688,1.5821261 Z" id="Shape"></path>
                            <path d="M143.205366,0.467318384 C144.074326,0.45680935 144.911632,0.793127875 145.531908,1.40181509 C146.152185,2.0105023 146.504262,2.84134345 146.510192,3.71039538 C146.436807,5.49339846 144.970074,6.90108008 143.185661,6.90108008 C141.401248,6.90108008 139.934516,5.49339846 139.86113,3.71039538 C139.868418,2.83387277 140.227158,1.99694413 140.856913,1.38726467 C141.486668,0.777585215 142.334748,0.446166327 143.210996,0.467318384 L143.205366,0.467318384 Z M148.22172,28.7147428 L137.969441,28.7147428 L137.969441,27.712542 C139.512069,27.3409395 140.221452,27.2114416 140.221452,25.2183007 L140.221452,12.994829 C140.221452,11.1255556 139.579629,10.8327778 137.969441,10.54 L137.969441,9.57158129 L146.211801,9.57158129 L146.211801,25.3365379 C146.211801,26.6258861 146.555232,27.5436318 148.22735,27.7069117 L148.22172,28.7147428 Z" id="Shape"></path>
                            <path d="M171.907232,28.7541566 L161.823854,28.7541566 L161.823854,27.7519558 C163.236991,27.6280882 163.839404,26.9186651 163.839404,25.3759514 L163.839404,15.2863785 C163.839404,14.1152674 163.794363,11.8237182 161.480422,11.8237182 C159.791414,11.8237182 157.916615,13.8675323 157.916615,14.2447652 L157.916615,25.3759514 C157.916615,26.3331096 158.046106,27.5436331 160.016615,27.7519558 L160.016615,28.7541566 L149.685516,28.7541566 L149.685516,27.7519558 C151.228144,27.459178 151.937527,27.2902677 151.937527,25.2520839 L151.937527,12.989199 C151.937527,11.1142951 151.374524,10.7764745 149.685516,10.5287395 L149.685516,9.53216896 L157.877205,9.53216896 L157.877205,12.5331413 L157.961656,12.5331413 C159.215972,10.3535075 161.538672,9.00961516 164.053345,9.00854715 C166.412326,9.00854715 169.801602,10.3035258 169.801602,14.8866242 L169.801602,25.3759514 C169.801602,26.3781523 169.801602,27.6675006 171.907232,27.7519558 L171.907232,28.7541566 Z" id="Shape"></path>
                            <path d="M185.925998,13.6704702 C185.925998,13.6310578 184.980154,11.1368163 182.576132,11.1368163 C179.530288,11.1368163 178.927875,14.8134296 178.927875,18.7715599 C178.927875,21.1363035 178.927875,26.4457159 182.362191,26.4457159 C184.338331,26.4457159 185.925998,24.0359296 185.925998,23.5855022 L185.925998,13.6704702 Z M194.427339,27.3465699 C189.106964,27.9602771 188.718492,27.9996895 186.055489,28.6922215 L186.055489,26.0403306 C184.507232,27.5886746 183.308036,28.7147429 180.087661,28.7147429 C176.523854,28.7147429 172.577205,25.2858648 172.577205,19.3233329 C172.577205,12.2178416 176.827875,8.83400622 180.858974,8.83400622 C183.431897,8.83400622 184.895704,10.3035254 185.925999,11.36766 L185.925999,3.91308753 C185.925999,1.7510363 185.025194,1.70599357 182.666213,1.54271366 L182.666213,0.563034197 L191.893827,0.563034197 L191.893827,24.0359289 C191.893827,25.1619973 191.978278,26.3218477 194.427339,26.4063028 L194.427339,27.3465699 Z" id="Shape"></path>
                            <path d="M207.900004,14.9767092 C206.9992,12.1052348 205.023061,10.3654591 202.579629,10.3654591 C201.037002,10.3654591 199.832176,11.4183331 199.832176,12.6738993 C199.832176,16.80094 209.876144,15.8719336 209.876144,22.5044765 C209.876144,26.35 207.128691,28.7372651 203.120111,28.7372651 C200.975071,28.7372651 198.053087,27.5661539 197.670246,27.5661539 C197.287404,27.5661539 196.938342,27.8927138 196.51046,28.6922223 L195.440755,28.6922223 L195.440755,22.0146367 L196.645581,22.0146367 C196.904562,23.1069231 197.934857,27.3578313 202.697859,27.3578313 C204.8429,27.3578313 205.743704,25.8995727 205.743704,24.6890492 C205.743704,20.9673931 195.530835,21.2094978 195.530835,14.9767092 C195.530835,11.4183331 198.407779,9.03106806 202.354428,9.03106806 C204.369977,9.03106806 206.132176,9.9206621 206.94853,9.9206621 C207.456362,9.9516086 207.910749,9.60721162 208.018235,9.10989285 L208.964079,9.10989285 L208.964079,14.9767092 L207.900004,14.9767092 Z" id="Shape"></path>
                        </g>
                        <path d="M3.89128209,47.2222217 L3.89128209,37.9065444 L0.55999998,37.9065444 L0.55999998,36.9084361 L8.3569232,36.9084361 L8.3569232,37.9065444 L5.04000006,37.9065444 L5.04000006,47.2222217 L3.89128209,47.2222217 Z M9.77846179,47.2222214 L9.77846179,36.8939708 L10.8410259,36.8939708 L10.8410259,41.2191065 L10.8841028,41.2191065 C11.372308,40.2788596 12.2912824,39.8015035 13.2102567,39.8015035 C14.746667,39.8015035 15.5220516,40.8140771 15.5220516,42.2027495 L15.5220516,47.2222214 L14.4451285,47.2222214 L14.4451285,42.6077789 C14.4451285,41.3203639 13.8420516,40.7417504 12.8800003,40.7417504 C11.7887182,40.7417504 10.8410259,41.5662746 10.8410259,42.9404817 L10.8410259,47.2222214 L9.77846179,47.2222214 Z M20.3035905,47.4102713 C18.5374366,47.4102713 17.2020519,46.455559 17.2020519,44.4593423 L17.2020519,42.9260165 C17.2020519,40.9297998 18.5517956,39.8159688 20.2892315,39.8159688 C21.8830777,39.8159688 23.1466675,40.7851465 23.1466675,42.6656404 L23.1466675,43.8084021 L18.307693,43.8084021 L18.307693,44.5605997 C18.307693,45.7467574 19.1117956,46.4844896 20.3753854,46.4844896 C21.2082059,46.4844896 21.8112829,46.0505295 22.1989752,45.558708 L23.0174367,46.0505295 C22.3712829,47.0631031 21.3374367,47.4102713 20.3035905,47.4102713 Z M18.3076924,43.0562041 L22.0841028,43.0562041 L22.0841028,42.6367094 C22.0841028,41.5373438 21.437949,40.7128195 20.2317951,40.7128195 C19.0687181,40.7128195 18.3076924,41.5807398 18.3076924,42.7379667 L18.3076924,43.0562041 Z M32.1210257,47.4102706 C29.9384616,47.4102706 28.2010258,46.2096476 28.2010258,43.9530551 L28.2010258,40.3656516 C28.2010258,38.1669204 29.8523078,36.7059214 32.0779487,36.7059214 C34.116923,36.7059214 35.7394871,37.8342177 35.7394871,39.7436421 L35.7394871,40.2354636 L34.6338461,40.2354636 L34.6338461,39.8882955 C34.6338461,38.4996231 33.5569231,37.7474256 32.0492308,37.7474256 C30.5558975,37.7474256 29.3497437,38.7021379 29.3497437,40.3511862 L29.3497437,43.8228671 C29.3497437,45.3851234 30.5128206,46.3687663 32.1210257,46.3687663 C33.614359,46.3687663 34.676923,45.5587075 34.676923,44.1700352 L34.676923,43.0128082 L31.8625641,43.0128082 L31.8625641,41.971304 L35.782564,41.971304 L35.782564,44.3146885 C35.782564,46.267509 34.2317948,47.4102706 32.1210257,47.4102706 Z M39.4441018,47.3090131 C38.0656403,47.3090131 37.7928198,46.2819742 37.7928198,45.4429846 L37.7928198,36.8939708 L38.8697429,36.8939708 L38.8697429,45.4863807 C38.8697429,45.9926674 39.1425634,46.3832315 39.8030762,46.3832315 C40.0902557,46.3832315 40.3343582,46.3398355 40.5928198,46.3109048 L40.5928198,47.135429 C40.2338454,47.2511517 39.7887172,47.3090131 39.4441018,47.3090131 Z M44.6994856,47.4102713 C42.9333318,47.4102713 41.6553831,46.4410936 41.6553831,44.6039957 L41.6553831,42.7235018 C41.6553831,40.8140771 43.0338446,39.8159688 44.6564087,39.8159688 C46.4369215,39.8159688 47.6861522,40.8719385 47.6861522,42.7090364 L47.6861522,44.488273 C47.6861522,46.3832323 46.3364086,47.4102713 44.6994856,47.4102713 Z M44.6994875,46.4844894 C45.8912824,46.4844894 46.5948722,45.8335492 46.5948722,44.5316688 L46.5948722,42.607779 C46.5948722,41.5084133 45.9487183,40.7272851 44.6564106,40.7272851 C43.4646157,40.7272851 42.7323079,41.4360867 42.7323079,42.6656403 L42.7323079,44.5750649 C42.7323079,45.7178265 43.4215387,46.4844894 44.6994875,46.4844894 Z M52.5825642,47.4102709 C51.6923078,47.4102709 50.8020513,46.8895188 50.4861539,46.0649946 L50.443077,46.0649946 L50.443077,47.2222215 L49.4235897,47.2222215 L49.4235897,36.9084361 L50.4861539,36.9084361 L50.4861539,41.1467799 L50.5292308,41.1467799 C51.017436,40.1776023 51.9794873,39.8015035 52.7548719,39.8015035 C54.2912822,39.8015035 55.3682053,40.7851465 55.3682053,42.3907989 L55.3682053,44.6039955 C55.3682053,46.556816 54.0041027,47.4102709 52.5825642,47.4102709 Z M52.4676906,46.4844894 C53.343588,46.4844894 54.2769213,45.9492719 54.2769213,44.7052529 L54.2769213,42.3907989 C54.2769213,41.4216213 53.5733316,40.7272851 52.4389727,40.7272851 C51.5199983,40.7272851 50.4861522,41.537344 50.4861522,42.9260164 L50.4861522,44.4304115 C50.4861522,45.6888958 51.4051265,46.4844894 52.4676906,46.4844894 Z M59.1158988,47.3813399 C57.7661553,47.3813399 56.7179501,46.6146771 56.7179501,45.2694007 C56.7179501,43.692679 58.1394886,43.0851349 59.3887194,43.0851349 L61.4420527,43.0851349 L61.4420527,42.0725613 C61.4420527,41.0310571 60.7528219,40.6549583 59.7189758,40.6549583 C58.8717963,40.6549583 58.0102578,40.9587304 58.0102578,41.7832546 L58.0102578,42.0291653 L57.0338476,42.0291653 L57.0338476,41.8121853 C57.0338476,40.3367209 58.4123091,39.8015035 59.7620527,39.8015035 C61.2123091,39.8015035 62.5189758,40.3077903 62.5189758,41.9423733 L62.5189758,45.4574501 C62.5189758,45.8624795 62.5764117,46.9329145 62.6194886,47.2222212 L61.5712835,47.2222212 C61.5425655,47.0052411 61.5138476,46.3832317 61.4994886,46.1951823 L61.4707706,46.1951823 C60.8676937,47.1932905 60.0061553,47.3813399 59.1158988,47.3813399 Z M59.4030767,46.5278852 C60.8389742,46.5278852 61.4420511,45.7178263 61.4420511,44.5750647 L61.4420511,43.8807286 L59.5753844,43.8807286 C58.6564101,43.8807286 57.7805126,44.1266393 57.7805126,45.2115396 C57.7805126,46.0939251 58.5271793,46.5278852 59.4030767,46.5278852 Z M66.1661527,47.3090131 C64.7876912,47.3090131 64.5148707,46.2819742 64.5148707,45.4429846 L64.5148707,36.8939708 L65.5917938,36.8939708 L65.5917938,45.4863807 C65.5917938,45.9926674 65.8646143,46.3832315 66.5251271,46.3832315 C66.8123066,46.3832315 67.0564092,46.3398355 67.3148707,46.3109048 L67.3148707,47.135429 C66.9558963,47.2511517 66.5107681,47.3090131 66.1661527,47.3090131 Z M75.4564135,47.3958057 C73.5897467,47.3958057 72.0964134,46.5423508 71.6225672,44.922233 L72.6851313,44.5316689 C73.0871826,45.6888959 74.1210288,46.3687667 75.5138494,46.3687667 C76.863593,46.3687667 77.9548751,45.7033612 77.9548751,44.5172036 C77.9548751,43.4178379 77.2800032,42.9694125 76.3753878,42.6801057 L74.4369263,42.1304229 C73.0010288,41.7253934 72.1682083,40.9731959 72.1682083,39.4977315 C72.1682083,37.7908217 73.6041057,36.7203867 75.4564135,36.7203867 C77.0359007,36.7203867 78.3569264,37.3134656 78.8882084,38.6732073 L77.8830802,39.0782367 C77.437952,38.1958511 76.6051314,37.7040297 75.4420545,37.7040297 C74.3938493,37.7040297 73.3169262,38.2392471 73.3169262,39.3964741 C73.3169262,40.206533 73.8051314,40.7706812 75.0112852,41.1323146 L76.9641058,41.6819974 C78.1702597,42.0147002 79.0892341,42.7668977 79.0892341,44.4014809 C79.0892341,46.166252 77.6389776,47.3958057 75.4564135,47.3958057 Z M80.7405115,47.2222214 L80.7405115,36.8939708 L81.8030756,36.8939708 L81.8030756,41.2191065 L81.8461525,41.2191065 C82.3343576,40.2788596 83.253332,39.8015035 84.1723064,39.8015035 C85.7087167,39.8015035 86.4841013,40.8140771 86.4841013,42.2027495 L86.4841013,47.2222214 L85.4071782,47.2222214 L85.4071782,42.6077789 C85.4071782,41.3203639 84.8041013,40.7417504 83.84205,40.7417504 C82.7507679,40.7417504 81.8030756,41.5662746 81.8030756,42.9404817 L81.8030756,47.2222214 L80.7405115,47.2222214 Z M88.5087181,47.2222215 L88.5087181,39.9606223 L89.5712822,39.9606223 L89.5712822,47.2222215 L88.5087181,47.2222215 Z M88.5087181,38.4851578 L88.5087181,36.9084361 L89.5712822,36.9084361 L89.5712822,38.4851578 L88.5087181,38.4851578 Z M91.6676951,50.0284965 L91.6676951,39.9606222 L92.7015413,39.9606222 L92.7015413,41.1467798 L92.7302592,41.1467798 C93.2471823,40.1920676 94.2235926,39.8015035 94.9989773,39.8015035 C96.5353876,39.8015035 97.6123107,40.770681 97.6123107,42.3763334 L97.6123107,44.6039952 C97.6123107,46.5568157 96.276926,47.4102706 94.8697465,47.4102706 C93.9651311,47.4102706 93.0892336,46.8895184 92.7733361,46.0649943 L92.7302592,46.0649943 L92.7302592,50.0284965 L91.6676951,50.0284965 Z M94.711796,46.4844894 C95.5876934,46.4844894 96.5210267,45.9492719 96.5210267,44.7052529 L96.5210267,42.4197296 C96.5210267,41.450552 95.817437,40.7272851 94.683078,40.7272851 C93.7641037,40.7272851 92.7302575,41.493948 92.7302575,42.8826204 L92.7302575,44.4304115 C92.7302575,45.6888958 93.6492319,46.4844894 94.711796,46.4844894 Z M99.3641043,50.0284965 L99.3641043,39.9606222 L100.39795,39.9606222 L100.39795,41.1467798 L100.426668,41.1467798 C100.943592,40.1920676 101.920002,39.8015035 102.695386,39.8015035 C104.231797,39.8015035 105.30872,40.770681 105.30872,42.3763334 L105.30872,44.6039952 C105.30872,46.5568157 103.973335,47.4102706 102.566156,47.4102706 C101.66154,47.4102706 100.785643,46.8895184 100.469745,46.0649943 L100.426668,46.0649943 L100.426668,50.0284965 L99.3641043,50.0284965 Z M102.408205,46.4844894 C103.284103,46.4844894 104.217436,45.9492719 104.217436,44.7052529 L104.217436,42.4197296 C104.217436,41.450552 103.513846,40.7272851 102.379487,40.7272851 C101.460513,40.7272851 100.426667,41.493948 100.426667,42.8826204 L100.426667,44.4304115 C100.426667,45.6888958 101.345641,46.4844894 102.408205,46.4844894 Z M107.060514,47.2222215 L107.060514,39.9606223 L108.123078,39.9606223 L108.123078,47.2222215 L107.060514,47.2222215 Z M107.060514,38.4851578 L107.060514,36.9084361 L108.123078,36.9084361 L108.123078,38.4851578 L107.060514,38.4851578 Z M110.219491,47.2222213 L110.219491,39.9606222 L111.253337,39.9606222 L111.253337,41.2191065 L111.282055,41.2191065 C111.784619,40.2788596 112.689234,39.8015035 113.651285,39.8015035 C115.187696,39.8015035 115.96308,40.8140771 115.96308,42.2027494 L115.96308,47.2222213 L114.886157,47.2222213 L114.886157,42.6077788 C114.886157,41.3203639 114.28308,40.7417504 113.321029,40.7417504 C112.229747,40.7417504 111.282055,41.5662746 111.282055,42.9404816 L111.282055,47.2222213 L110.219491,47.2222213 Z M120.414358,50.1731504 C119.351794,50.1731504 118.28923,49.7391903 117.786666,48.7989434 L118.763076,48.3794486 C119.193845,49.0159234 119.768204,49.3052302 120.500512,49.3052302 C121.749743,49.3052302 122.525127,48.4951713 122.525127,47.2077562 L122.525127,45.8190838 C122.036922,46.7593308 121.161025,47.1354295 120.285127,47.1354295 C118.648204,47.1354295 117.657435,46.1517866 117.657435,44.5605995 L117.657435,42.5933136 C117.657435,40.7272851 118.964102,39.8015035 120.328204,39.8015035 C121.132307,39.8015035 122.151794,40.2209983 122.525127,41.1612452 L122.525127,39.9606222 L123.558973,39.9606222 L123.558973,47.0631029 C123.558973,48.7555473 122.525127,50.1731504 120.414358,50.1731504 Z M120.586664,46.2675094 C121.519997,46.2675094 122.525125,45.6310346 122.525125,44.1411048 L122.525125,42.694571 C122.525125,41.4360867 121.548715,40.7272851 120.557946,40.7272851 C119.682048,40.7272851 118.748715,41.2625026 118.748715,42.520987 L118.748715,44.5750649 C118.748715,45.5442426 119.423587,46.2675094 120.586664,46.2675094 Z M129.173338,47.2222214 L129.173338,36.8939708 L130.336415,36.8939708 L135.620518,45.1970742 L135.649236,45.1970742 L135.649236,36.8939708 L136.754877,36.8939708 L136.754877,47.2222214 L135.620518,47.2222214 L130.293338,38.8033953 L130.26462,38.8033953 L130.26462,47.2222214 L129.173338,47.2222214 Z M141.680004,47.4102713 C139.91385,47.4102713 138.578465,46.455559 138.578465,44.4593423 L138.578465,42.9260165 C138.578465,40.9297998 139.928209,39.8159688 141.665645,39.8159688 C143.259491,39.8159688 144.523081,40.7851465 144.523081,42.6656404 L144.523081,43.8084021 L139.684106,43.8084021 L139.684106,44.5605997 C139.684106,45.7467574 140.488209,46.4844896 141.751798,46.4844896 C142.584619,46.4844896 143.187696,46.0505295 143.575388,45.558708 L144.39385,46.0505295 C143.747696,47.0631031 142.71385,47.4102713 141.680004,47.4102713 Z M139.684107,43.0562041 L143.460518,43.0562041 L143.460518,42.6367094 C143.460518,41.5373438 142.814364,40.7128195 141.60821,40.7128195 C140.445133,40.7128195 139.684107,41.5807398 139.684107,42.7379667 L139.684107,43.0562041 Z M147.753853,47.2511522 L145.499494,39.9606223 L146.619494,39.9606223 L148.313853,45.8624799 L148.328212,45.8624799 L150.123084,39.9606223 L151.113853,39.9606223 L152.83693,45.8480145 L152.865648,45.8480145 L154.588725,39.9606223 L155.708725,39.9606223 L153.39693,47.2511522 L152.334366,47.2511522 L150.611289,41.36376 L150.582571,41.36376 L148.816417,47.2511522 L147.753853,47.2511522 Z M159.442047,47.3958057 C158.264611,47.3958057 157.187688,47.0775683 156.512816,46.2385787 L157.245124,45.6310345 C157.819483,46.2241133 158.508713,46.5278854 159.427688,46.5278854 C160.289226,46.5278854 161.179483,46.07946 161.179483,45.2260051 C161.179483,44.4159462 160.676919,44.1845007 159.686149,43.9964514 L158.853329,43.8228673 C157.604098,43.5769566 156.828713,42.9983431 156.828713,41.9568388 C156.828713,40.6983544 157.848201,39.7870381 159.413329,39.7870381 C160.504611,39.7870381 161.366149,40.0474142 161.926149,40.6983544 L161.193842,41.2625026 C160.734355,40.8574731 160.174355,40.6260277 159.355893,40.6260277 C158.479996,40.6260277 157.876919,41.1033838 157.876919,41.79772 C157.876919,42.4920563 158.465637,42.7235017 159.442047,42.9260164 L160.51897,43.1574618 C161.581534,43.3889072 162.285124,43.9675207 162.285124,45.0379557 C162.285124,46.6146775 160.834867,47.3958057 159.442047,47.3958057 Z M170.670764,47.3958057 C168.804097,47.3958057 167.310764,46.5423508 166.836917,44.922233 L167.899482,44.5316689 C168.301533,45.6888959 169.335379,46.3687667 170.7282,46.3687667 C172.077943,46.3687667 173.169225,45.7033612 173.169225,44.5172036 C173.169225,43.4178379 172.494353,42.9694125 171.589738,42.6801057 L169.651276,42.1304229 C168.215379,41.7253934 167.382558,40.9731959 167.382558,39.4977315 C167.382558,37.7908217 168.818456,36.7203867 170.670764,36.7203867 C172.250251,36.7203867 173.571277,37.3134656 174.102559,38.6732073 L173.09743,39.0782367 C172.652302,38.1958511 171.819482,37.7040297 170.656405,37.7040297 C169.6082,37.7040297 168.531276,38.2392471 168.531276,39.3964741 C168.531276,40.206533 169.019482,40.7706812 170.225635,41.1323146 L172.178456,41.6819974 C173.38461,42.0147002 174.303584,42.7668977 174.303584,44.4014809 C174.303584,46.166252 172.853328,47.3958057 170.670764,47.3958057 Z M178.654361,47.4102713 C176.888207,47.4102713 175.610259,46.4410936 175.610259,44.6039957 L175.610259,42.7235018 C175.610259,40.8140771 176.98872,39.8159688 178.611284,39.8159688 C180.391797,39.8159688 181.641028,40.8719385 181.641028,42.7090364 L181.641028,44.488273 C181.641028,46.3832323 180.291284,47.4102713 178.654361,47.4102713 Z M178.654356,46.4844894 C179.846151,46.4844894 180.549741,45.8335492 180.549741,44.5316688 L180.549741,42.607779 C180.549741,41.5084133 179.903587,40.7272851 178.611279,40.7272851 C177.419484,40.7272851 176.687176,41.4360867 176.687176,42.6656403 L176.687176,44.5750649 C176.687176,45.7178265 177.376407,46.4844894 178.654356,46.4844894 Z M185.618463,47.3958057 C184.082052,47.3958057 183.306668,46.3543014 183.306668,44.9800943 L183.306668,39.9606223 L184.383591,39.9606223 L184.383591,44.5750649 C184.383591,45.8624799 185.001027,46.4266281 185.963078,46.4266281 C187.040001,46.4266281 187.987694,45.6021039 187.987694,44.2278968 L187.987694,39.9606223 L189.050258,39.9606223 L189.050258,47.2222216 L188.016412,47.2222216 L188.016412,45.9637373 L187.987694,45.9637373 C187.485129,46.9184496 186.580514,47.3958057 185.618463,47.3958057 Z M191.04615,47.2222215 L191.04615,39.9606222 L192.094355,39.9606222 L192.094355,41.4216213 L192.123073,41.4216213 C192.697432,40.2643943 193.774355,39.8448995 194.707688,39.8448995 C194.894355,39.8448995 195.081022,39.8593648 195.23897,39.8882955 L195.23897,40.9008691 C194.994868,40.8574731 194.765124,40.8574731 194.578458,40.8574731 C193.214355,40.8574731 192.151791,41.6964627 192.123073,43.2587191 L192.123073,47.2222215 L191.04615,47.2222215 Z M199.173338,47.4102713 C197.378467,47.4102713 196.157954,46.3543016 196.157954,44.4738076 L196.157954,42.8536898 C196.157954,40.9297998 197.392826,39.8159688 199.144621,39.8159688 C200.795903,39.8159688 201.987698,40.7562158 201.987698,42.3329376 L201.987698,42.520987 L200.953851,42.520987 L200.953851,42.2750763 C200.953851,41.4650173 200.350774,40.7128198 199.158979,40.7128198 C197.967185,40.7128198 197.263595,41.537344 197.263595,42.7524324 L197.263595,44.5027383 C197.263595,45.6744307 197.881031,46.4844896 199.173338,46.4844896 C200.365133,46.4844896 200.953851,45.7467574 200.953851,44.9366985 L200.953851,44.7341837 L201.987698,44.7341837 L201.987698,44.8933025 C201.987698,46.455559 200.83898,47.4102713 199.173338,47.4102713 Z M206.295392,47.4102713 C204.529238,47.4102713 203.193853,46.455559 203.193853,44.4593423 L203.193853,42.9260165 C203.193853,40.9297998 204.543597,39.8159688 206.281033,39.8159688 C207.874879,39.8159688 209.138469,40.7851465 209.138469,42.6656404 L209.138469,43.8084021 L204.299494,43.8084021 L204.299494,44.5605997 C204.299494,45.7467574 205.103597,46.4844896 206.367186,46.4844896 C207.200007,46.4844896 207.803084,46.0505295 208.190776,45.558708 L209.009238,46.0505295 C208.363084,47.0631031 207.329238,47.4102713 206.295392,47.4102713 Z M204.299481,43.0562041 L208.075891,43.0562041 L208.075891,42.6367094 C208.075891,41.5373438 207.429737,40.7128195 206.223584,40.7128195 C205.060507,40.7128195 204.299481,41.5807398 204.299481,42.7379667 L204.299481,43.0562041 Z" id="The-Global-Shipping" fill="#323232"></path>
                    </g>
                </g>
            </g>
        </g>
    </g>
</svg>
