<svg xmlns="http://www.w3.org/2000/svg" viewBox="0 0 500 108">
  <title>Upstream</title>
  <path fill="#1D427A" d="M157.69 44.779c.09 0-9.46-2.129-9.46-2.129-5.66-1.478-11.5-3.616-11.5-8.991 0-8.712 10.76-9.172 12.98-9.172 8.72 0 14.19 4.446 14.47 11.96v.928h9v-.929c-.46-12.238-9-19.741-22.44-19.741-11.41-.28-22.91 5.095-22.91 17.144 0 11.12 8.44 14.276 17.07 16.594l9.27 2.038c7.51 1.849 12.15 4.077 12.15 9.821 0 8.063-9.92 10.2-15.12 10.2-9.74 0-15.86-5.194-16.42-13.806l-.09-.84h-9.09l.09 1.02c1.11 13.907 10.02 21.6 25.04 21.6 12.15 0 24.48-5.745 24.48-18.533.01-13.458-13.44-16.615-17.52-17.164ZM43.31 18.003v32.72c0 14.736-8.16 25.207-21.7 25.207-16.42 0-17.16-13.528-17.16-19.742V18.003H0V55.36c0 7.323.28 24.377 21.52 24.377 9.37 0 18.55-5.285 21.61-14.277h.28v12.879h4.45l-.09-60.335h-4.46ZM89.99 16.435c-9.74 0-18.08 5.005-21.52 13.158h-.28v-11.5h-6.77V108h7.33V67.038h.28c3.15 8.622 11.96 13.158 20.96 13.158 18.36 0 27.17-14.826 27.17-31.89 0-17.045-8.81-31.871-27.17-31.871Zm0 57.367c-15.67 0-21.15-13.158-21.15-25.677 0-13.627 4.92-25.676 21.15-25.676 14 0 19.75 13.258 19.75 25.676 0 12.429-5.75 25.677-19.75 25.677ZM191.15 0v18.073h-10.29v8.712h10.29V65.16c0 11.03 4.08 13.157 14.38 13.157h7.6v-8.711h-4.54c-6.21 0-7.51-.83-7.51-5.375V26.785h12.06v-8.712h-12.06V0h-9.93ZM236.43 29.772h-.28V18.103h-12.52v60.334h13.36V49.704c0-13.348 7.23-20.67 16.32-20.67 1.85 0 3.9.279 5.75.559V16.804c-1.11-.09-1.95-.37-5.01-.37-8.16 0-16.14 6.944-17.62 13.338ZM291.87 16.495c-18.27 0-30.79 13.807-30.79 31.89 0 18.633 11.78 31.7 30.79 31.7 13.73 0 23.65-6.024 28.29-20.3H305.6c-1.02 3.706-6.4 7.782-13.08 7.782-9.25 0-14.34-4.795-14.83-15.205h-.01v-.09c0 .03.01.06.01.09h43.49c1.2-18.623-8.72-35.867-29.31-35.867ZM277.68 41.71c.28-4.635 3.34-12.788 13.82-12.788 8.07 0 11.69 4.356 13.17 12.788h-26.99ZM387.7 36.406c0-17.144-13.91-20.3-28.29-20.3-6.96 0-13.91 1.108-19.29 4.165-5.38 3.147-9.09 8.253-9.46 16.225h18.64c.93-5.195 4.45-7.603 9.92-7.603 4.08 0 9.55 1.759 9.55 6.304 0 3.707-1.95 4.816-5.29 5.565-13.73 2.878-35.24 1.3-35.24 21.04 0 12.51 9.09 18.354 20.68 18.354 7.23 0 14.84-2.128 19.94-7.513.28 2.038.46 3.896 1.21 5.744h19.94c-2.32-4.725-2.32-10.38-2.32-15.475V36.406h.01Zm-31.44 31.421c-4.36 0-8.25-1.948-8.25-6.953 0-4.816 3.71-6.674 8.16-7.693 4.27-1.11 9.46-1.489 12.24-3.247.46 12.518-2.69 17.893-12.15 17.893ZM479.33 16.535c-15.03 0-19.66 8.712-20.59 9.45-2.78-6.113-9.83-9.45-16.32-9.45-8.35 0-15.12 2.597-19.75 9.55h-.28v-7.972h-22.26l.09 60.254h23v-32.64c0-6.303 1.95-10.84 7.79-10.84 7.05 0 7.6 5.196 7.6 10.84v32.63h23v-32.63c0-6.303 1.95-10.84 7.79-10.84 7.05 0 7.6 5.196 7.6 10.84v32.63h23V37.017c.01-9.821-5.19-20.481-20.67-20.481Z"/>
</svg>
