<svg width="31" height="31" viewBox="0 0 31 31" fill="none" xmlns="http://www.w3.org/2000/svg">
<path d="M24.6664 26.6473V25.6547C24.6664 24.2193 23.8971 22.894 22.6511 22.182L18.6704 19.8987" stroke="#13264A" stroke-width="1.2" stroke-miterlimit="10"/>
<path d="M11.9967 19.8979L8.016 22.1813C6.76933 22.8939 6 24.2193 6 25.6546V26.6473" stroke="#13264A" stroke-width="1.2" stroke-miterlimit="10"/>
<path d="M15.3333 21.3333C12.388 21.3333 10 18.2786 10 15.3333V12.6666C10 9.72125 12.388 7.33325 15.3333 7.33325C18.2787 7.33325 20.6667 9.72125 20.6667 12.6666V15.3333C20.6667 18.2786 18.2787 21.3333 15.3333 21.3333Z" stroke="#13264A" stroke-width="1.2" stroke-miterlimit="10" stroke-linecap="square"/>
<path d="M15.3332 30C23.4333 30 29.9998 23.4335 29.9998 15.3333C29.9998 7.23312 23.4333 0.666626 15.3332 0.666626C7.23299 0.666626 0.666504 7.23312 0.666504 15.3333C0.666504 23.4335 7.23299 30 15.3332 30Z" stroke="#13264A" stroke-width="1.2" stroke-miterlimit="10" stroke-linecap="square"/>
</svg>
